<svg width="15" height="15" viewBox="0 0 15 15" fill="none" xmlns="http://www.w3.org/2000/svg">
<path d="M3.40829 0L11.8023 8.394L13.2978 6.8985L14.2923 7.893L12.55 9.63525L14.7925 11.8785C14.8579 11.9438 14.9097 12.0213 14.9451 12.1066C14.9805 12.1919 14.9987 12.2834 14.9987 12.3757C14.9987 12.4681 14.9805 12.5596 14.9451 12.6449C14.9097 12.7302 14.8579 12.8077 14.7925 12.873L14.2923 13.374C14.227 13.4394 14.1495 13.4912 14.0642 13.5266C13.9789 13.562 13.8874 13.5802 13.795 13.5802C13.7027 13.5802 13.6112 13.562 13.5259 13.5266C13.4406 13.4912 13.3631 13.4394 13.2978 13.374L11.0268 11.1383L9.30554 12.8805L8.31104 11.886L9.80579 10.3905L1.41179 1.9965V0H3.40829ZM10.2438 5.3325L13.5873 1.989V0H11.5908L8.24729 3.3435L10.2438 5.3325ZM6.75179 8.85975L4.75529 6.83475L3.19679 8.39475L1.70129 6.8985L0.706787 7.893L2.44904 9.63525L0.206537 11.8853C0.141069 11.9505 0.0891264 12.0281 0.0536849 12.1135C0.0182434 12.1989 0 12.2904 0 12.3829C0 12.4753 0.0182434 12.5669 0.0536849 12.6523C0.0891264 12.7377 0.141069 12.8152 0.206537 12.8805L0.706787 13.3815C0.772056 13.4469 0.849568 13.4987 0.934891 13.5341C1.02021 13.5695 1.11167 13.5877 1.20404 13.5877C1.2964 13.5877 1.38786 13.5695 1.47318 13.5341C1.55851 13.4987 1.63602 13.4469 1.70129 13.3815L3.97229 11.1383L5.69354 12.8805L6.68804 11.886L5.19329 10.3905L6.75179 8.85975Z" fill="#3D3D40"/>
</svg>
