<svg width="60" height="60" viewBox="0 0 60 60" fill="none" xmlns="http://www.w3.org/2000/svg">
<g clip-path="url(#clip0_7_229)">
<g clip-path="url(#clip1_7_229)">
<path fill-rule="evenodd" clip-rule="evenodd" d="M10.9663 31.8751L11.335 30.5001L10.3413 29.4826C8.51593 27.6173 7.49569 25.11 7.50001 22.5001C7.49958 20.4008 8.15986 18.3545 9.38729 16.6514C10.6147 14.9482 12.347 13.6745 14.3387 13.0109C16.3304 12.3472 18.4805 12.3272 20.4842 12.9537C22.4879 13.5802 24.2436 14.8214 25.5025 16.5014L26.2525 17.5001H33.7488L34.4988 16.5014C35.7578 14.8219 37.5135 13.5812 39.5169 12.955C41.5204 12.3289 43.6701 12.349 45.6615 13.0126C47.6529 13.6762 49.385 14.9496 50.6123 16.6524C51.8397 18.3552 52.5001 20.4011 52.5 22.5001C52.4988 25.0039 51.5825 27.2876 50.0625 29.0414L49.195 30.0439L49.5375 31.3251L52.81 43.5351L43.15 46.1226L39.6913 33.2126L39.3875 32.0801L38.3213 31.5889C36.81 30.8916 35.4957 29.8298 34.4963 28.4989L33.7463 27.5001H26.25L25.5 28.4989C24.6376 29.6473 23.5392 30.5978 22.2788 31.2864L21.3375 31.7989L21.0613 32.8339L17.7175 45.3089L8.05876 42.7214L10.9663 31.8751ZM51.9538 30.6789L55.225 42.8889C55.3101 43.206 55.3318 43.5368 55.2891 43.8624C55.2463 44.1879 55.1398 44.5019 54.9756 44.7862C54.8115 45.0706 54.593 45.3199 54.3325 45.5198C54.072 45.7197 53.7747 45.8664 53.4575 45.9514L43.7988 48.5389C43.4816 48.6239 43.1508 48.6457 42.8253 48.6029C42.4997 48.5601 42.1858 48.4536 41.9014 48.2895C41.617 48.1254 41.3677 47.9068 41.1678 47.6463C40.9679 47.3858 40.8213 47.0885 40.7363 46.7714L37.2775 33.8589C35.3895 32.9884 33.7474 31.6624 32.4988 30.0001H27.5013C26.4236 31.4347 25.0512 32.6218 23.4763 33.4814L20.1338 45.9564C20.0488 46.2735 19.9021 46.5709 19.7022 46.8313C19.5023 47.0918 19.253 47.3104 18.9686 47.4745C18.6842 47.6386 18.3703 47.7451 18.0448 47.7879C17.7192 47.8307 17.3884 47.8089 17.0713 47.7239L7.41251 45.1376C7.09535 45.0526 6.79804 44.906 6.53756 44.7061C6.27707 44.5062 6.05853 44.2569 5.89439 43.9725C5.73026 43.6881 5.62376 43.3742 5.58097 43.0486C5.53818 42.7231 5.55994 42.3923 5.64501 42.0751L8.55126 31.2289C6.27036 28.8965 4.9953 25.7624 5.00001 22.5001C5.00001 15.5964 10.5963 10.0001 17.5 10.0001C19.4408 9.99867 21.3553 10.4498 23.0912 11.3178C24.8271 12.1858 26.3367 13.4466 27.5 15.0001H32.5C33.6633 13.4466 35.1729 12.1858 36.9089 11.3178C38.6448 10.4498 40.5592 9.99867 42.5 10.0001C49.4038 10.0001 55 15.5964 55 22.5001C55.0046 25.5046 53.9227 28.4094 51.9538 30.6789ZM16.25 20.0001V17.5001H18.75V20.0001H16.25ZM20 21.2501H22.5V23.7501H20V21.2501ZM15 21.2501H12.5V23.7501H15V21.2501ZM16.25 27.5001V25.0001H18.75V27.5001H16.25Z" fill="#694DD8"/>
<path d="M49.7854 22.2826C49.5488 22.0471 49.2439 21.8923 48.9142 21.8401C47.6454 21.6751 47.0104 21.3801 46.1392 20.4776C45.2704 19.5926 44.9804 18.9851 44.7804 17.6964C44.7436 17.3328 44.5912 16.9906 44.3454 16.7201C44.2014 16.572 44.0292 16.4542 43.8391 16.3735C43.6489 16.2928 43.4445 16.2508 43.2379 16.2501C43.0314 16.2499 42.8269 16.2914 42.6368 16.3721C42.4467 16.4529 42.2749 16.5713 42.1317 16.7201C41.9843 16.8677 41.8675 17.0429 41.7882 17.2358C41.7088 17.4287 41.6683 17.6353 41.6692 17.8439C41.6696 18.2647 41.8357 18.6684 42.1317 18.9676C42.3817 19.2176 42.7067 19.3751 43.0567 19.4089H43.0392C44.3267 19.5751 45.0154 19.9801 45.8142 20.8089C46.6104 21.6201 47.0467 22.2839 47.1554 23.6651V23.6464C47.2142 23.9764 47.3642 24.2839 47.5904 24.5301C47.7342 24.6782 47.9062 24.796 48.0961 24.8767C48.2861 24.9574 48.4903 24.9994 48.6967 25.0001C48.9032 25.0004 49.1077 24.959 49.2978 24.8782C49.488 24.7974 49.6598 24.679 49.8029 24.5301C50.0935 24.227 50.2541 23.8224 50.2506 23.4026C50.2471 22.9827 50.081 22.5808 49.7854 22.2826ZM42.1329 22.2826C41.9854 22.4301 41.8685 22.6053 41.7891 22.7982C41.7097 22.9911 41.6694 23.1978 41.6704 23.4064C41.6704 23.7195 41.7621 24.0257 41.9343 24.2872C42.1065 24.5487 42.3515 24.754 42.6392 24.8776C42.9252 24.9999 43.2417 25.0321 43.5465 24.97C43.8513 24.9079 44.13 24.7545 44.3454 24.5301C44.4929 24.3826 44.6097 24.2074 44.689 24.0145C44.7684 23.8216 44.8088 23.6149 44.8079 23.4064C44.8081 23.0933 44.7165 22.7869 44.5443 22.5254C44.3721 22.2639 44.1269 22.0587 43.8392 21.9351C43.5531 21.8132 43.2367 21.7812 42.932 21.8433C42.6272 21.9053 42.3486 22.0586 42.1329 22.2826ZM37.7804 24.9901C37.9876 24.9932 38.1933 24.9544 38.3851 24.876C38.577 24.7976 38.751 24.6812 38.8967 24.5339C39.0445 24.3858 39.1616 24.21 39.2412 24.0165C39.3208 23.8229 39.3613 23.6156 39.3604 23.4064C39.3605 22.9844 39.1943 22.5793 38.8979 22.2789C38.7515 22.1324 38.5774 22.0167 38.3857 21.9383C38.1941 21.86 37.9887 21.8207 37.7817 21.8226C37.3715 21.8305 36.9813 22.0009 36.6967 22.2964C36.4089 22.5942 36.248 22.9922 36.248 23.4064C36.248 23.8205 36.4089 24.2185 36.6967 24.5164C36.9842 24.8126 37.3717 24.9814 37.7804 24.9901Z" fill="#694DD8"/>
</g>
</g>
<defs>
<clipPath id="clip0_7_229">
<rect width="60" height="60" fill="white"/>
</clipPath>
<clipPath id="clip1_7_229">
<rect width="60" height="60" fill="white"/>
</clipPath>
</defs>
</svg>
