<svg width="60" height="60" viewBox="0 0 60 60" fill="none" xmlns="http://www.w3.org/2000/svg">
<g clip-path="url(#clip0_7_240)">
<g clip-path="url(#clip1_7_240)">
<path fill-rule="evenodd" clip-rule="evenodd" d="M30 5.00012C21.7163 5.00012 15 11.7164 15 20.0001V22.5001C13.0109 22.5001 11.1032 23.2903 9.6967 24.6968C8.29018 26.1033 7.5 28.011 7.5 30.0001C7.5 31.9892 8.29018 33.8969 9.6967 35.3034C11.1032 36.7099 13.0109 37.5001 15 37.5001H17.5V20.0001C17.5 13.0964 23.0963 7.50012 30 7.50012C36.9037 7.50012 42.5 13.0964 42.5 20.0001V50.0001H40C40 49.3371 39.7366 48.7012 39.2678 48.2324C38.7989 47.7635 38.163 47.5001 37.5 47.5001H27.5C26.837 47.5001 26.2011 47.7635 25.7322 48.2324C25.2634 48.7012 25 49.3371 25 50.0001V52.5001C25 53.1632 25.2634 53.799 25.7322 54.2679C26.2011 54.7367 26.837 55.0001 27.5 55.0001H37.5C38.163 55.0001 38.7989 54.7367 39.2678 54.2679C39.7366 53.799 40 53.1632 40 52.5001H43.75C44.0815 52.5001 44.3995 52.3684 44.6339 52.134C44.8683 51.8996 45 51.5816 45 51.2501V37.5001C46.9891 37.5001 48.8968 36.7099 50.3033 35.3034C51.7098 33.8969 52.5 31.9892 52.5 30.0001C52.5 28.011 51.7098 26.1033 50.3033 24.6968C48.8968 23.2903 46.9891 22.5001 45 22.5001V20.0001C45 11.7164 38.2838 5.00012 30 5.00012ZM37.5 50.0001H27.5V52.5001H37.5V50.0001ZM15 25.0001C13.6739 25.0001 12.4021 25.5269 11.4645 26.4646C10.5268 27.4023 10 28.674 10 30.0001C10 31.3262 10.5268 32.598 11.4645 33.5357C12.4021 34.4733 13.6739 35.0001 15 35.0001V25.0001ZM50 30.0001C50 28.674 49.4732 27.4023 48.5355 26.4646C47.5979 25.5269 46.3261 25.0001 45 25.0001V35.0001C46.3261 35.0001 47.5979 34.4733 48.5355 33.5357C49.4732 32.598 50 31.3262 50 30.0001Z" fill="#694DD8"/>
<path d="M39.335 26.1176C38.9974 25.7819 38.5627 25.5611 38.0925 25.4864C36.2788 25.2489 35.3712 24.8289 34.1287 23.5389C32.885 22.2764 32.4712 21.4076 32.185 19.5651C32.1322 19.0461 31.9145 18.5576 31.5637 18.1714C31.3581 17.9602 31.1125 17.7921 30.8413 17.6768C30.57 17.5616 30.2785 17.5015 29.9837 17.5001C29.6887 17.4998 29.3967 17.559 29.1252 17.6744C28.8537 17.7897 28.6083 17.9588 28.4037 18.1714C28.1931 18.3821 28.0263 18.6324 27.9128 18.9078C27.7993 19.1833 27.7414 19.4785 27.7425 19.7764C27.7438 20.3777 27.9818 20.9542 28.405 21.3814C28.7583 21.7388 29.225 21.962 29.725 22.0126H29.7C31.5388 22.2501 32.5238 22.8289 33.6625 24.0126C34.8025 25.1714 35.425 26.1189 35.58 28.0926V28.0651C35.6638 28.5389 35.88 28.9776 36.2013 29.3289C36.407 29.5402 36.6528 29.7084 36.9243 29.8236C37.1958 29.9389 37.4876 29.9989 37.7825 30.0001C38.0775 30.0004 38.3695 29.9411 38.641 29.8258C38.9125 29.7104 39.1579 29.5414 39.3625 29.3289C39.775 28.8976 40.005 28.3189 40 27.7176C39.9956 27.1179 39.757 26.5437 39.335 26.1176ZM28.4037 26.1176C28.193 26.3285 28.026 26.579 27.9125 26.8546C27.7991 27.1303 27.7413 27.4257 27.7425 27.7239C27.7426 28.1712 27.8739 28.6086 28.1201 28.9821C28.3662 29.3555 28.7165 29.6486 29.1275 29.8251C29.5362 29.9994 29.9882 30.0453 30.4235 29.9567C30.8589 29.868 31.257 29.6491 31.565 29.3289C31.7754 29.1181 31.942 28.8677 32.0553 28.5923C32.1686 28.3168 32.2262 28.0217 32.225 27.7239C32.2254 27.2763 32.0944 26.8384 31.8482 26.4647C31.602 26.0909 31.2514 25.7977 30.84 25.6214C30.4313 25.4474 29.9793 25.4017 29.5441 25.4904C29.1088 25.579 28.7119 25.7977 28.4037 26.1176ZM22.1863 29.9864C22.4823 29.9906 22.7762 29.9349 23.0503 29.8228C23.3244 29.7107 23.573 29.5444 23.7812 29.3339C23.9926 29.1224 24.16 28.8711 24.2737 28.5945C24.3874 28.318 24.4452 28.0216 24.4438 27.7226C24.4431 27.1197 24.2051 26.5414 23.7812 26.1126C23.5721 25.9033 23.3234 25.7377 23.0495 25.6257C22.7756 25.5136 22.4821 25.4574 22.1863 25.4601C21.6006 25.4719 21.0436 25.7156 20.6375 26.1376C20.2288 26.5601 20 27.1301 20 27.7226C20 28.3164 20.2288 28.8851 20.6375 29.3089C21.0463 29.7314 21.6013 29.9751 22.1863 29.9864Z" fill="#694DD8"/>
</g>
</g>
<defs>
<clipPath id="clip0_7_240">
<rect width="60" height="60" fill="white"/>
</clipPath>
<clipPath id="clip1_7_240">
<rect width="60" height="60" fill="white"/>
</clipPath>
</defs>
</svg>
