<svg width="50" height="50" viewBox="0 0 50 50" fill="none" xmlns="http://www.w3.org/2000/svg">
<g clip-path="url(#clip0_65_239)">
<path d="M0 10C0 4.47715 4.47715 0 10 0H40C45.5228 0 50 4.47715 50 10V40C50 45.5228 45.5228 50 40 50H10C4.47715 50 0 45.5228 0 40V10Z" fill="#694DD8"/>
<circle cx="25" cy="55" r="20" fill="#D9D9D9"/>
<circle cx="25" cy="24" r="9" fill="#D9D9D9"/>
<circle cx="7.5" cy="49.5" r="11.5" fill="#D9D9D9"/>
<circle cx="7" cy="32" r="5" fill="#D9D9D9"/>
<circle cx="42.5" cy="49.5" r="11.5" fill="#D9D9D9"/>
<circle cx="42" cy="32" r="5" fill="#D9D9D9"/>
</g>
<defs>
<clipPath id="clip0_65_239">
<path d="M0 10C0 4.47715 4.47715 0 10 0H40C45.5228 0 50 4.47715 50 10V40C50 45.5228 45.5228 50 40 50H10C4.47715 50 0 45.5228 0 40V10Z" fill="white"/>
</clipPath>
</defs>
</svg>
