<svg width="40" height="40" viewBox="0 0 40 40" fill="none" xmlns="http://www.w3.org/2000/svg">
<path d="M25.417 9.63818C22.6604 9.63818 20.417 11.8782 20.417 14.6298C20.417 17.3815 22.6604 19.6215 25.417 19.6215C28.1737 19.6215 30.417 17.3815 30.417 14.6298C30.417 11.8782 28.1737 9.63818 25.417 9.63818ZM25.417 17.1215C24.0387 17.1215 22.917 16.0032 22.917 14.6298C22.917 13.9668 23.1804 13.3309 23.6493 12.8621C24.1181 12.3932 24.754 12.1298 25.417 12.1298C26.0801 12.1298 26.716 12.3932 27.1848 12.8621C27.6536 13.3309 27.917 13.9668 27.917 14.6298C27.9148 15.2914 27.6505 15.9252 27.1819 16.3922C26.7133 16.8593 26.0786 17.1215 25.417 17.1215ZM35.7104 5.11484C35.6538 4.8953 35.5387 4.69526 35.3772 4.53614C35.2157 4.37702 35.014 4.2648 34.7937 4.21151C34.387 4.11318 24.7604 1.86484 18.4787 8.14984C17.6935 8.93861 16.9502 9.76809 16.252 10.6348L12.767 11.3832C11.1443 11.6488 9.61742 12.3284 8.33399 13.3564C7.05056 14.3843 6.05393 15.7259 5.44036 17.2515L3.84036 21.2348C3.75535 21.4461 3.72967 21.6766 3.76609 21.9014C3.80251 22.1262 3.89965 22.3368 4.04702 22.5104C4.19439 22.684 4.38639 22.814 4.60228 22.8865C4.81817 22.959 5.04976 22.9711 5.27203 22.9215L10.882 21.6732C10.7937 21.9615 10.707 22.2332 10.617 22.5332C10.392 23.2765 10.5904 24.0765 11.1354 24.6198L15.3337 28.8215C15.5939 29.0805 15.9177 29.2666 16.2725 29.3611C16.6273 29.4556 17.0008 29.4551 17.3554 29.3598C17.7137 29.2648 18.032 29.1732 18.3737 29.0798L17.1137 34.7298C17.0631 34.9521 17.0744 35.184 17.1464 35.4003C17.2184 35.6166 17.3483 35.809 17.522 35.9566C17.6958 36.1043 17.9066 36.2014 18.1317 36.2375C18.3568 36.2736 18.5875 36.2474 18.7987 36.1615L22.777 34.5648C25.8787 33.3382 28.137 30.5365 28.6554 27.3165L29.382 23.9515C30.2187 23.2748 31.0654 22.5332 31.9604 21.6382C38.2487 15.3465 35.817 5.52984 35.7104 5.11484ZM7.04536 19.9648L7.76203 18.1782C8.66703 15.9015 10.7387 14.2432 13.2287 13.8382L14.1387 13.6432C13.727 14.3415 13.3637 15.0498 13.032 15.7698C13.0154 15.8048 12.997 15.8398 12.9837 15.8748C12.5325 16.8675 12.1281 17.8809 11.772 18.9115L7.04536 19.9632V19.9648ZM16.9354 26.8832L13.0804 23.0265C13.5887 21.3432 14.0604 19.8748 14.5887 18.5015L21.572 25.4732C20.202 25.9665 18.7037 26.4098 16.9354 26.8832ZM26.202 26.8498C26.0035 28.0469 25.4988 29.1724 24.7368 30.1168C23.9749 31.0612 22.9817 31.7926 21.8537 32.2398L20.072 32.9548L21.1154 28.2698C22.1778 27.9334 23.222 27.5417 24.2437 27.0965L24.307 27.0682C25.017 26.7532 25.7087 26.4065 26.3804 26.0215L26.202 26.8498ZM24.0687 24.4332L15.6637 16.0415C16.707 13.9932 18.087 12.0798 20.2487 9.91484C24.6037 5.55651 31.2187 6.14818 33.4454 6.49818C33.842 8.75151 34.5687 15.4898 30.1937 19.8682C28.027 22.0365 26.1587 23.4015 24.0687 24.4332Z" fill="#694DD8"/>
</svg>
