<svg width="19" height="19" viewBox="0 0 19 19" fill="none" xmlns="http://www.w3.org/2000/svg">
<mask id="path-1-inside-1_165_1935" fill="white">
<path fill-rule="evenodd" clip-rule="evenodd" d="M6.75222 2.68814C7.29331 2.32566 7.91435 2.09328 8.56293 2.01057C8.80916 1.97918 9.5823 2.02208 9.84292 2.08158C10.628 2.26084 11.234 2.59743 11.8138 3.17628C12.3792 3.74079 12.7157 4.34684 12.9093 5.1491C12.9672 5.38908 12.9748 5.54001 12.9874 6.70465L11.9888 6.75155C11.975 5.41172 11.9695 5.36037 11.7896 4.90299C11.6441 4.53316 11.4353 4.21514 11.1385 3.91138C10.7195 3.48261 10.2887 3.22991 9.7226 3.08095C9.49005 3.01976 8.80844 2.97611 8.62537 3.01072C7.85248 3.15671 7.38647 3.38831 6.90426 3.86601C6.49416 4.27224 6.24728 4.69707 6.08856 5.26961C6.02728 5.49073 6.02141 5.60191 6.01042 6.75155L5.99849 7.99443H9H12.0015H13.0014H13.3356C13.5349 7.99443 13.7438 8.01376 13.8533 8.0423C14.3917 8.18279 14.8065 8.59952 14.9475 9.14173C15.0175 9.41082 15.0175 16.5836 14.9475 16.8527C14.8065 17.3949 14.3917 17.8116 13.8533 17.9521C13.6925 17.9941 13.0925 18 9 18C4.90754 18 4.30754 17.9941 4.14673 17.9521C3.60826 17.8116 3.19351 17.3949 3.0525 16.8527C2.9825 16.5836 2.9825 9.41082 3.0525 9.14173C3.19351 8.59952 3.60826 8.18279 4.14673 8.0423C4.25618 8.01376 4.46507 7.99443 4.6644 7.99443H4.99861L5.01256 6.70465C5.02517 5.54001 5.03276 5.38908 5.09067 5.1491C5.21764 4.62287 5.41304 4.17162 5.69991 3.74207C5.90115 3.44078 6.45139 2.88969 6.75222 2.68814ZM13.9151 9.2259C13.8797 9.1784 13.8119 9.11055 13.7645 9.0751C13.6784 9.01072 13.6708 9.01062 9.03674 9.00387C5.21605 8.9983 4.37859 9.00453 4.30151 9.03895C4.18663 9.09029 4.08251 9.20045 4.03824 9.31751C4.01536 9.37802 4.00493 10.53 4.00493 13.0002C4.00493 16.4278 3.99525 16.7153 4.13244 16.8364C4.15432 16.8557 4.17993 16.8708 4.20992 16.8937L4.32786 16.9838H9H13.6721L13.7901 16.8937C13.8204 16.8705 13.8463 16.8554 13.8684 16.836C14.0061 16.715 13.9955 16.4253 13.9876 12.9527C13.9795 9.33099 13.9791 9.31179 13.9151 9.2259Z"/>
</mask>
<path fill-rule="evenodd" clip-rule="evenodd" d="M6.75222 2.68814C7.29331 2.32566 7.91435 2.09328 8.56293 2.01057C8.80916 1.97918 9.5823 2.02208 9.84292 2.08158C10.628 2.26084 11.234 2.59743 11.8138 3.17628C12.3792 3.74079 12.7157 4.34684 12.9093 5.1491C12.9672 5.38908 12.9748 5.54001 12.9874 6.70465L11.9888 6.75155C11.975 5.41172 11.9695 5.36037 11.7896 4.90299C11.6441 4.53316 11.4353 4.21514 11.1385 3.91138C10.7195 3.48261 10.2887 3.22991 9.7226 3.08095C9.49005 3.01976 8.80844 2.97611 8.62537 3.01072C7.85248 3.15671 7.38647 3.38831 6.90426 3.86601C6.49416 4.27224 6.24728 4.69707 6.08856 5.26961C6.02728 5.49073 6.02141 5.60191 6.01042 6.75155L5.99849 7.99443H9H12.0015H13.0014H13.3356C13.5349 7.99443 13.7438 8.01376 13.8533 8.0423C14.3917 8.18279 14.8065 8.59952 14.9475 9.14173C15.0175 9.41082 15.0175 16.5836 14.9475 16.8527C14.8065 17.3949 14.3917 17.8116 13.8533 17.9521C13.6925 17.9941 13.0925 18 9 18C4.90754 18 4.30754 17.9941 4.14673 17.9521C3.60826 17.8116 3.19351 17.3949 3.0525 16.8527C2.9825 16.5836 2.9825 9.41082 3.0525 9.14173C3.19351 8.59952 3.60826 8.18279 4.14673 8.0423C4.25618 8.01376 4.46507 7.99443 4.6644 7.99443H4.99861L5.01256 6.70465C5.02517 5.54001 5.03276 5.38908 5.09067 5.1491C5.21764 4.62287 5.41304 4.17162 5.69991 3.74207C5.90115 3.44078 6.45139 2.88969 6.75222 2.68814ZM13.9151 9.2259C13.8797 9.1784 13.8119 9.11055 13.7645 9.0751C13.6784 9.01072 13.6708 9.01062 9.03674 9.00387C5.21605 8.9983 4.37859 9.00453 4.30151 9.03895C4.18663 9.09029 4.08251 9.20045 4.03824 9.31751C4.01536 9.37802 4.00493 10.53 4.00493 13.0002C4.00493 16.4278 3.99525 16.7153 4.13244 16.8364C4.15432 16.8557 4.17993 16.8708 4.20992 16.8937L4.32786 16.9838H9H13.6721L13.7901 16.8937C13.8204 16.8705 13.8463 16.8554 13.8684 16.836C14.0061 16.715 13.9955 16.4253 13.9876 12.9527C13.9795 9.33099 13.9791 9.31179 13.9151 9.2259Z" fill="#694DD8"/>
<path d="M13.5014 7.98902L13.4874 6.69924L12.4875 6.71006L12.5014 7.99984L13.5014 7.98902ZM11.4888 6.75668L11.5015 7.99956L12.5015 7.98931L12.4887 6.74643L11.4888 6.75668ZM8.56293 2.01057L8.43646 1.0186L8.43644 1.01861L8.56293 2.01057ZM6.75222 2.68814L6.19565 1.85733L6.19561 1.85736L6.75222 2.68814ZM5.69991 3.74207L4.86834 3.18665L4.86831 3.18669L5.69991 3.74207ZM5.09067 5.1491L6.06277 5.38369L6.06278 5.38365L5.09067 5.1491ZM5.01256 6.70465L4.01262 6.69382L4.01262 6.69383L5.01256 6.70465ZM4.99861 7.99443V8.99443H5.98784L5.99855 8.00525L4.99861 7.99443ZM4.14673 8.0423L3.89436 7.07467L3.89428 7.07469L4.14673 8.0423ZM3.0525 9.14173L4.02029 9.39347L4.0203 9.39343L3.0525 9.14173ZM3.0525 16.8527L4.0203 16.601L4.02029 16.601L3.0525 16.8527ZM4.14673 17.9521L4.39921 16.9845L4.39917 16.9845L4.14673 17.9521ZM13.8533 17.9521L13.6008 16.9845L13.6008 16.9845L13.8533 17.9521ZM14.9475 16.8527L13.9797 16.601L13.9797 16.601L14.9475 16.8527ZM14.9475 9.14173L13.9797 9.39343L13.9797 9.39347L14.9475 9.14173ZM13.8533 8.0423L14.1057 7.07469L14.1056 7.07467L13.8533 8.0423ZM12.9874 6.70465L13.0344 7.70355L13.9978 7.6583L13.9874 6.69382L12.9874 6.70465ZM12.9093 5.1491L11.9372 5.38367L11.9372 5.38369L12.9093 5.1491ZM11.8138 3.17628L12.5203 2.46861L12.5203 2.4686L11.8138 3.17628ZM9.84292 2.08158L10.0655 1.10667L10.0655 1.10667L9.84292 2.08158ZM9.7226 3.08095L9.97707 2.11387L9.97706 2.11387L9.7226 3.08095ZM11.1385 3.91138L11.8538 3.21252L11.8537 3.21248L11.1385 3.91138ZM11.7896 4.90299L10.859 5.269L10.859 5.26906L11.7896 4.90299ZM11.9888 6.75155L10.9888 6.76181L10.9995 7.79912L12.0357 7.75045L11.9888 6.75155ZM5.99849 7.99443L4.99854 7.98484L4.98885 8.99443H5.99849V7.99443ZM6.01042 6.75155L7.01037 6.76115V6.76111L6.01042 6.75155ZM6.08856 5.26961L5.1249 5.00246L5.12489 5.00253L6.08856 5.26961ZM6.90426 3.86601L7.608 4.57646L7.60803 4.57643L6.90426 3.86601ZM8.62537 3.01072L8.81097 3.99335L8.81115 3.99332L8.62537 3.01072ZM13.7645 9.0751L13.1656 9.87587L13.1657 9.87598L13.7645 9.0751ZM13.9151 9.2259L13.1133 9.82353L13.1134 9.82358L13.9151 9.2259ZM13.9876 12.9527L12.9876 12.9549V12.9549L13.9876 12.9527ZM13.7901 16.8937L13.183 16.099L13.183 16.0991L13.7901 16.8937ZM13.6721 16.9838V17.9838H14.0104L14.2792 17.7784L13.6721 16.9838ZM4.32786 16.9838L3.72076 17.7784L3.98957 17.9838H4.32786V16.9838ZM4.20992 16.8937L4.81702 16.0991L4.81695 16.099L4.20992 16.8937ZM4.03824 9.31751L4.97357 9.67128L4.9736 9.67122L4.03824 9.31751ZM4.30151 9.03895L3.89372 8.12588L3.89351 8.12597L4.30151 9.03895ZM9.03674 9.00387L9.0382 8.00387H9.0382L9.03674 9.00387ZM4.13244 16.8364L4.79417 16.0867L4.79417 16.0867L4.13244 16.8364ZM13.8684 16.836L13.2082 16.085L13.2082 16.085L13.8684 16.836ZM8.43644 1.01861C7.63459 1.12085 6.8662 1.40813 6.19565 1.85733L7.30878 3.51894C7.72042 3.24318 8.19412 3.0657 8.68942 3.00254L8.43644 1.01861ZM6.19561 1.85736C5.96302 2.0132 5.69545 2.25643 5.48107 2.47114C5.26666 2.68587 5.02386 2.95381 4.86834 3.18665L6.53148 4.29749C6.57721 4.22903 6.71014 4.07078 6.89637 3.88426C7.08263 3.69772 7.24059 3.56463 7.30882 3.51891L6.19561 1.85736ZM4.86831 3.18669C4.51301 3.71871 4.2718 4.27948 4.11857 4.91455L6.06278 5.38365C6.16348 4.96626 6.31307 4.62453 6.53151 4.29745L4.86831 3.18669ZM4.11858 4.91451C4.02734 5.2926 4.02463 5.58454 4.01262 6.69382L6.0125 6.71548C6.02571 5.49547 6.03818 5.48555 6.06277 5.38369L4.11858 4.91451ZM4.01262 6.69383L3.99866 7.98361L5.99855 8.00525L6.0125 6.71547L4.01262 6.69383ZM4.99861 6.99443H4.6644V8.99443H4.99861V6.99443ZM4.6644 6.99443C4.43396 6.99443 4.12584 7.0143 3.89436 7.07467L4.3991 9.00993C4.38225 9.01433 4.37964 9.01393 4.39696 9.01128C4.41193 9.00899 4.43445 9.00614 4.46395 9.00341C4.52366 8.99789 4.59498 8.99443 4.6644 8.99443V6.99443ZM3.89428 7.07469C3.00232 7.3074 2.31611 8.00021 2.08469 8.89002L4.0203 9.39343C4.07091 9.19883 4.2142 9.05817 4.39917 9.00991L3.89428 7.07469ZM2.0847 8.88999C2.05996 8.98512 2.05236 9.07402 2.05067 9.09169C2.04689 9.13121 2.04406 9.17321 2.0418 9.213C2.03722 9.29371 2.03335 9.39512 2.02996 9.50979C2.02315 9.74073 2.0176 10.0507 2.0132 10.41C2.00438 11.1299 2 12.0645 2 12.9972C2 13.9299 2.00438 14.8645 2.0132 15.5844C2.0176 15.9437 2.02315 16.2537 2.02996 16.4846C2.03335 16.5993 2.03722 16.7007 2.0418 16.7814C2.04406 16.8212 2.04689 16.8632 2.05067 16.9027C2.05236 16.9204 2.05996 17.0093 2.0847 17.1044L4.02029 16.601C4.04066 16.6793 4.04402 16.7379 4.04161 16.7126C4.04128 16.7092 4.04015 16.6956 4.03858 16.668C4.03551 16.614 4.03227 16.5334 4.02909 16.4257C4.02278 16.2118 4.0174 15.9151 4.01305 15.5599C4.00437 14.8509 4 13.925 4 12.9972C4 12.0694 4.00437 11.1435 4.01305 10.4345C4.0174 10.0793 4.02278 9.78265 4.02909 9.56877C4.03227 9.46103 4.03551 9.38048 4.03858 9.32643C4.04015 9.29884 4.04128 9.28525 4.04161 9.28183C4.04402 9.25655 4.04066 9.31516 4.02029 9.39347L2.0847 8.88999ZM2.08469 17.1044C2.31611 17.9942 3.00232 18.687 3.89428 18.9197L4.39917 16.9845C4.2142 16.9363 4.07091 16.7956 4.0203 16.601L2.08469 17.1044ZM3.89425 18.9197C4.04861 18.96 4.21367 18.97 4.35224 18.9763C4.51402 18.9836 4.74713 18.9884 5.08913 18.9918C5.77687 18.9985 6.95575 19 9 19V17C6.95179 17 5.78443 16.9985 5.10886 16.9918C4.7692 16.9885 4.56638 16.9839 4.44254 16.9783C4.29549 16.9717 4.32525 16.9652 4.39921 16.9845L3.89425 18.9197ZM9 19C11.0442 19 12.2231 18.9985 12.9109 18.9918C13.2529 18.9884 13.486 18.9836 13.6478 18.9763C13.7863 18.97 13.9514 18.96 14.1058 18.9197L13.6008 16.9845C13.6748 16.9652 13.7045 16.9717 13.5575 16.9783C13.4336 16.9839 13.2308 16.9885 12.8911 16.9918C12.2156 16.9985 11.0482 17 9 17V19ZM14.1057 18.9197C14.9977 18.687 15.6839 17.9942 15.9153 17.1044L13.9797 16.601C13.9291 16.7956 13.7858 16.9363 13.6008 16.9845L14.1057 18.9197ZM15.9153 17.1044C15.94 17.0093 15.9476 16.9204 15.9493 16.9027C15.9531 16.8632 15.9559 16.8212 15.9582 16.7814C15.9628 16.7007 15.9667 16.5993 15.97 16.4846C15.9769 16.2537 15.9824 15.9437 15.9868 15.5844C15.9956 14.8645 16 13.9299 16 12.9972C16 12.0645 15.9956 11.1299 15.9868 10.41C15.9824 10.0507 15.9769 9.74073 15.97 9.50979C15.9667 9.39512 15.9628 9.29371 15.9582 9.213C15.9559 9.17321 15.9531 9.13121 15.9493 9.09169C15.9476 9.07402 15.94 8.98512 15.9153 8.88999L13.9797 9.39347C13.9593 9.31516 13.956 9.25655 13.9584 9.28183C13.9587 9.28525 13.9599 9.29884 13.9614 9.32643C13.9645 9.38048 13.9677 9.46103 13.9709 9.56877C13.9772 9.78265 13.9826 10.0793 13.987 10.4345C13.9956 11.1435 14 12.0694 14 12.9972C14 13.925 13.9956 14.8509 13.987 15.5599C13.9826 15.9151 13.9772 16.2118 13.9709 16.4257C13.9677 16.5334 13.9645 16.614 13.9614 16.668C13.9599 16.6956 13.9587 16.7092 13.9584 16.7126C13.956 16.7379 13.9593 16.6793 13.9797 16.601L15.9153 17.1044ZM15.9153 8.89002C15.6839 8.00021 14.9977 7.3074 14.1057 7.07469L13.6008 9.00991C13.7858 9.05817 13.9291 9.19883 13.9797 9.39343L15.9153 8.89002ZM14.1056 7.07467C13.8742 7.0143 13.566 6.99443 13.3356 6.99443V8.99443C13.405 8.99443 13.4763 8.99789 13.5361 9.00341C13.5655 9.00614 13.5881 9.00899 13.603 9.01128C13.6204 9.01393 13.6178 9.01433 13.6009 9.00993L14.1056 7.07467ZM13.3356 6.99443H13.0014V8.99443H13.3356V6.99443ZM13.9874 6.69382C13.9754 5.58454 13.9727 5.2926 13.8814 4.91451L11.9372 5.38369C11.9618 5.48555 11.9743 5.49547 11.9875 6.71548L13.9874 6.69382ZM13.8814 4.91453C13.6461 3.9393 13.2206 3.16775 12.5203 2.46861L11.1072 3.88396C11.5378 4.31382 11.7854 4.75439 11.9372 5.38367L13.8814 4.91453ZM12.5203 2.4686C11.8099 1.75941 11.0371 1.32853 10.0655 1.10667L9.62031 3.05649C10.2188 3.19315 10.658 3.43545 11.1072 3.88397L12.5203 2.4686ZM10.0655 1.10667C9.844 1.0561 9.50942 1.02776 9.25292 1.01353C9.00176 0.999593 8.66174 0.989881 8.43646 1.0186L8.6894 3.00254C8.68219 3.00346 8.72181 2.99955 8.82533 3.00005C8.91635 3.00049 9.02701 3.00407 9.14213 3.01046C9.25715 3.01684 9.36918 3.0256 9.46286 3.03547C9.5096 3.04039 9.5484 3.04524 9.57856 3.04964C9.61099 3.05439 9.62316 3.05714 9.62033 3.0565L10.0655 1.10667ZM9.46813 4.04803C9.85478 4.14977 10.1276 4.30764 10.4233 4.61029L11.8537 3.21248C11.3115 2.65758 10.7226 2.31004 9.97707 2.11387L9.46813 4.04803ZM10.4233 4.61024C10.6333 4.82521 10.7657 5.03177 10.859 5.269L12.7202 4.53699C12.5226 4.03456 12.2373 3.60508 11.8538 3.21252L10.4233 4.61024ZM10.859 5.26906C10.9391 5.4727 10.9462 5.5006 10.9573 5.60348C10.9763 5.78007 10.9817 6.06627 10.9888 6.76181L12.9887 6.7413C12.9821 6.097 12.9779 5.68761 12.9457 5.38923C12.9057 5.01713 12.82 4.79067 12.7202 4.53693L10.859 5.26906ZM12.0015 6.99443H9V8.99443H12.0015V6.99443ZM9 6.99443H5.99849V8.99443H9V6.99443ZM6.99845 8.00403L7.01037 6.76115L5.01047 6.74196L4.99854 7.98484L6.99845 8.00403ZM7.01037 6.76111C7.01596 6.17653 7.02016 5.88737 7.02924 5.71505C7.03634 5.5805 7.04301 5.56999 7.05224 5.53668L5.12489 5.00253C5.01947 5.38289 5.02079 5.66154 5.01047 6.742L7.01037 6.76111ZM7.05222 5.53675C7.16582 5.12695 7.32542 4.85638 7.608 4.57646L6.20051 3.15556C5.6629 3.6881 5.32874 4.26719 5.1249 5.00246L7.05222 5.53675ZM7.60803 4.57643C7.92708 4.26037 8.20214 4.10835 8.81097 3.99335L8.43977 2.0281C7.50281 2.20508 6.84586 2.51625 6.20048 3.15559L7.60803 4.57643ZM8.81115 3.99332C8.77087 4.00093 8.75131 4.00083 8.77007 3.99981C8.78254 3.99912 8.80537 3.99842 8.8394 3.99849C8.90733 3.99862 8.99571 4.00173 9.09154 4.00787C9.18693 4.01397 9.28021 4.02247 9.35748 4.03191C9.44556 4.04267 9.47739 4.05047 9.46813 4.04803L9.97706 2.11387C9.75805 2.05624 9.44344 2.0263 9.21931 2.01195C9.09279 2.00385 8.96191 1.99872 8.84328 1.99849C8.74793 1.99831 8.58713 2.00024 8.43959 2.02813L8.81115 3.99332ZM13.1657 9.87598C13.1487 9.86325 13.1392 9.85482 13.138 9.85368C13.1357 9.85165 13.1355 9.85141 13.1367 9.85254C13.1378 9.85368 13.1376 9.85353 13.1355 9.85125C13.1344 9.84998 13.126 9.84055 13.1133 9.82353L14.7169 8.62827C14.624 8.50364 14.4879 8.36733 14.3633 8.27421L13.1657 9.87598ZM13.1134 9.82358C13.1172 9.82869 13.0964 9.80167 13.0739 9.76491C13.0479 9.72245 13.024 9.67538 13.0043 9.62472C12.9687 9.53328 12.9608 9.46544 12.9606 9.46414C12.9601 9.45967 12.9624 9.47694 12.9652 9.53555C12.9678 9.59112 12.9703 9.67004 12.9725 9.78283C12.9814 10.2399 12.9836 11.1377 12.9876 12.9549L14.9876 12.9504C14.9836 11.146 14.9815 10.2233 14.9721 9.7439C14.9677 9.5175 14.9613 9.33974 14.9439 9.20615C14.9346 9.13439 14.9161 9.02265 14.8682 8.89958C14.8113 8.75342 14.7372 8.65552 14.7168 8.62822L13.1134 9.82358ZM13.183 16.0991L13.065 16.1892L14.2792 17.7784L14.3972 17.6883L13.183 16.0991ZM13.6721 15.9838H9V17.9838H13.6721V15.9838ZM9 15.9838H4.32786V17.9838H9V15.9838ZM4.93497 16.1892L4.81702 16.0991L3.60281 17.6883L3.72076 17.7784L4.93497 16.1892ZM5.00493 13.0002C5.00493 11.7656 5.00754 10.8638 5.01296 10.2643C5.01568 9.96366 5.01907 9.74401 5.02302 9.59812C5.02502 9.52406 5.02697 9.4768 5.02852 9.45048C5.02935 9.43627 5.02952 9.43793 5.02833 9.44893C5.02778 9.45405 5.02587 9.47136 5.02175 9.49538C5.0202 9.50443 5.00826 9.57958 4.97357 9.67128L3.10291 8.96375C3.06679 9.05923 3.05345 9.14029 3.05051 9.1574C3.04501 9.18948 3.04175 9.21699 3.03986 9.23448C3.03601 9.2702 3.0336 9.30523 3.03196 9.33313C3.02856 9.39104 3.02594 9.46301 3.02375 9.54404C3.0193 9.70835 3.01579 9.94244 3.01305 10.2462C3.00753 10.8553 3.00493 11.7646 3.00493 13.0002H5.00493ZM4.9736 9.67122C4.94283 9.75257 4.90249 9.80626 4.87016 9.84047C4.83774 9.87478 4.78715 9.91724 4.70951 9.95194L3.89351 8.12597C3.53688 8.28534 3.242 8.59593 3.10289 8.9638L4.9736 9.67122ZM4.70931 9.95203C4.59444 10.0033 4.49944 10.0176 4.49421 10.0185C4.46968 10.0227 4.45596 10.0237 4.46154 10.0232C4.47166 10.0222 4.50396 10.02 4.57241 10.0175C4.7062 10.0127 4.92533 10.009 5.27268 10.0064C5.96396 10.0013 7.12377 10.0011 9.03529 10.0039L9.0382 8.00387C7.12902 8.00109 5.95975 8.00124 5.25786 8.00644C4.90863 8.00903 4.66515 8.01292 4.50084 8.01881C4.42024 8.02169 4.34462 8.02551 4.27926 8.03149C4.2471 8.03444 4.20376 8.0391 4.15662 8.04717C4.12879 8.05194 4.01822 8.07027 3.89372 8.12588L4.70931 9.95203ZM9.03529 10.0039C11.3575 10.0073 12.508 10.009 13.0911 10.0178C13.395 10.0223 13.5025 10.0286 13.5342 10.032C13.5501 10.0337 13.4853 10.0291 13.3938 9.9968C13.3399 9.97775 13.2862 9.95266 13.2348 9.92193C13.1906 9.89552 13.1574 9.86977 13.1656 9.87587L14.3635 8.27432C14.3322 8.2509 14.2242 8.16896 14.0596 8.11086C13.9332 8.06623 13.8175 8.05096 13.7481 8.04349C13.6093 8.02857 13.4091 8.02232 13.1212 8.01799C12.5204 8.00894 11.35 8.00724 9.0382 8.00387L9.03529 10.0039ZM12.0357 7.75045L13.0344 7.70355L12.9405 5.70575L11.9419 5.75266L12.0357 7.75045ZM12.0015 8.99443H13.0014V6.99443H12.0015V8.99443ZM3.00493 13.0002C3.00493 14.7012 3.00238 15.6526 3.01765 16.1868C3.02495 16.4425 3.03725 16.6691 3.07195 16.8532C3.11461 17.0795 3.21203 17.3578 3.47072 17.5862L4.79417 16.0867C4.98425 16.2544 5.03144 16.4514 5.03733 16.4827C5.03791 16.4857 5.03386 16.4641 5.02909 16.3995C5.0245 16.3374 5.02029 16.2508 5.01683 16.1297C5.00264 15.633 5.00493 14.7269 5.00493 13.0002H3.00493ZM3.47072 17.5862C3.52658 17.6355 3.57795 17.6712 3.59357 17.6822C3.6185 17.6997 3.6086 17.6927 3.60288 17.6884L4.81695 16.099C4.79701 16.0838 4.77957 16.0712 4.76676 16.0621C4.76046 16.0577 4.75483 16.0537 4.75091 16.051C4.74608 16.0476 4.74485 16.0467 4.74271 16.0452C4.74118 16.0442 4.74157 16.0444 4.74293 16.0454C4.74436 16.0464 4.74755 16.0488 4.75189 16.052C4.76049 16.0585 4.77565 16.0703 4.79417 16.0867L3.47072 17.5862ZM14.3971 17.6884C14.3904 17.6935 14.3802 17.7005 14.4046 17.6835C14.4198 17.6729 14.472 17.6369 14.5287 17.5871L13.2082 16.085C13.2271 16.0684 13.2425 16.0564 13.2512 16.0499C13.2555 16.0467 13.2587 16.0444 13.2601 16.0434C13.2614 16.0425 13.2617 16.0422 13.26 16.0434C13.2592 16.044 13.2582 16.0447 13.2567 16.0457C13.2555 16.0466 13.2533 16.0481 13.2513 16.0495C13.2472 16.0523 13.2414 16.0564 13.2348 16.061C13.2215 16.0704 13.2036 16.0834 13.183 16.099L14.3971 17.6884ZM14.5287 17.5871C14.7905 17.3569 14.8875 17.0754 14.9295 16.8488C14.9637 16.6639 14.9755 16.4358 14.9822 16.1772C14.9963 15.637 14.9915 14.6739 14.9876 12.9504L12.9876 12.9549C12.9916 14.7041 12.996 15.6221 12.9829 16.1252C12.9797 16.2479 12.9757 16.3357 12.9712 16.3989C12.9665 16.4646 12.9625 16.4869 12.963 16.4843C12.9685 16.4546 13.0152 16.2547 13.2082 16.085L14.5287 17.5871Z" fill="#694DD8" mask="url(#path-1-inside-1_165_1935)"/>
</svg>
