<svg width="10" height="13" viewBox="0 0 10 13" fill="none" xmlns="http://www.w3.org/2000/svg">
<g clip-path="url(#clip0_402_1796)">
<path fill-rule="evenodd" clip-rule="evenodd" d="M8.571 5.35301H9.005C9.555 5.35301 10 5.80801 10 6.35301V12C10 12.552 9.544 13 9.005 13H0.995C0.445 13 0 12.545 0 12V6.35301C0 5.80101 0.456 5.35301 0.995 5.35301H1.429V3.57501C1.429 3.10599 1.52138 2.64157 1.70086 2.20826C1.88035 1.77494 2.14342 1.38122 2.47507 1.04958C2.80671 0.717933 3.20043 0.454858 3.63375 0.275374C4.06706 0.0958891 4.53148 0.00350952 5.0005 0.00350952C5.46952 0.00350952 5.93394 0.0958891 6.36725 0.275374C6.80057 0.454858 7.19429 0.717933 7.52593 1.04958C7.85758 1.38122 8.12065 1.77494 8.30014 2.20826C8.47962 2.64157 8.572 3.10599 8.572 3.57501L8.571 5.35301ZM2.857 5.35301H7.143V3.67401C7.14353 3.39239 7.08846 3.11344 6.98097 2.85314C6.87347 2.59285 6.71565 2.35633 6.51657 2.15715C6.31748 1.95797 6.08103 1.80004 5.82079 1.69243C5.56054 1.58481 5.28162 1.52961 5 1.53001C3.808 1.53001 2.857 2.49001 2.857 3.67501V5.35301Z" fill="#2A2A2D"/>
</g>
<defs>
<clipPath id="clip0_402_1796">
<rect width="10" height="13" fill="white"/>
</clipPath>
</defs>
</svg>
