<svg width="16" height="19" viewBox="0 0 16 19" fill="none" xmlns="http://www.w3.org/2000/svg">
<g clip-path="url(#clip0_395_1129)">
<path fill-rule="evenodd" clip-rule="evenodd" d="M2.25698e-06 1.997C2.25698e-06 0.894 0.895002 0 1.994 0H14.006C15.107 0 16 0.89 16 1.997V17.003C16 17.5321 15.79 18.0396 15.4162 18.414C15.0423 18.7885 14.5351 18.9992 14.006 19H1.994C1.73189 19 1.47236 18.9483 1.23024 18.8479C0.988119 18.7475 0.768169 18.6004 0.58297 18.4149C0.39777 18.2294 0.250956 18.0093 0.150925 17.767C0.0508932 17.5247 -0.000392089 17.2651 2.25698e-06 17.003V1.997ZM6.381 12.731L7.65 14L12.15 9.5L7.65 5L6.381 6.269L8.703 8.6H2.25698e-06V10.4H8.703L6.381 12.731Z" fill="white"/>
</g>
<defs>
<clipPath id="clip0_395_1129">
<rect width="16" height="19" fill="white"/>
</clipPath>
</defs>
</svg>
