<svg width="25" height="25" viewBox="0 0 25 25" fill="none" xmlns="http://www.w3.org/2000/svg">
<path d="M4.48455 9.56563C2.83623 9.56563 1.5 10.9019 1.5 12.5502C1.5 13.6372 2.08112 14.5885 2.94964 15.1103C3.376 15.3665 3.71709 16.1487 3.71709 17.2402C3.71709 17.2544 3.717 17.2687 3.71683 17.2828C3.717 17.297 3.71709 17.3112 3.71709 17.3255C3.71709 18.2397 3.3871 18.9342 3.12018 19.2867C3.06842 19.3551 2.94964 19.4553 2.94964 19.4553C2.94964 19.4553 2.85964 19.511 2.81586 19.5406C2.02196 20.077 1.5 20.9853 1.5 22.0155C1.5 23.6638 2.83623 25 4.48455 25C6.13287 25 7.46909 23.6638 7.46909 22.0155C7.46909 20.9284 6.88797 19.9772 6.01946 19.4553C5.63496 19.2243 5.252 18.4169 5.252 17.3255C5.252 17.3112 5.25209 17.297 5.25226 17.2828C5.25209 17.2687 5.252 17.2544 5.252 17.2402C5.252 16.326 5.582 15.6314 5.84891 15.2789C5.90067 15.2105 6.01946 15.1084 6.01946 15.1084C6.01946 15.1084 6.10946 15.0546 6.15323 15.025C6.94713 14.4887 7.46909 13.5804 7.46909 12.5502C7.46909 10.9019 6.13287 9.56563 4.48455 9.56563Z" fill="white"/>
<path d="M23.3331 11.0262C22.5089 9.59872 20.6836 9.10963 19.2561 9.93379C18.3148 10.4773 17.7815 11.4562 17.7638 12.4693C17.7551 12.9666 17.2483 13.6531 16.303 14.1988C16.2907 14.206 16.2783 14.213 16.266 14.2199C16.2538 14.2272 16.2415 14.2344 16.2292 14.2415C15.4374 14.6986 14.671 14.7601 14.2322 14.7052C14.1471 14.6945 14.0009 14.6418 14.0009 14.6418C14.0009 14.6418 13.9077 14.5917 13.8602 14.5686C12.9987 14.1492 11.9511 14.1513 11.059 14.6664C9.63148 15.4906 9.14239 17.3159 9.96655 18.7434C10.7907 20.1709 12.616 20.66 14.0435 19.8358C14.9849 19.2923 15.5182 18.3134 15.5358 17.3003C15.5437 16.8518 16.0514 16.1165 16.9966 15.5708C17.009 15.5636 17.0213 15.5566 17.0337 15.5497C17.0459 15.5424 17.0581 15.5352 17.0705 15.5281C17.8622 15.071 18.6287 15.0095 19.0674 15.0644C19.1525 15.0751 19.3004 15.1268 19.3004 15.1268C19.3004 15.1268 19.392 15.1779 19.4395 15.201C20.3009 15.6204 21.3485 15.6183 22.2407 15.1032C23.6682 14.279 24.1573 12.4537 23.3331 11.0262Z" fill="white"/>
<path d="M15.3638 9.20996C16.188 7.78247 15.6989 5.95715 14.2714 5.13299C13.33 4.58948 12.2156 4.61711 11.3294 5.10835C10.8944 5.3495 10.0465 5.25379 9.10119 4.70805C9.08884 4.70091 9.07657 4.69373 9.0644 4.6865C9.05205 4.67957 9.0397 4.67254 9.02734 4.66541C8.23561 4.2083 7.79914 3.57526 7.62729 3.16783C7.59396 3.08883 7.56655 2.93584 7.56655 2.93584C7.56655 2.93584 7.56329 2.83004 7.55957 2.77733C7.49203 1.82163 6.96641 0.915451 6.07423 0.400352C4.64674 -0.423808 2.82142 0.0652852 1.99726 1.49277C1.1731 2.92026 1.6622 4.74558 3.08968 5.56974C4.03106 6.11324 5.14546 6.08562 6.03164 5.59438C6.42395 5.37691 7.31463 5.44893 8.25989 5.99468C8.27224 6.00181 8.28451 6.00899 8.29668 6.01622C8.30903 6.02315 8.32138 6.03018 8.33374 6.03732C9.12547 6.49442 9.56194 7.12747 9.7338 7.53489C9.76712 7.6139 9.79622 7.76786 9.79622 7.76786C9.79622 7.76786 9.79779 7.87269 9.80151 7.92539C9.86905 8.8811 10.3947 9.78728 11.2869 10.3024C12.7143 11.1265 14.5397 10.6374 15.3638 9.20996Z" fill="white"/>
</svg>
