<svg width="24" height="24" viewBox="0 0 24 24" fill="none" xmlns="http://www.w3.org/2000/svg">
<path fill-rule="evenodd" clip-rule="evenodd" d="M16 15.8284V11C16 8.62927 14.7925 7.04306 13.0374 6.62576L12.0018 6.37954L10.9611 6.62612C9.19875 7.04368 8 8.61748 8 11V15.8284L7.82843 16H16.1716L16 15.8284ZM20 17V18H4V17L6 15V11C6 7.92 7.63 5.36 10.5 4.68L11 3H13L13.5 4.68C16.36 5.36 18 7.93 18 11V15L20 17ZM14 19H10C10 19.3636 10.0972 19.7054 10.2675 20C10.6124 20.5967 11.2569 21 12 21C12.7364 21 13.3831 20.5967 13.7303 20C13.9017 19.7054 14 19.3636 14 19Z" fill="#2A2A2D"/>
</svg>
