<svg width="60" height="60" viewBox="0 0 60 60" fill="none" xmlns="http://www.w3.org/2000/svg">
<g clip-path="url(#clip0_7_201)">
<path fill-rule="evenodd" clip-rule="evenodd" d="M33.02 20.0002H31.25V30.0002H50V20.0002H33.02ZM26.98 20.0002H28.75V30.0002H10V20.0002H26.98ZM48.0762 17.5002H50C50.663 17.5002 51.2989 17.7636 51.7678 18.2324C52.2366 18.7012 52.5 19.3371 52.5 20.0002V30.0002C52.5 30.6632 52.2366 31.2991 51.7678 31.7679C51.2989 32.2368 50.663 32.5002 50 32.5002V51.2502C50 51.5817 49.8683 51.8996 49.6339 52.134C49.3995 52.3685 49.0815 52.5002 48.75 52.5002H11.25C10.9185 52.5002 10.6005 52.3685 10.3661 52.134C10.1317 51.8996 10 51.5817 10 51.2502V32.5002C9.33696 32.5002 8.70107 32.2368 8.23223 31.7679C7.76339 31.2991 7.5 30.6632 7.5 30.0002V20.0002C7.5 19.3371 7.76339 18.7012 8.23223 18.2324C8.70107 17.7636 9.33696 17.5002 10 17.5002H11.9237C11.055 15.5252 10.9612 12.8339 12.03 10.8502C13.755 7.64641 17.5775 6.55016 20.5675 8.39891C22.58 9.64516 26.1637 14.4789 28.2862 17.4989H31.7138C33.8375 14.4789 37.4188 9.64516 39.4338 8.39891C42.4212 6.54891 46.245 7.64641 47.9712 10.8502C49.0387 12.8339 48.9462 15.5252 48.0762 17.5002ZM45.0987 17.5002H34.7837C35.0462 17.1377 35.3213 16.7627 35.6025 16.3852C36.575 15.0752 37.6175 13.7402 38.5825 12.6352C39.605 11.4627 40.3537 10.7689 40.7487 10.5252C42.4387 9.47891 44.6838 10.0202 45.77 12.0364C46.2713 12.9664 46.3988 14.3614 46.065 15.6777C45.795 16.7452 45.3662 17.2777 45.0987 17.4989V17.5002ZM25.2163 17.5002C24.9538 17.1377 24.6787 16.7627 24.3987 16.3852C23.4237 15.0752 22.3825 13.7402 21.4188 12.6352C20.395 11.4627 19.6462 10.7689 19.2513 10.5252C17.5612 9.47891 15.3162 10.0202 14.23 12.0364C13.73 12.9664 13.6012 14.3614 13.935 15.6777C14.205 16.7452 14.6337 17.2777 14.9012 17.4989H25.2163V17.5002ZM31.25 32.5002H47.5V50.0002H31.25V32.5002ZM28.75 32.5002H12.5V50.0002H28.75V32.5002Z" fill="#694DD8"/>
</g>
<defs>
<clipPath id="clip0_7_201">
<rect width="60" height="60" fill="white"/>
</clipPath>
</defs>
</svg>
