<svg width="17" height="17" viewBox="0 0 17 17" fill="none" xmlns="http://www.w3.org/2000/svg">
<path fill-rule="evenodd" clip-rule="evenodd" d="M14.1667 2.83342H12.0417V2.12509C12.0417 1.93723 11.967 1.75706 11.8342 1.62422C11.7014 1.49139 11.5212 1.41676 11.3333 1.41676H5.66667C5.4788 1.41676 5.29864 1.49139 5.1658 1.62422C5.03296 1.75706 4.95833 1.93723 4.95833 2.12509V2.83342H2.83333C2.64547 2.83342 2.4653 2.90805 2.33247 3.04089C2.19963 3.17373 2.125 3.3539 2.125 3.54176V6.37509C2.125 7.12654 2.42351 7.84721 2.95486 8.37856C3.48622 8.90991 4.20689 9.20842 4.95833 9.20842H5.0575C5.21414 9.81509 5.56745 10.3527 6.06217 10.7372C6.55689 11.1217 7.1651 11.3314 7.79167 11.3334V14.1668H6.02083C5.9269 14.1668 5.83682 14.2041 5.7704 14.2705C5.70398 14.3369 5.66667 14.427 5.66667 14.5209V15.2293C5.66667 15.3232 5.70398 15.4133 5.7704 15.4797C5.83682 15.5461 5.9269 15.5834 6.02083 15.5834H10.9792C11.0731 15.5834 11.1632 15.5461 11.2296 15.4797C11.296 15.4133 11.3333 15.3232 11.3333 15.2293V14.5209C11.3333 14.427 11.296 14.3369 11.2296 14.2705C11.1632 14.2041 11.0731 14.1668 10.9792 14.1668H9.20833V11.3334C9.83489 11.3314 10.4431 11.1217 10.9378 10.7372C11.4325 10.3527 11.7859 9.81509 11.9425 9.20842H12.0417C12.7931 9.20842 13.5138 8.90991 14.0451 8.37856C14.5765 7.84721 14.875 7.12654 14.875 6.37509V3.54176C14.875 3.3539 14.8004 3.17373 14.6675 3.04089C14.5347 2.90805 14.3545 2.83342 14.1667 2.83342ZM3.54167 6.37509V4.25009H4.95833V7.79176C4.58261 7.79176 4.22228 7.6425 3.9566 7.37683C3.69092 7.11115 3.54167 6.75081 3.54167 6.37509ZM13.4583 6.37509C13.4583 6.75081 13.3091 7.11115 13.0434 7.37683C12.7777 7.6425 12.4174 7.79176 12.0417 7.79176V4.25009H13.4583V6.37509Z" fill="#8C612D"/>
</svg>
