<svg width="17" height="17" viewBox="0 0 17 17" fill="none" xmlns="http://www.w3.org/2000/svg">
<path fill-rule="evenodd" clip-rule="evenodd" d="M14.1667 2.83338H12.0417V2.12504C12.0417 1.93718 11.967 1.75701 11.8342 1.62418C11.7014 1.49134 11.5212 1.41671 11.3333 1.41671H5.66667C5.4788 1.41671 5.29864 1.49134 5.1658 1.62418C5.03296 1.75701 4.95833 1.93718 4.95833 2.12504V2.83338H2.83333C2.64547 2.83338 2.4653 2.908 2.33247 3.04084C2.19963 3.17368 2.125 3.35385 2.125 3.54171V6.37504C2.125 7.12649 2.42351 7.84716 2.95486 8.37851C3.48622 8.90987 4.20689 9.20838 4.95833 9.20838H5.0575C5.21414 9.81505 5.56745 10.3527 6.06217 10.7372C6.55689 11.1217 7.1651 11.3313 7.79167 11.3334V14.1667H6.02083C5.9269 14.1667 5.83682 14.204 5.7704 14.2704C5.70398 14.3369 5.66667 14.4269 5.66667 14.5209V15.2292C5.66667 15.3231 5.70398 15.4132 5.7704 15.4796C5.83682 15.5461 5.9269 15.5834 6.02083 15.5834H10.9792C11.0731 15.5834 11.1632 15.5461 11.2296 15.4796C11.296 15.4132 11.3333 15.3231 11.3333 15.2292V14.5209C11.3333 14.4269 11.296 14.3369 11.2296 14.2704C11.1632 14.204 11.0731 14.1667 10.9792 14.1667H9.20833V11.3334C9.83489 11.3313 10.4431 11.1217 10.9378 10.7372C11.4325 10.3527 11.7859 9.81505 11.9425 9.20838H12.0417C12.7931 9.20838 13.5138 8.90987 14.0451 8.37851C14.5765 7.84716 14.875 7.12649 14.875 6.37504V3.54171C14.875 3.35385 14.8004 3.17368 14.6675 3.04084C14.5347 2.908 14.3545 2.83338 14.1667 2.83338ZM3.54167 6.37504V4.25004H4.95833V7.79171C4.58261 7.79171 4.22228 7.64245 3.9566 7.37678C3.69092 7.1111 3.54167 6.75077 3.54167 6.37504ZM13.4583 6.37504C13.4583 6.75077 13.3091 7.1111 13.0434 7.37678C12.7777 7.64245 12.4174 7.79171 12.0417 7.79171V4.25004H13.4583V6.37504Z" fill="#ACACAC"/>
</svg>
