<svg width="17" height="17" viewBox="0 0 17 17" fill="none" xmlns="http://www.w3.org/2000/svg">
<path fill-rule="evenodd" clip-rule="evenodd" d="M14.1667 2.83334H12.0417V2.12501C12.0417 1.93714 11.967 1.75698 11.8342 1.62414C11.7014 1.4913 11.5212 1.41667 11.3333 1.41667H5.66667C5.4788 1.41667 5.29864 1.4913 5.1658 1.62414C5.03296 1.75698 4.95833 1.93714 4.95833 2.12501V2.83334H2.83333C2.64547 2.83334 2.4653 2.90797 2.33247 3.0408C2.19963 3.17364 2.125 3.35381 2.125 3.54167V6.37501C2.125 7.12645 2.42351 7.84712 2.95486 8.37847C3.48622 8.90983 4.20689 9.20834 4.95833 9.20834H5.0575C5.21414 9.81501 5.56745 10.3526 6.06217 10.7371C6.55689 11.1216 7.1651 11.3313 7.79167 11.3333V14.1667H6.02083C5.9269 14.1667 5.83682 14.204 5.7704 14.2704C5.70398 14.3368 5.66667 14.4269 5.66667 14.5208V15.2292C5.66667 15.3231 5.70398 15.4132 5.7704 15.4796C5.83682 15.546 5.9269 15.5833 6.02083 15.5833H10.9792C11.0731 15.5833 11.1632 15.546 11.2296 15.4796C11.296 15.4132 11.3333 15.3231 11.3333 15.2292V14.5208C11.3333 14.4269 11.296 14.3368 11.2296 14.2704C11.1632 14.204 11.0731 14.1667 10.9792 14.1667H9.20833V11.3333C9.83489 11.3313 10.4431 11.1216 10.9378 10.7371C11.4325 10.3526 11.7859 9.81501 11.9425 9.20834H12.0417C12.7931 9.20834 13.5138 8.90983 14.0451 8.37847C14.5765 7.84712 14.875 7.12645 14.875 6.37501V3.54167C14.875 3.35381 14.8004 3.17364 14.6675 3.0408C14.5347 2.90797 14.3545 2.83334 14.1667 2.83334ZM3.54167 6.37501V4.25001H4.95833V7.79167C4.58261 7.79167 4.22228 7.64242 3.9566 7.37674C3.69092 7.11106 3.54167 6.75073 3.54167 6.37501ZM13.4583 6.37501C13.4583 6.75073 13.3091 7.11106 13.0434 7.37674C12.7777 7.64242 12.4174 7.79167 12.0417 7.79167V4.25001H13.4583V6.37501Z" fill="#BC952C"/>
</svg>
