<svg width="17" height="18" viewBox="0 0 17 18" fill="none" xmlns="http://www.w3.org/2000/svg">
<g clip-path="url(#clip0_395_1125)">
<path fill-rule="evenodd" clip-rule="evenodd" d="M8.3071 9.877C6.0681 9.877 4.2541 7.667 4.2541 4.939C4.2541 2.21 6.0681 0 8.3071 0C10.5451 0 12.3591 2.211 12.3591 4.939C12.3591 7.666 10.5451 9.877 8.3071 9.877ZM8.3071 11.307C12.8941 11.307 16.6131 13.49 16.6131 16.183V17.381C16.616 17.5421 16.5549 17.6978 16.4432 17.8138C16.3314 17.9299 16.1782 17.9968 16.0171 18H0.597101C0.517254 17.9986 0.43847 17.9814 0.365251 17.9495C0.292032 17.9177 0.225812 17.8717 0.170373 17.8142C0.114933 17.7567 0.0713617 17.6888 0.0421461 17.6145C0.0129306 17.5402 -0.00135638 17.4608 0.000101297 17.381V16.183C0.000101297 13.49 3.7191 11.306 8.3071 11.306V11.307Z" fill="white"/>
</g>
<defs>
<clipPath id="clip0_395_1125">
<rect width="17" height="18" fill="white"/>
</clipPath>
</defs>
</svg>
