<svg width="25" height="25" viewBox="0 0 25 25" fill="none" xmlns="http://www.w3.org/2000/svg">
<path fill-rule="evenodd" clip-rule="evenodd" d="M11.342 0.028765C8.41304 0.313554 5.73389 1.57554 3.65414 3.65007C1.71087 5.58846 0.525308 7.96388 0.0908841 10.7894C-0.0302947 11.5774 -0.0302947 13.4254 0.0908841 14.2135C0.525015 17.0371 1.7007 19.3949 3.64763 21.3463C5.58625 23.2893 7.96193 24.4748 10.7877 24.9091C11.5759 25.0303 13.4241 25.0303 14.2123 24.9091C17.0362 24.475 19.3942 23.2995 21.3459 21.3528C23.2891 19.4144 24.4747 17.039 24.9091 14.2135C25.0303 13.4254 25.0303 11.5774 24.9091 10.7894C24.475 7.96573 23.2993 5.60798 21.3524 3.65657C19.4269 1.72669 17.023 0.521936 14.2612 0.102628C13.6499 0.00983446 11.9732 -0.0325757 11.342 0.028765ZM14.09 2.05604C16.3483 2.40882 18.3392 3.42163 19.96 5.04227C21.5935 6.67557 22.5942 8.65276 22.9554 10.9606C23.0149 11.3403 23.0397 11.7937 23.0397 12.5014C23.0397 13.2091 23.0149 13.6625 22.9554 14.0423C22.5942 16.3501 21.5935 18.3273 19.96 19.9606C18.3265 21.5939 16.3491 22.5945 14.041 22.9557C13.2999 23.0716 11.7001 23.0716 10.959 22.9557C8.6509 22.5945 6.67348 21.5939 5.03999 19.9606C3.4065 18.3273 2.40576 16.3501 2.04457 14.0423C1.92858 13.3013 1.92858 11.7016 2.04457 10.9606C2.40576 8.65276 3.4065 6.67557 5.03999 5.04227C6.84177 3.24064 8.97813 2.24535 11.6439 1.96564C12.0418 1.92387 13.6162 1.98208 14.09 2.05604ZM16.9519 8.32312C16.8427 8.36998 15.6943 9.48194 13.785 11.3894L10.7893 14.3821L9.52879 13.1299C8.83553 12.4413 8.20145 11.8439 8.1198 11.8025C7.61694 11.5473 7.05033 11.7307 6.7998 12.2297C6.65289 12.5224 6.64472 12.7924 6.77465 13.0608C6.83698 13.1895 7.47149 13.8575 8.57252 14.9534C9.91435 16.289 10.3143 16.66 10.4643 16.7082C10.7133 16.788 11.0914 16.7411 11.2909 16.6055C11.5265 16.4455 17.9619 10.0169 18.1416 9.76213C18.2784 9.56822 18.2969 9.50321 18.2971 9.21603C18.2972 8.93261 18.278 8.86285 18.1504 8.68172C17.878 8.29489 17.3708 8.14315 16.9519 8.32312Z" fill="#694DD8"/>
</svg>
