<svg width="25" height="25" viewBox="0 0 25 25" fill="none" xmlns="http://www.w3.org/2000/svg">
<circle cx="12.5" cy="12.5" r="11.5" stroke="#694DD8" stroke-width="2"/>
<path d="M11.9905 10.0127L11.9914 10.0648L9.4106 13.8141C8.99265 13.795 8.57339 13.8685 8.17522 14.0323C8.00189 14.1027 7.8364 14.1911 7.68146 14.296L2.0138 11.96C2.0138 11.96 1.88262 14.1177 2.42911 15.7255L6.43586 17.3788C6.63363 18.278 7.25329 19.0664 8.16368 19.4455C8.87991 19.7431 9.68497 19.7442 10.402 19.4487C11.1191 19.1532 11.6896 18.5851 11.9882 17.8693C12.1474 17.488 12.2243 17.0773 12.2136 16.6642L15.9029 14.0257L15.9936 14.0273C18.2036 14.0273 20 12.2257 20 10.0127C20 7.79967 18.2069 6.00461 15.9936 6C13.7845 6 11.9872 7.79967 11.9872 10.0127H11.9905ZM11.3708 17.6102C10.8915 18.7638 9.56914 19.3067 8.41979 18.8278C7.90975 18.6134 7.49634 18.219 7.25824 17.7196L8.56251 18.2602C8.76399 18.3441 8.98003 18.3874 9.19827 18.3878C9.41651 18.3881 9.63268 18.3454 9.83443 18.2622C10.0362 18.179 10.2196 18.0568 10.3741 17.9027C10.5286 17.7486 10.6512 17.5655 10.735 17.364C10.9046 16.9568 10.9056 16.4989 10.7378 16.0909C10.57 15.683 10.2471 15.3583 9.84008 15.1882L8.48868 14.6295C9.0088 14.4318 9.60012 14.4252 10.1532 14.6549C10.7135 14.8866 11.142 15.323 11.3715 15.8811C11.6009 16.4391 11.5995 17.0545 11.3682 17.6102M15.9972 12.6875C15.289 12.6856 14.6105 12.403 14.1102 11.9018C13.6099 11.4006 13.3286 10.7215 13.328 10.0133C13.3288 9.30527 13.6101 8.62637 14.1104 8.12529C14.6107 7.62421 15.2891 7.34179 15.9972 7.33987C16.7054 7.34161 17.384 7.62396 17.8844 8.12505C18.3848 8.62615 18.6663 9.30516 18.6671 10.0133C18.6664 10.7216 18.3851 11.4008 17.8847 11.9021C17.3842 12.4033 16.7055 12.6857 15.9972 12.6875ZM13.9971 10.0091C13.9967 9.47696 14.2075 8.96647 14.5833 8.58976C14.9591 8.21305 15.4691 8.00095 16.0012 8.00008C17.107 8.00008 18.0065 8.89992 18.0065 10.0091C18.0068 10.5413 17.7957 11.0518 17.4196 11.4284C17.0436 11.805 16.5334 12.0168 16.0012 12.0174C15.4691 12.0166 14.9592 11.8046 14.5833 11.428C14.2075 11.0515 13.9969 10.5411 13.9971 10.0091Z" fill="#694DD8"/>
</svg>
