<svg width="16" height="16" viewBox="0 0 16 16" fill="none" xmlns="http://www.w3.org/2000/svg">
<path d="M10.6633 2.90216C9.30664 2.90216 8.2026 4.00457 8.2026 5.35879C8.2026 6.71301 9.30664 7.81541 10.6633 7.81541C12.02 7.81541 13.1241 6.71301 13.1241 5.35879C13.1241 4.00457 12.02 2.90216 10.6633 2.90216ZM10.6633 6.58505C9.98499 6.58505 9.43296 6.03467 9.43296 5.35879C9.43296 5.03248 9.56259 4.71953 9.79333 4.48879C10.0241 4.25805 10.337 4.12843 10.6633 4.12843C10.9896 4.12843 11.3026 4.25805 11.5333 4.48879C11.7641 4.71953 11.8937 5.03248 11.8937 5.35879C11.8926 5.68439 11.7625 5.99628 11.5319 6.22614C11.3013 6.45599 10.9889 6.58505 10.6633 6.58505ZM15.7291 0.676026C15.7013 0.56798 15.6447 0.469532 15.5652 0.391221C15.4857 0.31291 15.3864 0.257684 15.278 0.231455C15.0779 0.183061 10.3402 -0.923446 7.24866 2.16969C6.86221 2.55787 6.49643 2.9661 6.15281 3.39267L4.43769 3.76096C3.63905 3.89167 2.88762 4.22614 2.25599 4.73205C1.62436 5.23796 1.13387 5.89821 0.831904 6.64903L0.0444712 8.60941C0.00263341 8.71338 -0.0100056 8.82681 0.00791874 8.93744C0.0258431 9.04808 0.0736497 9.15171 0.146176 9.23715C0.218703 9.3226 0.313194 9.38661 0.419445 9.42227C0.525696 9.45793 0.63967 9.46388 0.749059 9.43949L3.50999 8.82513C3.46652 8.96703 3.42387 9.10073 3.37958 9.24838C3.26884 9.6142 3.36645 10.0079 3.63467 10.2753L5.70086 12.3432C5.82894 12.4706 5.98828 12.5622 6.1629 12.6087C6.33752 12.6552 6.5213 12.655 6.69581 12.6081C6.87217 12.5613 7.02883 12.5162 7.19698 12.4703L6.57688 15.2509C6.55197 15.3603 6.55754 15.4744 6.59297 15.5809C6.6284 15.6873 6.69235 15.782 6.77785 15.8547C6.86334 15.9273 6.96713 15.9751 7.0779 15.9929C7.18868 16.0107 7.30221 15.9977 7.40614 15.9555L9.36406 15.1697C10.8905 14.566 12.002 13.1872 12.2571 11.6025L12.6147 9.9464C13.0264 9.61339 13.4431 9.24838 13.8836 8.80791C16.9784 5.71149 15.7816 0.880267 15.7291 0.676026ZM1.6218 7.98438L1.9745 7.10508C2.41989 5.98463 3.43945 5.16849 4.6649 4.96917L5.11275 4.87321C4.91015 5.21689 4.73133 5.56549 4.56811 5.91983C4.5599 5.93706 4.55088 5.95428 4.54432 5.97151C4.32225 6.46006 4.12326 6.95877 3.948 7.46599L1.6218 7.98438ZM6.48911 11.3892L4.59189 9.49117C4.84207 8.66272 5.0742 7.94009 5.33421 7.26421L8.77103 10.6953C8.09679 10.9381 7.35939 11.1563 6.48911 11.3892ZM11.0497 11.3728C10.952 11.962 10.7035 12.5158 10.3286 12.9806C9.9536 13.4454 9.4648 13.8054 8.90965 14.0255L8.03281 14.3774L8.54628 12.0717C9.06917 11.9061 9.58306 11.7133 10.0859 11.4942L10.117 11.4803C10.4665 11.3252 10.8069 11.1546 11.1374 10.9651L11.0497 11.3728ZM9.99975 10.1835L5.86327 6.05353C6.37674 5.04546 7.0559 4.10382 8.11975 3.03832C10.263 0.89339 13.5186 1.18458 14.6144 1.35683C14.8096 2.46579 15.1673 5.78203 13.0141 7.93681C11.9478 9.00394 11.0283 9.67572 9.99975 10.1835Z" fill="#694DD8"/>
</svg>
