<svg width="40" height="40" viewBox="0 0 40 40" fill="none" xmlns="http://www.w3.org/2000/svg">
<path d="M17.4604 22.7062C17.5154 22.7655 17.5709 22.8293 17.6309 22.8889C20.7946 26.0535 23.9528 29.2231 27.1271 32.3769C27.7677 33.012 28.4401 33.6141 29.1417 34.181C30.713 35.4532 32.4002 36.5336 34.3654 37.1091C35.3701 37.4032 36.3867 37.493 37.4552 37.2825C37.411 37.2152 37.3911 37.1725 37.3601 37.1404C36.0303 35.7623 34.9549 34.1953 34.0306 32.5293C33.0139 30.6968 32.0233 28.8424 32.209 26.5983L29.2902 27.1035L29.8341 24.1883L26.8838 24.6986L27.4581 21.8155L24.544 22.3594L25.0879 19.4404L22.1587 19.9477C22.1756 19.7912 22.1797 19.6833 22.1996 19.5784C22.3435 18.8123 22.4785 18.0445 22.6435 17.2831C22.6917 17.0605 22.6429 16.9255 22.4879 16.7725C21.4733 15.7696 20.4677 14.7579 19.4581 13.7503C19.3917 13.6839 19.3148 13.6284 19.2528 13.5763L13.7666 18.9374L14.6329 19.8579C15.6739 19.2009 16.5935 19.2117 17.3183 19.8833C18.0949 20.6026 18.14 21.4614 17.4604 22.7062ZM8.11802 6.71961C7.73323 7.11522 7.3689 7.5082 6.98352 7.87867C6.81305 8.04241 6.77592 8.17224 6.92007 8.37048C7.41276 9.04914 7.86013 9.76405 8.3882 10.4135C9.53937 11.8281 10.8707 13.0553 12.4057 14.0509C12.5025 14.1138 12.699 14.1833 12.7449 14.1398C13.2625 13.6503 13.7592 13.1389 14.2525 12.6427C12.9531 10.4643 10.2402 7.84329 8.11802 6.71961ZM18.9163 10.0287L9.68118 19.2635L10.5303 20.1602L19.763 10.9255L18.9163 10.0287ZM2.54492 5.74855L4.81597 8.02282L7.9534 4.89417L5.68907 2.60236L2.54492 5.74855ZM17.6309 22.8889C20.7946 26.0535 23.9528 29.2231 27.1271 32.3769C27.7677 33.012 28.4401 33.6141 29.1417 34.181C30.713 35.4532 32.4002 36.5336 34.3654 37.1091C35.3701 37.4032 36.3867 37.493 37.4552 37.2825C37.411 37.2152 37.3911 37.1725 37.3601 37.1404C36.0303 35.7623 34.9549 34.1953 34.0306 32.5293C33.0139 30.6968 32.0233 28.8424 32.209 26.5983L29.2902 27.1035L29.8341 24.1883L26.8838 24.6986L27.4581 21.8155L24.544 22.3594L25.0879 19.4404L22.1587 19.9477C22.1756 19.7912 22.1797 19.6833 22.1996 19.5784C22.3435 18.8123 22.4785 18.0445 22.6435 17.2831C22.6917 17.0605 22.6429 16.9255 22.4879 16.7725C21.4733 15.7696 20.4677 14.7579 19.4581 13.7503C19.3917 13.6839 19.3148 13.6284 19.2528 13.5763L13.7666 18.9374L14.6329 19.8579C15.6739 19.2009 16.5935 19.2117 17.3183 19.8833C18.0949 20.6026 18.14 21.4614 17.4604 22.7062C17.5154 22.7655 17.5709 22.8293 17.6309 22.8889ZM6.98323 7.87867C6.81305 8.04241 6.77621 8.17224 6.92007 8.37048C7.41276 9.04914 7.86013 9.76405 8.3882 10.4135C9.53937 11.8281 10.8707 13.0553 12.4057 14.0509C12.5025 14.1138 12.699 14.1833 12.7449 14.1398C13.2625 13.6503 13.7592 13.1389 14.2525 12.6427C12.9531 10.4643 10.2402 7.84329 8.11802 6.71961C7.73323 7.11522 7.3689 7.5082 6.98352 7.87867H6.98323ZM9.68118 19.2635L10.5303 20.1602L19.763 10.9255L18.9163 10.0287L9.68118 19.2635ZM4.81597 8.02282L7.9534 4.89417L5.68907 2.60236L2.54492 5.74855L4.81597 8.02282Z" fill="#694DD8"/>
</svg>
