<svg width="40" height="40" viewBox="0 0 40 40" fill="none" xmlns="http://www.w3.org/2000/svg">
<g clip-path="url(#clip0_153_397)">
<path d="M20.1374 6.84209C12.8064 6.84209 6.84209 12.8064 6.84209 20.1374C6.84209 27.4687 12.8064 33.4327 20.1374 33.4327C27.4687 33.4327 33.4327 27.4687 33.4327 20.1374C33.4327 12.8064 27.4687 6.84209 20.1374 6.84209ZM29.1304 18.4029L23.7971 22.019C23.6763 22.1093 23.6763 22.1696 23.7064 22.3503C24.4596 24.5199 25.2131 26.6593 25.9664 28.8289C25.9965 28.8591 25.9965 28.9196 26.0266 29.0099C25.9664 28.9795 25.9061 28.9494 25.876 28.9193L20.1807 24.9418C20.0301 24.8213 19.9096 24.8213 19.7591 24.9418L14.0637 28.9193C14.0336 28.9494 13.9731 28.9795 13.883 29.04C14.0938 28.4371 14.3047 27.8646 14.4854 27.3222C15.0582 25.6649 15.6608 24.0076 16.2333 22.3503C16.2936 22.1997 16.2634 22.1395 16.1427 22.0792C14.2143 20.7532 12.2558 19.4275 10.2971 18.1015C10.2368 18.0713 10.2064 18.0111 10.1465 17.9509H17.4386C17.6497 17.9509 17.7099 17.8906 17.7702 17.7099L19.9398 11.2012C19.9699 11.1105 20 11.0503 20.0304 10.9599C20.0602 11.0202 20.0602 11.0804 20.0903 11.1409C20.8438 13.3105 21.5669 15.5102 22.29 17.7099C22.3202 17.8605 22.4108 17.8906 22.5614 17.8906H29.8538V17.9207C29.6126 18.0713 29.3713 18.2523 29.1304 18.4029ZM20.1374 0.994141C9.5649 0.994141 0.994141 9.5649 0.994141 20.1374C0.994141 30.7102 9.56461 39.2807 20.1374 39.2807C30.7099 39.2807 39.2807 30.7102 39.2807 20.1374C39.2807 9.5649 30.7099 0.994141 20.1374 0.994141ZM20.1374 37.8187C10.3877 37.8187 2.45613 29.8871 2.45613 20.1374C2.45613 10.3877 10.3877 2.45613 20.1374 2.45613C29.8871 2.45613 37.8187 10.388 37.8187 20.1374C37.8187 29.8868 29.8868 37.8187 20.1374 37.8187Z" fill="#694DD8"/>
</g>
<defs>
<clipPath id="clip0_153_397">
<rect width="40" height="40" fill="white"/>
</clipPath>
</defs>
</svg>
