<svg width="40" height="40" viewBox="0 0 40 40" fill="none" xmlns="http://www.w3.org/2000/svg">
<path d="M17.5664 10.9032L28.1983 17.3447L17.5687 34.8877L6.9351 28.4456L17.5664 10.9032ZM31.3822 13.5997C31.395 13.5018 31.4152 13.3854 31.4249 13.2681C31.507 12.2763 31.576 11.2836 31.6755 10.2936C31.7018 10.0327 31.6088 9.91345 31.4012 9.7883C28.9421 8.30731 26.488 6.81754 24.0328 5.33012C23.931 5.26842 23.8263 5.21111 23.6351 5.10117L23.2193 6.03099C22.4024 5.53099 21.655 5.07515 20.9108 4.61374C20.8418 4.56755 20.7856 4.50469 20.7474 4.43099C20.3348 3.65672 19.6497 3.24386 18.8424 3.00234C17.7904 2.68801 16.7275 2.73275 15.6757 2.98772C14.4641 3.2807 13.3641 3.80058 12.5278 4.76082C11.9255 5.45263 11.5769 6.23684 11.8383 7.17865C12.0863 8.07193 12.7448 8.57515 13.5643 8.87865C14.9942 9.40789 16.4222 9.26667 17.8287 8.77164C18.2705 8.61579 18.6895 8.39444 19.1187 8.20351L19.2021 8.26374L18.2831 9.65292L28.9687 16.1281L30.0383 14.3596L19.5369 7.99591L20.948 6.20643L22.524 7.15672L21.9831 7.90439L31.3822 13.5997ZM14.2456 7.74591C12.9038 7.35994 12.6369 6.37281 13.6769 5.44532C15.0582 4.21345 16.7024 3.81082 18.4965 4.2655C19.8427 4.60702 20.0597 5.61082 19.0462 6.57164C18.4129 7.17193 17.641 7.51725 16.8026 7.73509C15.9526 7.93509 15.0971 7.99064 14.2456 7.74591ZM26.3588 29.3161C29.0407 24.1977 31.7225 19.0792 34.3997 13.9582C34.4632 13.8363 34.4883 13.686 34.5006 13.5459C34.6152 12.2196 34.7161 10.8918 34.8386 9.56608C34.8641 9.2921 34.7956 9.14093 34.5497 8.99298C30.8547 6.76784 27.1676 4.53012 23.4781 2.29591C23.3787 2.23538 23.2743 2.18275 23.1974 2.14035L22.6111 3.01228C22.7898 3.09591 22.9386 3.14971 23.0717 3.23012C26.2997 5.18246 29.5249 7.13947 32.7556 9.08801C32.9646 9.21433 33.0515 9.33684 33.0284 9.59678C32.8778 11.2933 32.7506 12.9918 32.6073 14.6889C32.5931 14.8548 32.5474 15.0166 32.4728 15.1655C30.3898 19.2412 28.3012 23.314 26.2141 27.3871C25.9524 27.8977 25.6933 28.4094 25.4336 28.9187L26.279 29.4325C26.319 29.3749 26.3424 29.3474 26.3588 29.3161ZM5.1582 31.4234L15.7801 37.8596L16.838 36.1108L6.21317 29.6725L5.1582 31.4234Z" fill="#694DD8"/>
</svg>
