<svg width="40" height="40" viewBox="0 0 40 40" fill="none" xmlns="http://www.w3.org/2000/svg">
<path d="M2.58226 2.42545L14.4557 13.6398C14.2033 13.8503 13.3481 14.8035 13.3481 14.8035L14.5676 15.9526C14.5399 15.967 14.5118 15.981 14.4837 16.0091C14.3855 16.107 14.4135 16.2892 14.5399 16.4015C14.6659 16.5135 14.834 16.5275 14.9323 16.4295C14.9603 16.4015 14.9744 16.3734 14.9744 16.3453L15.5211 16.864L16.0115 16.079L17.3434 14.8173L3.4653 1.72428L3.33928 1.61229L3.31121 1.30381L2.8346 0.855271L2.44191 0.785095L1.71325 1.55615L1.69922 1.82252L2.31618 2.41141L2.58226 2.42545ZM37.5998 34.7652C37.6135 34.8073 37.6557 34.9056 37.5296 35.1015C37.5016 35.1579 37.4735 35.2137 37.4174 35.2559C37.0948 35.6483 36.6884 36.055 36.6884 36.055C36.4701 36.3037 36.2506 36.5513 36.0296 36.7977C35.344 37.5821 34.6756 38.3814 34.025 39.195H34.0109C33.9969 39.2091 33.9688 39.195 33.927 39.181C33.7445 39.0406 33.4641 38.3538 33.4641 38.3538L32.7916 37.7231L32.4831 37.4427L32.4551 37.4006C32.5252 37.3167 32.3568 37.2047 32.1887 37.0503C32.0206 36.8959 32.0905 36.826 32.0905 36.826L32.4691 36.4333L32.3709 36.069L31.6138 35.3541C31.6559 35.298 31.5437 35.2137 31.5437 35.2137C31.5437 35.2137 31.7402 35.0035 31.81 34.9333L31.8381 34.9056C31.8662 34.8775 31.8241 34.8494 31.8241 34.8494C31.8241 34.8494 30.7168 33.7839 30.3662 33.4754C30.0299 33.1532 28.1372 33.2094 27.913 33.083C27.6887 32.957 27.7726 32.8728 27.7726 32.8728C27.7171 32.8167 27.6747 32.7886 27.6328 32.7746C27.5065 32.9009 27.3945 32.7605 26.8337 32.2699C26.1466 31.6813 25.572 31.7231 25.572 31.7231C25.572 31.7231 24.2963 30.8401 24.5907 30.5599C25.3478 29.7608 25.6562 28.9757 25.8244 28.6953C25.9925 28.4292 25.7682 28.317 25.7682 28.317C25.2916 28.583 24.7311 27.9664 24.7311 27.9664L23.9036 27.1813C23.6235 26.9152 23.8481 26.3123 23.8481 26.3123L23.7358 26.214L23.315 26.7608L23.203 26.6488L23.6095 26.088L23.4554 25.9477L22.558 26.8871L20.5112 24.476L21.0021 23.9012L20.5396 23.3965L20.9039 23.0041L20.4554 22.233L21.0864 21.1395L22.8103 19.5275L22.9086 19.6117L22.7963 19.7377L23.0068 19.9339L23.1048 19.836L23.203 19.9199L23.1048 20.0181L23.189 20.0883L23.7776 19.4714L23.4273 19.1491L23.301 19.079L24.3384 18.0977L24.3665 18.1538L24.7171 18.476L24.801 18.3781L25.3197 18.8687L25.5019 18.6725L26.0346 19.1769L26.2027 19.0088C26.2027 19.0088 26.2027 18.8547 26.3852 18.8266L27.3103 19.7097C27.3103 19.7097 27.3103 19.8921 27.1282 19.8921L26.8475 20.1863L26.8337 20.2003L26.7355 20.3126V20.3965L27.7589 21.3638L27.8431 21.2658L28.2776 21.6722V21.8544L28.6981 22.2608L29.1606 22.3871L29.3568 22.5693L29.3989 22.6114L29.3849 22.6254L29.3568 22.6395C29.3564 22.6467 29.3533 22.6535 29.3482 22.6587C29.3431 22.6639 29.3363 22.667 29.329 22.6676L29.7495 23.074C29.7776 23.0599 29.8334 23.0599 29.8615 23.1021L30.3802 23.5927L30.8007 23.9991L31.3334 24.5038C31.3194 24.5319 31.3194 24.5459 31.3054 24.5599L31.4878 24.7284C31.5717 24.6863 31.6981 24.7003 31.7682 24.7702C31.8108 24.8105 31.836 24.8659 31.8384 24.9246C31.8802 25.0506 31.684 25.3731 31.3755 25.7097C31.1372 25.9617 30.8989 26.1442 30.7448 26.2C30.6606 26.2421 30.5486 26.2281 30.4641 26.1582C30.4086 26.1021 30.3802 26.0038 30.3802 25.9339L30.1981 25.7515L30.1419 25.7795L28.67 24.3918C28.67 24.3918 28.6279 24.3638 28.6559 24.2936L28.2214 23.8871L28.2074 23.9012C28.1934 23.9012 28.1793 23.9152 28.1793 23.9152L27.941 23.7047L27.7451 23.2983L27.3943 22.962L26.7635 23.6208L26.8618 23.719L26.9738 23.5927L27.1141 23.719L26.9878 23.845L27.1562 23.9994L27.2823 23.8591L27.6328 24.1816L27.4785 24.3357L27.5206 24.3778L27.4785 24.4199L27.4364 24.476L27.4504 24.4901C27.4504 24.4901 27.4785 24.5602 27.4504 24.6442C27.4504 24.6582 27.4504 24.6722 27.4364 24.6863C27.4364 24.6722 27.4364 24.6582 27.4504 24.6442C27.4644 24.6161 27.4644 24.574 27.4644 24.5599L28.4176 25.4573L27.8709 26.0319C27.9551 26.1021 27.8709 26.1722 27.8709 26.1722L27.7027 26.3404L27.829 26.5366L27.8992 26.4664L29.3709 27.8544C29.3849 27.8684 29.3849 27.8965 29.3709 27.9246L29.427 27.9804C29.427 27.9804 29.3989 28.0366 29.4551 28.1208C29.5112 28.1909 29.5811 28.1208 29.5811 28.1208L30.2261 28.7374L30.31 28.6532L31.544 29.817L31.6419 29.7047C31.7121 29.6345 31.796 29.5366 31.8802 29.4664C32.0483 29.2842 32.2866 29.5366 32.2866 29.5366L34.5296 31.6532L34.8802 31.9895C34.9782 32.0737 34.9782 32.0737 35.8054 32.8728C36.0437 33.0971 35.9314 33.6298 35.9314 33.6298L35.9735 33.6719C36.0016 33.6158 36.0156 33.5737 36.0156 33.5456L36.0858 33.4754C36.0858 33.4754 36.5203 33.9521 37.053 34.3868C37.053 34.3868 37.0811 34.4009 37.1089 34.429C37.2633 34.555 37.4174 34.681 37.5714 34.7792L37.5998 34.7652C37.5858 34.7512 37.5858 34.7512 37.5998 34.7652ZM25.3197 19.0509L25.6981 19.4015C25.7121 19.4015 25.7261 19.3874 25.7402 19.3874L25.3197 18.981V19.0509ZM25.9366 26.943L25.7963 26.8029C25.7963 26.817 25.8384 26.957 25.6703 27.1673C25.5019 27.3778 25.1796 27.6021 24.815 27.448C24.815 27.448 24.7308 27.3778 24.7589 27.3497C24.7869 27.3216 25.5299 27.588 25.6703 26.7047L25.1375 26.214C25.0779 26.1576 25.0076 26.1135 24.9308 26.0844C24.854 26.0552 24.7722 26.0415 24.6902 26.0442C24.6081 26.0468 24.5273 26.0656 24.4525 26.0996C24.3778 26.1336 24.3104 26.182 24.2545 26.2421L24.1843 26.3123C24.1279 26.372 24.0838 26.4422 24.0546 26.519C24.0255 26.5958 24.0118 26.6776 24.0144 26.7597C24.017 26.8417 24.0359 26.9225 24.0698 26.9973C24.1038 27.0721 24.1523 27.1394 24.2124 27.1953L24.9972 27.9383C25.2495 28.1766 25.6422 28.1766 25.8802 27.9243L25.9504 27.8541C26.1887 27.574 26.1887 27.1816 25.9366 26.943ZM26.6235 22.5275L26.7916 22.345L25.7823 21.3918L25.7402 21.4339C25.67 21.5181 25.6141 21.448 25.6141 21.448L25.432 21.2798C25.432 21.2798 24.7589 20.6488 24.689 20.5927C24.6188 20.5225 24.703 20.4526 24.703 20.4526L24.7308 20.4246L24.3805 20.1023L24.3524 20.1304L24.1983 20.2845L26.6235 22.5275ZM29.1185 29.817L29.1747 29.7468C29.1747 29.7468 28.6981 29.2983 28.6001 29.2C28.5019 29.1158 28.6559 28.9757 28.6559 28.9757L28.5299 28.8497C28.4738 28.9056 28.4457 28.9199 28.3755 28.8775C27.8989 28.5132 27.2682 28.5833 27.0861 29.6485C26.8899 30.714 28.0112 31.2468 28.0112 31.2468L28.0533 31.2608C28.0954 31.2047 28.1372 31.2187 28.1372 31.2187C28.1372 31.2187 28.2495 31.2468 28.4036 31.2468C28.5861 31.2328 28.7261 31.1907 28.8384 31.1345C28.9086 31.0924 28.9925 31.0366 29.0627 30.9383C29.413 30.5038 29.1185 29.817 29.1185 29.817ZM37.151 0.855271L36.6744 1.30381L36.6323 1.59825L36.5062 1.71053L20.3434 16.9763L18.1004 19.093L17.8621 19.3173L18.703 18.5181L18.4788 18.2798L17.077 19.6117L17.1893 19.7377L16.9788 19.9339L16.8808 19.836L16.7826 19.9199L16.8808 20.0181L16.7966 20.0883L16.8387 20.1304L16.208 19.4714L16.5583 19.1491L18.1706 18.2518L20.091 16.4436L18.5209 14.7754L16.6285 16.5836L15.6472 18.1398L15.2966 18.462L15.2127 18.364L14.694 18.8547L14.5118 18.6585L13.979 19.1632L13.8109 18.9947C13.8109 18.9947 13.8109 18.8406 13.6285 18.8126L12.7033 19.6956C12.7033 19.6956 12.7033 19.8781 12.8855 19.8781L13.1662 20.1722L13.1799 20.1863L13.2782 20.2985V20.3828L12.2548 21.35L12.1706 21.2518L11.7361 21.6582V21.8404L11.3156 22.2468L10.853 22.3731L10.6568 22.5556L10.6147 22.5974L10.6288 22.6114L10.6568 22.6254C10.6568 22.6395 10.6706 22.6535 10.6846 22.6535L10.2641 23.0599C10.2361 23.0462 10.1802 23.0462 10.1521 23.088L9.63343 23.5787L9.21267 23.9851L8.68021 24.4901C8.69425 24.5178 8.69425 24.5319 8.70828 24.5459L8.52583 24.7143C8.44191 24.6722 8.31559 24.6863 8.24542 24.7561C8.2028 24.7965 8.17762 24.8519 8.17524 24.9105C8.13343 25.0366 8.32963 25.3591 8.63811 25.6956C8.87641 25.948 9.11472 26.1301 9.26881 26.1863C9.35302 26.2281 9.46501 26.214 9.54951 26.1442C9.60507 26.088 9.63343 25.9898 9.63343 25.9199L9.81559 25.7374L9.87173 25.7655L11.3437 24.3778C11.3437 24.3778 11.3858 24.3497 11.3577 24.2795L11.7922 23.8731L11.8062 23.8871C11.8203 23.8871 11.8343 23.9012 11.8343 23.9012L12.0726 23.6907L12.2685 23.2842L12.6194 22.948L13.2501 23.6067L13.1238 23.6769L13.0118 23.5506L12.8714 23.6769L12.9978 23.8029L12.8296 23.9573L12.7033 23.817L12.353 24.1395L12.5071 24.2936L12.465 24.3357L12.5071 24.3778L12.5492 24.4339L12.5352 24.448C12.5352 24.448 12.5071 24.5181 12.5352 24.6021C12.5211 24.574 12.5211 24.5319 12.5211 24.5178L11.5679 25.4152L12.1147 25.9898C12.0305 26.0599 12.1147 26.1301 12.1147 26.1301L12.2969 26.3263L12.1706 26.5225L12.1004 26.4523L10.6288 27.8404C10.6147 27.8544 10.6147 27.8825 10.6288 27.9105L10.5726 27.9664C10.5726 27.9664 10.6007 28.0225 10.5445 28.1067C10.4884 28.1769 10.4185 28.1067 10.4185 28.1067L9.75945 28.7237L9.67553 28.6392L8.44162 29.8029L8.34366 29.6907C8.27349 29.6205 8.18957 29.5225 8.10536 29.4523C7.93723 29.2702 7.69893 29.5225 7.69893 29.5225L5.45594 31.6395L5.10536 31.9757C5.00741 32.0597 5.00741 32.0597 4.18021 32.8588C3.94191 33.083 4.05419 33.6158 4.05419 33.6158L4.01208 33.6579C3.98401 33.6018 3.96998 33.5597 3.96998 33.5316L3.8998 33.4614C3.8998 33.4614 3.4653 33.938 2.93255 34.3728C2.93255 34.3728 2.90477 34.3868 2.8767 34.4149C2.72232 34.5409 2.56822 34.6673 2.41413 34.7652L2.4001 34.7792C2.38606 34.8214 2.34396 34.9196 2.47027 35.1155C2.49805 35.1716 2.52612 35.2278 2.58226 35.2699C2.90477 35.6623 3.31121 36.069 3.31121 36.069C3.50741 36.2933 3.73168 36.5456 3.96998 36.8117C4.65562 37.5961 5.324 38.3954 5.97466 39.2091H5.98869C6.00273 39.2231 6.0308 39.2091 6.07261 39.195C6.25507 39.0547 6.53548 38.3678 6.53548 38.3678L7.20799 37.7371L7.51676 37.4567L7.54454 37.4146C7.47437 37.3307 7.64279 37.2187 7.81091 37.0643C7.97934 36.91 7.90916 36.8401 7.90916 36.8401L7.53051 36.4474L7.62875 36.083L8.38577 35.3681C8.34366 35.312 8.45594 35.2278 8.45594 35.2278C8.45594 35.2278 8.25945 35.0176 8.18957 34.9474L8.1615 34.9196C8.13343 34.8915 8.17554 34.8635 8.17554 34.8635C8.17554 34.8635 9.28284 33.798 9.63343 33.4895C9.96969 33.1673 11.8624 33.2234 12.0866 33.0971C12.3109 32.9711 12.227 32.8866 12.227 32.8866C12.2826 32.831 12.325 32.8026 12.3668 32.7886C12.4931 32.9149 12.6054 32.7746 13.1659 32.2839C13.853 31.6953 14.4276 31.7371 14.4276 31.7371C14.4276 31.7371 15.7033 30.8541 15.4089 30.5737C14.6519 29.7749 14.3434 28.9898 14.1752 28.7094C14.0071 28.4433 14.2314 28.331 14.2314 28.331C14.708 28.5971 15.2688 27.9804 15.2688 27.9804L16.0957 27.1953C16.3761 26.9292 16.1519 26.3263 16.1519 26.3263L16.2638 26.2281L16.6846 26.7749L16.7966 26.6629L16.3902 26.1021L16.5442 25.9617L17.4416 26.9012L19.965 23.9433L19.1097 23.0322L20.4694 20.6769L22.6001 18.6725L23.4273 17.8874L25.0252 16.3734C25.0393 16.4015 25.0393 16.4295 25.0674 16.4576C25.1656 16.5556 25.3478 16.5415 25.4597 16.4295C25.5861 16.3173 25.6141 16.1351 25.5159 16.0368C25.4878 16.0091 25.4738 15.995 25.432 15.981L26.6513 14.8313C26.6513 14.8313 25.7963 13.864 25.544 13.6678L37.4174 2.45322L37.6837 2.43948L38.3007 1.85059L38.2866 1.58451L37.5577 0.813165L37.151 0.855271ZM14.2875 19.4152C14.2735 19.4152 14.2595 19.4015 14.2454 19.4015L14.6659 18.995V19.0509L14.2875 19.4152ZM14.2033 21.3918L14.2454 21.4339C14.3156 21.5181 14.3714 21.448 14.3714 21.448L14.5536 21.2798C14.5536 21.2798 15.2267 20.6488 15.2966 20.5927C15.3668 20.5225 15.2826 20.4526 15.2826 20.4526L15.2548 20.4246L15.6051 20.1023L15.6331 20.1304L15.7872 20.2845L13.3902 22.5415L13.222 22.3591L14.2033 21.3918ZM10.7969 29.7608C10.7969 29.7608 11.2735 29.3123 11.3717 29.214C11.4697 29.1298 11.3156 28.9898 11.3156 28.9898L11.4416 28.8635C11.4978 28.9196 11.5258 28.9336 11.596 28.8915C12.0726 28.5272 12.7033 28.5974 12.8855 29.6626C13.082 30.7281 11.9603 31.2608 11.9603 31.2608L11.9182 31.2749C11.8764 31.2187 11.8343 31.2328 11.8343 31.2328C11.8343 31.2328 11.722 31.2608 11.5679 31.2608C11.3858 31.2468 11.2454 31.2047 11.1334 31.1485C11.0633 31.1064 10.979 31.0503 10.9092 30.9523C10.5445 30.5038 10.839 29.831 10.839 29.831L10.7969 29.7608ZM20.4273 17.1866C20.4273 17.1866 20.4273 17.2006 20.4413 17.2146C20.4273 17.2006 20.4273 17.2006 20.4273 17.1866ZM12.5209 24.6161C12.5209 24.6301 12.5209 24.6442 12.5352 24.6582C12.5352 24.6442 12.5352 24.6301 12.5211 24.6161H12.5209ZM15.7872 26.2983C15.8437 26.3579 15.8878 26.4281 15.917 26.5049C15.9462 26.5817 15.9598 26.6635 15.9573 26.7456C15.9547 26.8277 15.9359 26.9084 15.9019 26.9832C15.868 27.058 15.8196 27.1253 15.7595 27.1813L14.9744 27.9243C14.722 28.1626 14.3293 28.1626 14.0913 27.9102L14.0211 27.8401C13.9647 27.7804 13.9206 27.7102 13.8915 27.6334C13.8623 27.5566 13.8486 27.4748 13.8513 27.3927C13.8539 27.3106 13.8727 27.2298 13.9067 27.1551C13.9407 27.0803 13.9891 27.013 14.0492 26.957L14.1893 26.8167C14.1893 26.831 14.1472 26.9711 14.3153 27.1813C14.4837 27.3918 14.8059 27.6161 15.1706 27.462C15.1706 27.462 15.2548 27.3918 15.2267 27.3638C15.1986 27.3357 14.4557 27.6021 14.3153 26.7187L14.848 26.2281C14.9077 26.1716 14.978 26.1276 15.0547 26.0984C15.1315 26.0692 15.2133 26.0556 15.2954 26.0582C15.3775 26.0608 15.4583 26.0796 15.533 26.1136C15.6078 26.1476 15.6751 26.196 15.7311 26.2561L15.7872 26.2983Z" fill="#694DD8"/>
</svg>
