<svg width="40" height="40" viewBox="0 0 40 40" fill="none" xmlns="http://www.w3.org/2000/svg">
<path d="M11.5787 20.714C11.8822 20.7667 12.1722 20.793 12.4491 20.8193L11.2491 21.9538C11.3018 21.6769 11.3544 21.4526 11.3942 21.2678C11.4205 21.1096 11.4468 20.9909 11.4731 20.9117C11.4866 20.7667 11.4994 20.714 11.5787 20.714ZM23.2377 17.7462C23.1954 17.7615 23.1511 17.7704 23.1062 17.7728C23.0799 17.786 23.0664 17.786 23.0401 17.7991C22.9345 17.9047 21.9585 18.9336 21.9585 18.9336C22.2222 19.1178 22.6047 19.3424 23.1193 19.54C23.6863 19.7643 24.5699 20.0412 25.7439 20.1073L23.238 17.7465L23.2377 17.7462ZM3.73131 2.6187C3.63891 2.52631 3.67868 2.32835 3.82371 2.15701C3.98161 1.98566 4.17985 1.93274 4.28511 2.02514L4.29827 2.03829L4.49622 2.22309L4.52254 2.19677C4.65441 2.32835 4.95792 2.20964 4.97108 2.18332L5.23482 1.90642L5.24798 1.91958C5.24798 1.91958 5.28745 1.9459 5.30061 1.95905C5.6702 1.70847 5.99973 1.19414 6.01289 1.19414L6.02605 1.18098L6.0395 1.19414C6.02605 1.12835 6.06582 1.0228 6.15821 0.9304C6.26348 0.811687 6.4088 0.759055 6.46143 0.811687L6.56669 0.917242L6.60646 0.956716L6.84389 1.18098L6.98891 1.31286C7.04155 1.36549 6.98892 1.49765 6.88365 1.61636C6.79125 1.70847 6.69886 1.76139 6.63278 1.76139L6.15821 3.47601L5.99973 3.64736L8.18921 5.71812H8.21552L8.22868 5.70496L8.24184 5.71812C8.38716 5.86315 8.54535 5.95555 8.71669 5.99502L8.74301 6.02134C8.83541 6.04765 8.91465 6.04765 9.00704 6.04765C9.36289 6.03449 9.70587 5.84999 10.062 5.82367H10.3126C10.3258 5.82367 10.3521 5.82367 10.3652 5.83683C10.3787 5.83683 10.405 5.84999 10.4179 5.84999C10.4179 5.84999 10.4313 5.86315 10.4445 5.86315C10.4576 5.87631 10.4708 5.87631 10.4839 5.87631C10.4839 5.87631 10.4974 5.88946 10.5103 5.88946C10.5237 5.90262 10.5366 5.90262 10.55 5.91578C10.55 5.91578 10.5632 5.91578 10.5763 5.92894C10.5895 5.94239 10.6027 5.94239 10.6158 5.95525C10.6158 5.95525 10.6293 5.9687 10.6421 5.9687C10.6556 5.98186 10.6684 5.98186 10.6684 5.99502C10.6754 6.00258 10.6849 6.00728 10.6951 6.00818L10.7477 6.06081C11.6879 6.95401 12.6287 7.8465 13.5702 8.73829L13.5307 8.77777C13.7287 8.56695 13.9 8.72514 13.9924 8.80408C14.0319 8.84385 14.0582 8.87017 14.0977 8.89648C14.1901 8.89648 14.2825 8.93625 14.3749 9.01519C14.5065 9.14707 15.3509 9.91227 16.1684 10.6509C16.9731 11.4023 17.7644 12.1278 17.8831 12.2465C17.9886 12.3389 18.0281 12.4181 18.0281 12.4971V12.5234C18.0413 12.5368 18.0679 12.5631 18.1073 12.5895C18.1997 12.6819 18.1734 12.7082 18.1073 12.7874L18.0413 12.8532C18.0676 12.8532 18.0939 12.8664 18.1205 12.893C18.1337 12.9061 18.1468 12.9324 18.1468 12.9588C18.1731 12.9324 18.1994 12.9061 18.2129 12.8798C18.3711 12.7082 18.5161 12.6424 18.7404 12.84C18.793 12.8927 18.8065 12.9324 18.8065 12.9851L18.8722 13.0512L18.9383 12.9851L19.1623 13.1962C19.1623 13.1962 19.479 13.1172 19.4263 13.4468L19.4527 13.4731C19.3343 13.565 19.2279 13.6714 19.136 13.7898C19.0173 13.8292 18.8986 13.9085 18.7933 14.0009C18.7141 14.0798 18.648 14.1588 18.6085 14.2646C18.4519 14.3044 18.3072 14.3813 18.1866 14.4889C17.9225 14.7395 17.7907 15.1482 18.0413 15.5307L16.6699 16.8362C16.6301 16.8099 16.6038 16.7836 16.5644 16.7441C16.472 16.6652 16.3796 16.5593 16.3401 16.4275C16.0763 15.8471 15.443 15.1088 14.3617 14.0798C13.5834 13.3547 13.0296 12.6555 12.6471 12.1807C12.4492 11.9301 12.291 11.7322 12.1854 11.6266C11.9085 11.3629 11.7237 11.1915 11.8822 10.9409L8.80909 7.9997L8.79593 8.01286C8.70354 7.93391 8.57166 8.03917 8.57166 8.03917L8.43979 7.92075C8.30792 7.80204 8.29476 7.64356 8.30792 7.52484L4.64125 4.04297L4.54886 3.95058C4.38218 3.85884 4.24498 3.72164 4.15324 3.55496C4.28511 3.18566 4.08745 2.94824 4.08745 2.94824L3.74447 2.63186L3.73131 2.6187ZM12.581 9.8725L12.7263 10.0175L12.9372 9.79356L13.0559 9.91227L13.4252 10.2681C13.5307 10.3605 13.5307 10.4266 13.4913 10.4924C13.4913 10.5055 13.4781 10.5187 13.5439 10.5848L14.2427 11.2441C14.3088 11.3102 14.322 11.2968 14.3354 11.2839C14.4012 11.2441 14.467 11.2441 14.5725 11.3365L15.443 12.1544C15.5486 12.2465 15.5486 12.3126 15.5091 12.3786C15.5091 12.3918 15.4959 12.405 15.5617 12.4708L16.3003 13.1696C16.4588 13.3281 16.5114 13.3017 16.5509 13.2754C16.5772 13.2491 16.6301 13.2357 16.7094 13.2623C16.6831 13.2225 16.6433 13.1699 16.617 13.1304C16.538 12.9851 16.419 12.8137 16.2082 12.6158C15.9975 12.4233 15.7625 12.2593 15.5091 12.1281H15.4959L14.9287 11.6003C14.8558 11.5258 14.7937 11.4414 14.7442 11.3497C14.6386 11.1915 14.4936 10.9804 14.2559 10.7561C14.0212 10.5331 13.7545 10.3465 13.4646 10.2023H13.4515L13.0427 9.81987L12.8184 9.60876L12.581 9.8725ZM9.82459 7.04999L9.71933 7.1687L11.9217 9.25262L12.2515 9.05496V8.98888L11.3679 8.14473L9.99623 6.85233L9.93014 6.93128L9.82488 7.05028L9.82459 7.04999ZM8.99359 7.89414L11.7106 10.4661L11.869 10.3079L11.3942 9.85935L9.16523 7.74911C9.19155 7.78859 9.17839 7.84151 9.15207 7.88098C9.14286 7.89273 9.13132 7.90244 9.11818 7.90952C9.10504 7.9166 9.09058 7.92089 9.0757 7.92213C9.06083 7.92336 9.04586 7.92152 9.03173 7.9167C9.0176 7.91188 9.00462 7.90421 8.99359 7.89414ZM5.35354 2.60555L6.01289 3.22543L6.21084 2.55291L5.77546 2.14356C5.64389 2.02514 5.45909 2.03829 5.34038 2.15701C5.22166 2.28888 5.22166 2.48683 5.35354 2.60555ZM4.82605 3.95058L7.72751 6.69414C7.70834 6.67219 7.69778 6.64404 7.69778 6.6149C7.69778 6.58576 7.70834 6.55761 7.72751 6.53566C7.75249 6.51171 7.78534 6.49768 7.81991 6.49619L7.63511 6.32484V6.29853L5.2743 4.06929L5.10295 3.91139C5.10295 3.91139 4.95792 3.93771 4.82605 3.95058ZM37.0205 35.3406C36.9149 35.2088 36.717 34.9319 36.4664 34.602C35.3585 33.1248 33.3144 30.3816 32.7471 29.6824C32.6155 29.5111 32.4834 29.3792 32.3646 29.2605C32.0877 28.9968 31.8898 28.9175 31.7184 28.8251C31.6129 28.7725 31.5205 28.733 31.4149 28.6538C31.3498 28.6055 31.2881 28.5526 31.2304 28.4956C30.9404 28.2319 30.6632 27.8626 30.6369 27.8231C30.5974 27.7702 30.017 26.8734 29.8193 26.5699C29.7532 26.4775 29.7006 26.3985 29.6345 26.3456C29.5158 26.2403 29.45 26.2269 29.4103 26.2403H29.3839L29.3576 26.2667C29.186 26.0424 28.9223 25.7126 28.9223 25.7126L28.7907 25.462C28.9486 25.2775 28.9883 25.0269 28.9749 24.8026C28.5398 24.895 27.6167 25.04 26.3769 25.04C26.0866 25.04 25.7965 25.0269 25.5065 25.0137C25.0244 24.9837 24.5444 24.9264 24.0687 24.8421L24.0293 24.8816C24.0293 24.8816 23.7524 25.04 23.607 25.3301C23.5676 25.3962 23.5676 25.4354 23.5676 25.462C23.4623 25.4751 23.3038 25.4357 23.1325 25.2775C22.8421 25.0137 22.5784 24.7365 22.3015 24.4465C22.1299 24.3939 21.9585 24.3412 21.774 24.2751C21.8793 24.3804 21.9717 24.486 22.0772 24.5915C22.3146 24.8553 22.5521 25.1061 22.8024 25.3433C22.8421 25.3827 22.8951 25.4357 22.9477 25.4751C23.2114 25.7126 23.4489 25.7389 23.6202 25.7257C23.6202 25.8842 23.5807 26.1348 23.3831 26.6228C22.9082 27.8228 22.6445 28.7064 22.2883 29.2474C21.9453 29.8012 21.7474 29.9067 22.5389 30.5134C23.3301 31.1202 24.0556 30.8298 24.2667 30.5661C24.4775 30.3155 24.9524 28.8251 25.2161 28.2582C25.4801 27.6778 25.6383 27.4403 25.9415 27.3348C26.179 27.2558 26.5351 27.0447 26.6404 26.8865L26.6801 26.9392L26.9705 26.8468C27.0758 27.0053 27.2869 27.3216 27.4056 27.493C27.4319 27.5459 27.4582 27.5854 27.4845 27.6251C27.3398 27.8491 27.5638 28.3108 27.9068 29.0099C28.0123 29.221 28.131 29.4582 28.2497 29.7222C28.7377 30.7903 31.4942 37.6091 31.7711 38.5193C31.8372 38.7564 31.9427 38.9281 32.0614 39.0468C32.3252 39.2974 32.7076 39.2313 33.1164 38.8488C33.8024 38.2026 36.5983 36.3167 36.8755 36.1319C37.0334 36.0266 37.1655 35.9474 37.1918 35.8023C37.2445 35.6836 37.1787 35.552 37.0205 35.3406ZM2.79476 35.8155C2.82108 35.9605 2.95324 36.0398 3.11143 36.145C3.38833 36.3298 6.18453 38.2026 6.8702 38.862C7.27927 39.2444 7.66172 39.3105 7.92547 39.0599C8.04418 38.9412 8.14973 38.7699 8.21552 38.5324C8.49242 37.6222 11.236 30.8035 11.7372 29.7354C11.8464 29.4956 11.9607 29.2581 12.0799 29.0231C12.4228 28.3108 12.6471 27.8623 12.5021 27.6383C12.5284 27.5985 12.5547 27.5593 12.581 27.5064C12.6997 27.3348 12.9108 27.0053 13.0164 26.8602L13.3065 26.9523L13.3462 26.8997C13.4515 27.0579 13.8076 27.269 14.0451 27.3479C14.3486 27.4535 14.5068 27.6909 14.7705 28.2713C15.0342 28.8517 15.5091 30.3286 15.7202 30.5792C15.931 30.8301 16.6565 31.1333 17.448 30.5266C18.2395 29.9199 18.0415 29.8015 17.6986 29.2605C17.3424 28.7196 17.0787 27.836 16.6038 26.636C16.419 26.1476 16.3796 25.8842 16.3664 25.7389C16.5377 25.7652 16.7752 25.7257 17.0389 25.4883C17.0915 25.4488 17.1313 25.3962 17.1842 25.3567C17.4359 25.1158 17.6778 24.8649 17.9094 24.6047C18.0413 24.4596 18.1866 24.3146 18.3316 24.1564C18.7009 23.774 18.7141 23.4705 18.6877 23.3254C18.7141 23.2991 18.7404 23.2728 18.7272 23.2728C18.7141 23.1275 18.7933 23.1541 18.8459 23.1541L18.9512 23.2593L18.991 23.233C19.1228 23.233 19.1491 23.3912 19.1491 23.3912L19.3208 23.5629C19.3208 23.5629 19.4132 23.4705 19.4132 23.4839C19.3869 23.2991 19.1228 22.9035 19.1228 22.9035C19.1889 22.745 19.0176 22.5076 18.8065 22.2836L18.8328 22.2573C18.8459 22.1515 18.938 22.0593 19.0041 22.0064C21.4047 23.6816 23.8974 24.1696 25.6252 24.2883C27.6562 24.407 29.107 24.0377 29.1202 24.0377L29.186 24.0246L29.1728 23.9453C29.1728 23.9453 29.0278 23.1406 28.8828 22.3626C28.7904 21.9009 28.7246 21.5316 28.6717 21.2678C28.6453 21.1096 28.619 20.9909 28.5927 20.9117C28.5664 20.7667 28.553 20.714 28.474 20.714H28.4608C25.8494 21.1228 23.9763 20.6746 22.8684 20.2257C21.8135 19.8038 21.2199 19.2895 21.088 19.1708L21.1407 18.7225C21.9453 17.8784 22.6313 17.1529 22.6576 17.1398L22.6839 17.1003C22.7629 17.1134 22.8553 17.1003 22.9608 17.021C22.9768 17.0302 22.9951 17.0348 23.0135 17.0342C23.0664 17.0342 23.1059 17.021 23.1588 16.9684C23.2114 16.9286 23.2512 16.876 23.3038 16.8365C23.3565 16.7971 23.3962 16.7573 23.4357 16.7178C23.5281 16.6386 23.6202 16.533 23.66 16.4012C23.9237 15.8207 24.5568 15.0824 25.6383 14.0535C26.4164 13.3284 26.9705 12.6292 27.353 12.1544C27.5506 11.9038 27.7091 11.7058 27.8144 11.6003C28.0915 11.3365 28.2763 11.1652 28.1179 10.9146L31.2041 7.9997L31.2173 8.02601C31.3097 7.94707 31.4415 8.05233 31.4415 8.05233L31.5731 7.93391C31.7053 7.8152 31.7184 7.65672 31.7053 7.538L35.3851 4.05613L35.4772 3.96403C35.6439 3.87221 35.7811 3.73491 35.8728 3.56812C35.7413 3.19882 35.9389 2.96139 35.9389 2.96139L36.2819 2.64502L36.2951 2.63186C36.3875 2.53946 36.3477 2.34151 36.2027 2.17017C36.0445 1.99882 35.8465 1.9459 35.741 2.03829L35.7278 2.05145L35.5301 2.23625L35.5038 2.20993C35.3717 2.34151 35.0684 2.2228 35.0553 2.19648L34.7915 1.91958L34.7784 1.93274C34.7784 1.93274 34.7386 1.95905 34.7258 1.97221C34.3562 1.72163 34.0266 1.2073 34.0132 1.2073L34 1.19414L33.9869 1.2073C34 1.14151 33.9606 1.03596 33.8682 0.943558C33.7629 0.824844 33.6176 0.772213 33.5649 0.824844L33.4594 0.9304L33.4199 0.969874L33.1825 1.19414L33.0375 1.32601C32.9848 1.37865 33.0375 1.51081 33.1427 1.62952C33.2351 1.72163 33.3275 1.77455 33.3933 1.77455L33.8816 3.46256L34.0395 3.6342L31.8503 5.70496H31.824L31.8108 5.69151L31.7977 5.70496C31.6524 5.84999 31.4942 5.94239 31.3228 5.98186L31.2965 6.00818C31.2041 6.03449 31.1249 6.03449 31.0325 6.03449C30.6766 6.02134 30.3337 5.83683 29.9775 5.81022H29.7269C29.7138 5.81022 29.6875 5.81022 29.6743 5.82367C29.6608 5.82367 29.6345 5.83683 29.6214 5.83683C29.6214 5.83683 29.6082 5.84999 29.5951 5.84999C29.5819 5.86315 29.5687 5.86315 29.5556 5.86315C29.5556 5.86315 29.5421 5.87631 29.5293 5.87631C29.5158 5.88946 29.503 5.88946 29.4895 5.90262C29.4895 5.90262 29.4763 5.90262 29.4632 5.91578C29.45 5.92894 29.4369 5.92894 29.4234 5.9421C29.4234 5.9421 29.4103 5.95555 29.3971 5.95555C29.3839 5.9687 29.3708 5.9687 29.3708 5.98186C29.3576 5.99502 29.3445 5.99502 29.3445 5.99502L29.2918 6.04765C28.474 6.82601 26.4693 8.72514 26.4693 8.72514L26.5088 8.76461C26.3108 8.55379 26.1395 8.71198 26.0471 8.79093C26.0154 8.82537 25.9801 8.85634 25.9418 8.88332C25.8494 8.88332 25.757 8.92309 25.6646 9.00204C25.5328 9.13391 24.6886 9.89882 23.8711 10.6374C23.2877 11.1753 22.7029 11.7116 22.1167 12.2465C22.0114 12.3389 21.9717 12.4181 21.9717 12.4971V12.5234C21.9478 12.5482 21.9213 12.5703 21.8927 12.5895C21.8003 12.6819 21.8266 12.7082 21.8927 12.7874L21.9585 12.8532C21.9322 12.8532 21.9059 12.8664 21.8796 12.893C21.8631 12.911 21.8538 12.9344 21.8532 12.9588C21.8269 12.9324 21.8003 12.9061 21.7872 12.8798C21.6287 12.7082 21.4837 12.6424 21.2594 12.84C21.2068 12.8927 21.1936 12.9324 21.1936 12.9851L21.1275 13.0512L21.0617 12.9851L20.8375 13.1962C20.8375 13.1962 20.5211 13.1172 20.5737 13.4468L20.3231 13.6842V13.7631L20.1518 13.9216C20.1518 13.9216 19.7032 14.1193 19.6635 14.4754L19.6108 14.5017C19.5184 14.436 19.4132 14.436 19.3339 14.5152C19.2679 14.581 19.255 14.6997 19.3208 14.7921L19.0965 15.0032C19.0965 15.0032 18.8459 14.8845 18.7272 15.0032C18.6483 15.069 18.6746 15.0953 18.7404 15.1611C18.8065 15.2406 19.0041 15.4515 19.0041 15.4515L19.3997 15.069L19.4132 15.0822L19.2679 15.214L19.2415 15.3725L19.2679 15.3988L11.2491 22.9824C10.8401 23.3649 10.972 24.1433 11.0775 24.2617C11.1038 24.288 11.1173 24.3015 11.1301 24.3015C11.038 24.4465 10.8799 25.1058 11.1962 25.4623L11.0646 25.7126C11.0646 25.7126 10.8006 26.0424 10.629 26.2667L10.6027 26.2403H10.5763C10.5369 26.2403 10.4711 26.2403 10.3521 26.3456C10.2863 26.3982 10.2334 26.4775 10.1676 26.5699C9.96962 26.8734 9.3895 27.7702 9.34973 27.8228C9.16821 28.0609 8.96985 28.2856 8.75617 28.4953C8.6985 28.5524 8.63684 28.6054 8.57166 28.6538C8.4664 28.7327 8.37371 28.7725 8.26845 28.8251C8.09681 28.9044 7.8857 28.9968 7.62225 29.2605C7.50324 29.3792 7.37137 29.5111 7.2395 29.6824C6.6857 30.3684 4.62839 33.1248 3.5202 34.602C3.34003 34.8515 3.1554 35.0978 2.9664 35.3406C2.83453 35.5517 2.76845 35.6836 2.79476 35.8155ZM27.1682 9.60876L27.4187 9.8725L27.2737 10.0175L27.0626 9.79356L26.9439 9.91227L26.5746 10.2681C26.4693 10.3605 26.4693 10.4266 26.5088 10.4924C26.5088 10.5055 26.522 10.5187 26.4562 10.5848L25.757 11.2441C25.691 11.3102 25.6781 11.2968 25.6646 11.2839C25.5986 11.2441 25.5328 11.2441 25.4272 11.3365L24.5568 12.1544C24.4515 12.2465 24.4515 12.3126 24.491 12.3786C24.491 12.3918 24.5041 12.405 24.4383 12.4708L23.6994 13.1696C23.5413 13.3281 23.4883 13.3017 23.4489 13.2754C23.4225 13.2491 23.3699 13.2357 23.2907 13.2623C23.317 13.2225 23.3565 13.1699 23.3831 13.1304C23.462 12.9851 23.5807 12.8137 23.7918 12.6158C24.0024 12.4233 24.2374 12.2593 24.4907 12.1281H24.5041L25.0714 11.6003C25.124 11.5477 25.1898 11.4687 25.2556 11.3497C25.3614 11.1915 25.5065 10.9804 25.7439 10.7561C25.9786 10.5331 26.2453 10.3465 26.5351 10.2023H26.5483L26.957 9.81987L27.1682 9.60876ZM30.1886 7.05028L30.2807 7.1687L28.0784 9.25262L27.7486 9.05496V8.98888L28.6322 8.14473L30.0038 6.83917L30.0699 6.91812L30.1886 7.05028ZM34.6728 2.15701C34.7915 2.28888 34.7915 2.47367 34.6597 2.60555L34 3.22543L33.8024 2.55291L34.2375 2.14356C34.3562 2.02514 34.5541 2.03829 34.6728 2.15701ZM31.6261 7.32718L32.2854 6.7073C32.3046 6.68535 32.3151 6.6572 32.3151 6.62806C32.3151 6.59892 32.3046 6.57077 32.2854 6.54882C32.2605 6.52494 32.2278 6.51091 32.1933 6.50935L32.3778 6.338V6.31169L34.7386 4.08274L34.9103 3.92426C34.9103 3.92426 35.0553 3.95058 35.1872 3.96403L31.6261 7.32718ZM31.0588 7.85467L28.3024 10.4661L28.1442 10.3079L28.619 9.85935L30.8348 7.76227C30.8085 7.80204 30.8217 7.85467 30.848 7.89414C30.8699 7.91323 30.898 7.92374 30.9271 7.92374C30.9561 7.92374 30.9842 7.91323 31.0062 7.89414L31.0588 7.85467ZM16.8415 25.2775C16.6699 25.4357 16.5117 25.4751 16.4062 25.462C16.4193 25.4225 16.4062 25.383 16.3667 25.3304C16.2217 25.0532 15.9448 24.8816 15.9448 24.8816L15.5886 24.4991L15.6149 24.4728C15.76 24.5254 15.9579 24.4465 15.9579 24.4465L16.1424 24.3412C16.1951 24.3804 16.6304 24.5652 16.7623 24.5915C16.9073 24.6178 17.2108 24.6178 17.369 24.4991C17.5272 24.3804 17.448 24.3015 17.448 24.3278C16.8152 24.5652 16.7097 24.3804 16.4722 24.1167C16.3535 23.9851 16.3404 23.8661 16.3404 23.7605C16.3667 23.7342 16.4456 23.6553 16.5249 23.5629C16.7491 23.3254 17.1579 22.9032 17.3427 22.7319C17.5141 22.5737 17.5404 22.5737 17.567 22.5737C17.5801 22.5737 17.6065 22.5868 17.6328 22.5868C17.6591 22.5868 17.6722 22.5868 17.6989 22.5737L18.3977 23.3123C18.4108 23.3517 18.4901 23.576 18.1076 23.9585C17.9626 24.1167 17.8176 24.2617 17.6857 24.407C17.4085 24.7102 17.1448 25.0006 16.8415 25.2775Z" fill="#694DD8"/>
</svg>
