<svg width="19" height="19" viewBox="0 0 19 19" fill="none" xmlns="http://www.w3.org/2000/svg">
<path fill-rule="evenodd" clip-rule="evenodd" d="M9.80457 1.02238C9.76 1.03828 8.27944 1.66722 6.51444 2.41998C4.00302 3.49113 3.28253 3.81137 3.20039 3.89302C2.98581 4.10639 2.99086 4.0401 3.00665 6.43301C3.02136 8.66664 3.0331 8.88999 3.17679 9.67279C3.58594 11.9019 4.631 13.9388 6.18219 15.5307C7.11519 16.4881 8.14988 17.223 9.39938 17.8156C9.74512 17.9795 9.8118 18 9.99906 18C10.1862 18 10.2545 17.979 10.6099 17.8122C14.2558 16.1018 16.6563 12.5717 16.9682 8.46225C16.9861 8.22633 17.0004 7.1786 17 6.13396C16.9993 4.35615 16.9955 4.22607 16.9392 4.10154C16.9062 4.02836 16.8366 3.92741 16.7844 3.87722C16.719 3.81419 15.6877 3.35845 13.4497 2.40355C10.1406 0.991581 10.0194 0.94568 9.80457 1.02238ZM12.8678 3.59663L15.6879 4.80109L15.6862 6.66318C15.6847 8.42416 15.6806 8.55145 15.6117 9.00757C15.5716 9.27282 15.5036 9.64701 15.4607 9.8391C14.8132 12.7338 12.9246 15.1749 10.3272 16.4742L9.99565 16.6401L9.56787 16.4181C6.94336 15.0564 5.07204 12.5559 4.49006 9.63298C4.32442 8.80098 4.3108 8.57354 4.31051 6.63049L4.31022 4.80225L7.13033 3.59783C8.68139 2.9354 9.97232 2.39314 9.99906 2.39281C10.0258 2.39248 11.3167 2.9342 12.8678 3.59663ZM12.2681 6.89831C12.1972 6.92964 11.6176 7.49867 10.7208 8.41761L9.28703 9.88686L8.56524 9.15272C7.97915 8.55661 7.81458 8.4075 7.68975 8.35944C7.19817 8.17018 6.716 8.64076 6.85454 9.1745C6.8889 9.30682 7.00297 9.4367 7.87078 10.3316C8.40842 10.8861 8.89935 11.3723 8.96171 11.4121C9.10703 11.5049 9.41199 11.5122 9.5787 11.427C9.64168 11.3948 10.4601 10.579 11.3974 9.61422C12.9715 7.994 13.1047 7.84808 13.1425 7.70333C13.286 7.15398 12.7684 6.67735 12.2681 6.89831Z" fill="#694DD8"/>
</svg>
