<svg width="16" height="16" viewBox="0 0 16 16" fill="none" xmlns="http://www.w3.org/2000/svg">
<g clip-path="url(#clip0_395_1122)">
<path fill-rule="evenodd" clip-rule="evenodd" d="M11.28 8.02401C11.3 6.22701 9.836 4.74001 8.025 4.72001C6.227 4.70001 4.74 6.16501 4.72 7.97601C4.7 9.77301 6.164 11.258 7.977 11.281C9.772 11.303 11.262 9.83501 11.282 8.02401M9.03 16H6.97C6.743 15.92 6.63 15.752 6.577 15.522C6.457 15 6.319 14.482 6.197 13.961C6.171 13.852 6.126 13.794 6.02 13.754C5.767 13.66 5.518 13.554 5.273 13.442C5.178 13.399 5.108 13.397 5.016 13.453C4.632 13.692 4.242 13.923 3.853 14.153C3.568 14.323 3.372 14.299 3.139 14.067C2.739 13.67 2.342 13.272 1.945 12.874C1.705 12.632 1.68 12.44 1.855 12.148C2.087 11.759 2.318 11.37 2.556 10.985C2.61 10.898 2.606 10.832 2.566 10.743C2.45176 10.4923 2.34504 10.2381 2.246 9.98101C2.21 9.88401 2.162 9.83301 2.056 9.80801C1.529 9.68501 1.006 9.54601 0.479 9.42501C0.248 9.37001 0.081 9.25801 0 9.03001V6.97001C0.08 6.74301 0.247 6.63001 0.478 6.57701C1.004 6.45501 1.527 6.31701 2.052 6.19201C2.147 6.16901 2.203 6.13201 2.238 6.03501C2.318 5.81001 2.408 5.58801 2.508 5.37101C2.546 5.28501 2.544 5.22301 2.495 5.14301C2.225 4.69901 1.959 4.25201 1.693 3.80501C1.521 3.51501 1.546 3.32101 1.787 3.08001C2.18 2.68501 2.573 2.29101 2.967 1.89801C3.217 1.65001 3.399 1.62901 3.705 1.81201C4.129 2.06501 4.555 2.31701 4.975 2.57501C5.063 2.62901 5.129 2.62701 5.219 2.58601C5.483 2.46601 5.751 2.35201 6.021 2.24601C6.118 2.20801 6.168 2.16001 6.193 2.05401C6.316 1.52801 6.454 1.00501 6.576 0.479007C6.629 0.249007 6.742 0.0820071 6.969 0.00100708H9.03C9.266 0.0820071 9.375 0.259007 9.429 0.494007C9.549 1.01501 9.686 1.53401 9.807 2.05401C9.831 2.16001 9.882 2.20801 9.979 2.24601C10.231 2.34201 10.48 2.44701 10.727 2.55801C10.812 2.59601 10.875 2.59501 10.957 2.54601C11.364 2.29601 11.776 2.05201 12.187 1.80701C12.485 1.63001 12.667 1.65201 12.911 1.89601L14.093 3.07601C14.343 3.32801 14.367 3.51101 14.186 3.81401C13.941 4.22401 13.691 4.63201 13.452 5.04701C13.4213 5.113 13.4177 5.1884 13.442 5.25701C13.541 5.51901 13.66 5.77401 13.76 6.03501C13.796 6.13001 13.85 6.17001 13.946 6.19201C14.472 6.31801 14.995 6.45501 15.521 6.57701C15.751 6.63001 15.918 6.74301 15.999 6.97001V9.03001C15.919 9.25701 15.752 9.37001 15.521 9.42301C14.995 9.54501 14.471 9.68301 13.946 9.80801C13.85 9.83001 13.796 9.87001 13.76 9.96501C13.664 10.217 13.56 10.466 13.448 10.712C13.409 10.798 13.414 10.86 13.463 10.94C13.71 11.344 13.952 11.75 14.193 12.157C14.364 12.444 14.341 12.632 14.104 12.87C13.708 13.269 13.31 13.666 12.912 14.063C12.673 14.301 12.477 14.323 12.184 14.149C11.787 13.912 11.389 13.676 10.994 13.434C10.914 13.384 10.854 13.381 10.767 13.42C10.503 13.54 10.235 13.654 9.964 13.76C9.87 13.796 9.83 13.85 9.807 13.946C9.682 14.472 9.545 14.994 9.423 15.521C9.37 15.751 9.257 15.918 9.03 15.999" fill="white"/>
</g>
<defs>
<clipPath id="clip0_395_1122">
<rect width="16" height="16" fill="white"/>
</clipPath>
</defs>
</svg>
