<svg width="16" height="16" viewBox="0 0 16 16" fill="none" xmlns="http://www.w3.org/2000/svg">
<g clip-path="url(#clip0_324_1104)">
<path fill-rule="evenodd" clip-rule="evenodd" d="M11.28 8.02398C11.3 6.22698 9.836 4.73998 8.025 4.71998C6.227 4.69998 4.74 6.16498 4.72 7.97598C4.7 9.77298 6.164 11.258 7.977 11.281C9.772 11.303 11.262 9.83498 11.282 8.02398M9.03 16H6.97C6.743 15.92 6.63 15.752 6.577 15.522C6.457 15 6.319 14.482 6.197 13.961C6.171 13.852 6.126 13.794 6.02 13.754C5.767 13.66 5.518 13.554 5.273 13.442C5.178 13.399 5.108 13.397 5.016 13.453C4.632 13.692 4.242 13.923 3.853 14.153C3.568 14.323 3.372 14.299 3.139 14.067C2.739 13.67 2.342 13.272 1.945 12.874C1.705 12.632 1.68 12.44 1.855 12.148C2.087 11.759 2.318 11.37 2.556 10.985C2.61 10.898 2.606 10.832 2.566 10.743C2.45176 10.4922 2.34504 10.2381 2.246 9.98098C2.21 9.88398 2.162 9.83298 2.056 9.80798C1.529 9.68498 1.006 9.54598 0.479 9.42498C0.248 9.36998 0.081 9.25798 0 9.02998V6.96998C0.08 6.74298 0.247 6.62998 0.478 6.57698C1.004 6.45498 1.527 6.31698 2.052 6.19198C2.147 6.16898 2.203 6.13198 2.238 6.03498C2.318 5.80998 2.408 5.58798 2.508 5.37098C2.546 5.28498 2.544 5.22298 2.495 5.14298C2.225 4.69898 1.959 4.25198 1.693 3.80498C1.521 3.51498 1.546 3.32098 1.787 3.07998C2.18 2.68498 2.573 2.29098 2.967 1.89798C3.217 1.64998 3.399 1.62898 3.705 1.81198C4.129 2.06498 4.555 2.31698 4.975 2.57498C5.063 2.62898 5.129 2.62698 5.219 2.58598C5.483 2.46598 5.751 2.35198 6.021 2.24598C6.118 2.20798 6.168 2.15998 6.193 2.05398C6.316 1.52798 6.454 1.00498 6.576 0.478977C6.629 0.248977 6.742 0.0819766 6.969 0.000976562H9.03C9.266 0.0819766 9.375 0.258977 9.429 0.493977C9.549 1.01498 9.686 1.53398 9.807 2.05398C9.831 2.15998 9.882 2.20798 9.979 2.24598C10.231 2.34198 10.48 2.44698 10.727 2.55798C10.812 2.59598 10.875 2.59498 10.957 2.54598C11.364 2.29598 11.776 2.05198 12.187 1.80698C12.485 1.62998 12.667 1.65198 12.911 1.89598L14.093 3.07598C14.343 3.32798 14.367 3.51098 14.186 3.81398C13.941 4.22398 13.691 4.63198 13.452 5.04698C13.4213 5.11297 13.4177 5.18837 13.442 5.25698C13.541 5.51898 13.66 5.77398 13.76 6.03498C13.796 6.12998 13.85 6.16998 13.946 6.19198C14.472 6.31798 14.995 6.45498 15.521 6.57698C15.751 6.62998 15.918 6.74298 15.999 6.96998V9.02998C15.919 9.25698 15.752 9.36998 15.521 9.42298C14.995 9.54498 14.471 9.68298 13.946 9.80798C13.85 9.82998 13.796 9.86998 13.76 9.96498C13.664 10.217 13.56 10.466 13.448 10.712C13.409 10.798 13.414 10.86 13.463 10.94C13.71 11.344 13.952 11.75 14.193 12.157C14.364 12.444 14.341 12.632 14.104 12.87C13.708 13.269 13.31 13.666 12.912 14.063C12.673 14.301 12.477 14.323 12.184 14.149C11.787 13.912 11.389 13.676 10.994 13.434C10.914 13.384 10.854 13.381 10.767 13.42C10.503 13.54 10.235 13.654 9.964 13.76C9.87 13.796 9.83 13.85 9.807 13.946C9.682 14.472 9.545 14.994 9.423 15.521C9.37 15.751 9.257 15.918 9.03 15.999" fill="#3D3D40"/>
</g>
<defs>
<clipPath id="clip0_324_1104">
<rect width="16" height="16" fill="white"/>
</clipPath>
</defs>
</svg>
