<svg width="18" height="19" viewBox="0 0 18 19" fill="none" xmlns="http://www.w3.org/2000/svg">
<circle cx="9" cy="9.5" r="8.5" stroke="white"/>
<path d="M8.59987 7.55345L8.60065 7.5942L6.58085 10.5285C6.25376 10.5135 5.92564 10.571 5.61403 10.6992C5.47838 10.7543 5.34887 10.8235 5.22761 10.9056L0.792052 9.07745C0.792052 9.07745 0.689385 10.766 1.11708 12.0243L4.25279 13.3182C4.40757 14.022 4.89252 14.639 5.605 14.9356C6.16552 15.1685 6.79557 15.1694 7.35677 14.9382C7.91796 14.7069 8.36441 14.2623 8.59807 13.7021C8.72272 13.4037 8.78285 13.0823 8.77451 12.759L11.6618 10.6941L11.7327 10.6954C13.4623 10.6954 14.8682 9.28536 14.8682 7.55345C14.8682 5.82153 13.4649 4.4167 11.7327 4.41309C10.0039 4.41309 8.59729 5.82153 8.59729 7.55345H8.59987ZM8.11491 13.4993C7.73985 14.4022 6.70493 14.827 5.80543 14.4522C5.40627 14.2845 5.08273 13.9758 4.89639 13.585L5.91713 14.008C6.07481 14.0737 6.24388 14.1076 6.41468 14.1079C6.58548 14.1081 6.75465 14.0747 6.91255 14.0096C7.07044 13.9445 7.21395 13.8489 7.33487 13.7282C7.4558 13.6076 7.55178 13.4644 7.61732 13.3066C7.75003 12.9879 7.75082 12.6296 7.6195 12.3103C7.48818 11.9911 7.2355 11.737 6.91697 11.6039L5.85934 11.1666C6.2664 11.0119 6.72917 11.0067 7.16202 11.1865C7.60055 11.3678 7.93589 11.7094 8.11543 12.1461C8.29497 12.5828 8.29394 13.0644 8.11285 13.4993M11.7356 9.64676C11.1814 9.64526 10.6503 9.42416 10.2588 9.0319C9.86725 8.63964 9.64713 8.10819 9.64666 7.55396C9.64727 6.99982 9.86744 6.4685 10.259 6.07635C10.6505 5.6842 11.1814 5.46318 11.7356 5.46168C12.2898 5.46304 12.8209 5.68401 13.2125 6.07617C13.6042 6.46834 13.8244 6.99973 13.825 7.55396C13.8246 8.10828 13.6044 8.63981 13.2127 9.03208C12.8211 9.42436 12.2899 9.64539 11.7356 9.64676ZM10.1703 7.55061C10.17 7.13419 10.335 6.73467 10.6291 6.43985C10.9232 6.14504 11.3223 5.97905 11.7387 5.97836C12.6041 5.97836 13.3081 6.68259 13.3081 7.55061C13.3083 7.96712 13.1431 8.36666 12.8488 8.66139C12.5545 8.95613 12.1552 9.12192 11.7387 9.12233C11.3223 9.12172 10.9232 8.95583 10.6291 8.66112C10.3349 8.36641 10.1701 7.96698 10.1703 7.55061Z" fill="white"/>
</svg>
