<svg width="40" height="40" viewBox="0 0 40 40" fill="none" xmlns="http://www.w3.org/2000/svg">
<path d="M15.0187 17.9167C13.6177 17.9167 12.2483 17.5012 11.0834 16.7229C9.91856 15.9446 9.01067 14.8383 8.47455 13.544C7.93843 12.2497 7.79816 10.8255 8.07147 9.45145C8.34478 8.07741 9.0194 6.81529 10.01 5.82466C11.0006 4.83404 12.2628 4.15942 13.6368 3.88611C15.0108 3.6128 16.4351 3.75307 17.7294 4.28919C19.0237 4.82531 20.1299 5.7332 20.9083 6.89805C21.6866 8.0629 22.102 9.43239 22.102 10.8333C22.0998 12.7113 21.3528 14.5117 20.0249 15.8396C18.697 17.1675 16.8966 17.9145 15.0187 17.9167ZM15.0187 6.25C14.1122 6.25 13.2261 6.51881 12.4723 7.02243C11.7186 7.52606 11.1312 8.24188 10.7843 9.07937C10.4373 9.91687 10.3466 10.8384 10.5234 11.7275C10.7003 12.6166 11.1368 13.4333 11.7778 14.0742C12.4188 14.7152 13.2355 15.1518 14.1245 15.3286C15.0136 15.5055 15.9352 15.4147 16.7727 15.0678C17.6102 14.7209 18.326 14.1334 18.8296 13.3797C19.3332 12.626 19.602 11.7398 19.602 10.8333C19.6011 9.61803 19.118 8.45276 18.2586 7.59341C17.3993 6.73406 16.234 6.25089 15.0187 6.25ZM21.6704 36.25H8.33703C4.3037 36.25 2.08203 34.0417 2.08203 30.0317C2.08203 25.595 4.59203 20.4167 11.6654 20.4167H18.332C25.4054 20.4167 27.9154 25.595 27.9154 30.0317C27.9204 34.0417 25.6987 36.25 21.6704 36.25ZM11.6704 22.9167C10.7187 22.8431 9.76235 22.9769 8.86741 23.3089C7.97247 23.6409 7.16023 24.1631 6.48679 24.8396C5.81334 25.516 5.29471 26.3306 4.96672 27.227C4.63873 28.1234 4.50919 29.0803 4.58703 30.0317C4.58703 32.6383 5.71036 33.75 8.34203 33.75H21.6704C24.302 33.75 25.4254 32.6383 25.4254 30.0317C25.5033 29.0799 25.3737 28.1225 25.0454 27.2257C24.7171 26.3289 24.198 25.5141 23.524 24.8375C22.85 24.161 22.0371 23.6388 21.1416 23.3072C20.246 22.9756 19.2891 22.8423 18.337 22.9167H11.6704ZM27.6037 18.65C26.1089 18.6551 24.6721 18.072 23.6037 17.0267C23.4011 16.79 23.2942 16.4862 23.3039 16.1749C23.3136 15.8635 23.4392 15.567 23.6561 15.3434C23.873 15.1198 24.1656 14.9853 24.4765 14.9661C24.7875 14.947 25.0944 15.0447 25.337 15.24C25.9412 15.829 26.7533 16.156 27.597 16.15C28.0295 16.1547 28.4586 16.073 28.859 15.9096C29.2595 15.7463 29.6233 15.5046 29.9291 15.1988C30.235 14.893 30.4766 14.5291 30.64 14.1287C30.8033 13.7282 30.885 13.2991 30.8804 12.8667C30.879 11.9963 30.5327 11.1619 29.9172 10.5465C29.3018 9.93101 28.4674 9.58466 27.597 9.58334C27.1188 9.57572 26.6456 9.68258 26.217 9.895C25.9215 10.0455 25.5784 10.0725 25.263 9.96995C24.9476 9.86743 24.6859 9.64383 24.5354 9.34834C24.3849 9.05284 24.3579 8.70966 24.4604 8.39429C24.5629 8.07891 24.7865 7.81718 25.082 7.66667C25.8638 7.27317 26.7286 7.07312 27.6037 7.08334C29.1375 7.08334 30.6085 7.69265 31.6931 8.77724C32.7777 9.86182 33.387 11.3328 33.387 12.8667C33.387 14.4005 32.7777 15.8715 31.6931 16.9561C30.6085 18.0407 29.1375 18.65 27.6037 18.65ZM32.7704 32.9167H31.637C31.3055 32.9167 30.9876 32.785 30.7532 32.5506C30.5187 32.3161 30.387 31.9982 30.387 31.6667C30.387 31.3351 30.5187 31.0172 30.7532 30.7828C30.9876 30.5484 31.3055 30.4167 31.637 30.4167H32.7704C34.6787 30.4167 35.4204 29.6833 35.4204 27.8C35.4775 27.0975 35.3815 26.391 35.1389 25.7292C34.8964 25.0675 34.5131 24.4662 34.0155 23.9671C33.5179 23.4679 32.9179 23.0827 32.2569 22.838C31.5959 22.5934 30.8897 22.4951 30.187 22.55H27.6704C27.3388 22.55 27.0209 22.4183 26.7865 22.1839C26.5521 21.9495 26.4204 21.6315 26.4204 21.3C26.4204 20.9685 26.5521 20.6505 26.7865 20.4161C27.0209 20.1817 27.3388 20.05 27.6704 20.05H30.187C31.2216 19.9821 32.2588 20.1361 33.229 20.5018C34.1991 20.8674 35.0799 21.4363 35.8123 22.1702C36.5446 22.9041 37.1116 23.7862 37.4752 24.7571C37.8388 25.7281 37.9905 26.7656 37.9204 27.8C37.9916 28.4924 37.9071 29.1919 37.673 29.8474C37.4389 30.5029 37.0611 31.0977 36.5673 31.5882C36.0736 32.0788 35.4763 32.4527 34.8193 32.6826C34.1623 32.9124 33.4623 32.9924 32.7704 32.9167Z" fill="#694DD8"/>
</svg>
