<svg width="41" height="40" viewBox="0 0 41 40" fill="none" xmlns="http://www.w3.org/2000/svg">
<path d="M1.32602 21.4644C1.92124 21.4925 8.25345 21.7992 8.95707 21.9085C9.66105 22.0184 10.4604 21.9361 11.0156 23.087C11.7409 24.5908 13.6683 27.2023 15.7265 28.5006C16.5276 29.0074 16.5928 29.2324 16.538 30.4232C16.4844 31.6152 16.0232 37.4354 15.9161 38.1947C15.8086 38.9527 15.032 39.7207 14.3462 39.4921C9.34619 37.8414 1.70261 33.1318 0.0509683 23.3579C-0.305653 21.2512 1.32602 21.4644 1.32602 21.4644ZM19.028 1.50851C19.0013 2.10412 18.6774 8.01665 18.5684 8.71972C18.46 9.42334 18.5408 10.2227 17.3912 10.7761C16.1389 11.3804 14.4295 12.4608 13.1127 14.0019C13.0388 14.0876 12.9099 14.123 12.7263 13.9207C12.4848 13.6512 12.2594 12.4187 11.448 12.7021C11.0256 12.8505 10.0665 13.0684 10.0665 13.6767C10.0665 14.1942 12.0372 14.631 11.9143 15.0991C11.6757 16.0156 11.2034 15.9375 10.0131 15.8839C8.82233 15.8291 2.37754 15.4216 1.62054 15.3156C0.862442 15.2072 0.716822 14.4863 0.943614 13.799C1.74529 11.3722 3.27073 8.51472 5.78306 5.96136C5.95992 5.78068 7.11204 6.29691 7.4692 5.96136C7.83382 5.61708 7.34718 4.72337 7.59032 4.33688C8.23674 3.31395 9.20564 4.44936 9.8034 4.03293C9.99533 3.89822 9.56082 2.95649 9.98626 2.65073C12.1142 1.13155 14.0789 0.580838 17.2425 0.0460143C19.3459 -0.309173 19.028 1.50851 19.028 1.50851ZM39.1437 18.2129C38.5485 18.1862 32.2132 18.0785 31.5096 17.9697C30.8059 17.8622 29.841 18.0927 29.2342 16.9676C28.5042 15.615 27.3933 13.8009 25.4986 12.4201C24.7338 11.8625 24.7141 11.6348 24.7673 10.4431C24.8225 9.2523 25.0653 2.94469 25.1737 2.18667C25.2818 1.42821 26.1254 1.00136 26.7981 1.26492C27.9219 1.70712 29.0203 2.21125 30.0884 2.77502C30.4729 2.9787 30.3633 3.47134 30.6164 3.6283C30.8998 3.80612 31.4927 3.58839 31.8402 3.84514C35.1263 6.26931 38.1797 9.88564 39.8749 16.3194C40.4184 18.383 39.1437 18.2129 39.1437 18.2129ZM22.2496 38.9514C22.2768 38.3544 22.575 32.0735 22.6825 31.3703C22.79 30.6663 22.5069 29.4619 23.6577 28.9072C25.1619 28.1808 26.8254 26.9588 28.1246 24.8993C28.6299 24.0988 28.9911 24.0065 30.1819 24.061C31.3743 24.1136 37.4098 24.4403 38.1692 24.5482C38.9267 24.6562 39.5388 25.47 39.2793 26.1455C38.8601 27.2328 38.4032 28.2907 37.682 29.5567C37.4588 29.9472 36.8672 29.8624 36.5248 30.184C36.1602 30.5301 35.8204 30.9893 35.5101 31.4044C35.2637 31.7327 35.4929 32.816 35.2183 33.1399C33.6053 35.0592 31.5132 36.8687 28.8077 38.2224C28.3655 38.4437 28.101 37.7383 27.2256 37.7383C26.7179 37.7383 26.3124 38.1657 26.109 38.4885C25.9122 38.8039 25.7021 39.4743 25.3357 39.5818C24.9417 39.697 24.5447 39.8021 24.1454 39.8972C22.0673 40.3899 22.2496 38.9514 22.2496 38.9514Z" fill="white"/>
</svg>
