<svg width="40" height="40" viewBox="0 0 40 40" fill="none" xmlns="http://www.w3.org/2000/svg">
<path d="M33.3339 7.08333H31.2089C31.1082 6.16921 30.6745 5.32415 29.9905 4.70936C29.3065 4.09457 28.4202 3.75307 27.5006 3.75H12.5006C11.5809 3.75307 10.6946 4.09457 10.0106 4.70936C9.32665 5.32415 8.89295 6.16921 8.79222 7.08333H6.66722C5.89395 7.08422 5.15259 7.39179 4.6058 7.93858C4.05901 8.48537 3.75144 9.22672 3.75056 10V12.75C3.72913 14.412 4.32561 16.0227 5.42435 17.2699C6.52309 18.517 8.04579 19.3118 9.69722 19.5C10.4911 21.3062 11.745 22.8724 13.3336 24.0423C14.9223 25.2122 16.7902 25.9447 18.7506 26.1667V28.8333C15.5206 29.2633 13.7506 31.405 13.7506 35V36.25H26.2506V35C26.2506 31.4117 24.4806 29.27 21.2506 28.8333V26.1667C23.211 25.9447 25.0788 25.2122 26.6675 24.0423C28.2561 22.8724 29.51 21.3062 30.3039 19.5C31.9553 19.3118 33.478 18.517 34.5768 17.2699C35.6755 16.0227 36.272 14.412 36.2506 12.75V10C36.2497 9.22672 35.9421 8.48537 35.3953 7.93858C34.8485 7.39179 34.1072 7.08422 33.3339 7.08333ZM6.25056 12.75V10C6.25056 9.88949 6.29446 9.78351 6.3726 9.70537C6.45074 9.62723 6.55672 9.58333 6.66722 9.58333H8.75056V15C8.75536 15.5689 8.80272 16.1365 8.89222 16.6983C8.09479 16.3984 7.41125 15.8564 6.93749 15.1483C6.46373 14.4402 6.22352 13.6015 6.25056 12.75ZM23.6456 33.75H16.3556C16.6889 32.0117 17.8339 31.25 20.0006 31.25C22.1672 31.25 23.3089 32.0117 23.6456 33.75ZM20.0006 23.75C17.6807 23.7474 15.4567 22.8246 13.8163 21.1843C12.1759 19.5439 11.2532 17.3198 11.2506 15V7.5C11.251 7.16861 11.3828 6.85093 11.6172 6.6166C11.8515 6.38228 12.1692 6.25044 12.5006 6.25H27.5006C27.8319 6.25044 28.1496 6.38228 28.384 6.6166C28.6183 6.85093 28.7501 7.16861 28.7506 7.5V15C28.7479 17.3198 27.8252 19.5439 26.1848 21.1843C24.5444 22.8246 22.3204 23.7474 20.0006 23.75ZM33.7456 12.75C33.7726 13.6015 33.5324 14.4402 33.0586 15.1483C32.5849 15.8564 31.9013 16.3984 31.1039 16.6983C31.1951 16.1367 31.2441 15.569 31.2506 15V9.58333H33.3339C33.4444 9.58333 33.5504 9.62723 33.6285 9.70537C33.7067 9.78351 33.7506 9.88949 33.7506 10L33.7456 12.75Z" fill="#694DD8"/>
</svg>
