<svg width="18" height="16" viewBox="0 0 18 16" fill="none" xmlns="http://www.w3.org/2000/svg">
<path d="M6.75802 7.0625C6.1276 7.0625 5.51132 6.87556 4.98714 6.52531C4.46296 6.17506 4.05441 5.67724 3.81316 5.09481C3.5719 4.51237 3.50878 3.87147 3.63177 3.25315C3.75476 2.63484 4.05834 2.06688 4.50412 1.6211C4.9499 1.17532 5.51786 0.871739 6.13617 0.748748C6.75449 0.625758 7.39539 0.688881 7.97783 0.930135C8.56027 1.17139 9.05809 1.57994 9.40833 2.10412C9.75858 2.6283 9.94552 3.24457 9.94552 3.875C9.94453 4.72007 9.60839 5.53025 9.01083 6.12781C8.41327 6.72537 7.6031 7.06151 6.75802 7.0625ZM6.75802 1.8125C6.3501 1.8125 5.95134 1.93346 5.61216 2.1601C5.27298 2.38673 5.00863 2.70884 4.85252 3.08572C4.69642 3.46259 4.65557 3.87729 4.73515 4.27738C4.81474 4.67746 5.01117 5.04496 5.29962 5.33341C5.58806 5.62186 5.95556 5.81829 6.35565 5.89787C6.75574 5.97745 7.17044 5.93661 7.54731 5.7805C7.92418 5.6244 8.2463 5.36004 8.47293 5.02086C8.69956 4.68169 8.82052 4.28293 8.82052 3.875C8.82013 3.32811 8.6027 2.80374 8.21599 2.41703C7.82929 2.03032 7.30491 1.8129 6.75802 1.8125ZM9.75127 15.3125H3.75127C1.93627 15.3125 0.936523 14.3188 0.936523 12.5143C0.936523 10.5178 2.06602 8.1875 5.24902 8.1875H8.24902C11.432 8.1875 12.5615 10.5178 12.5615 12.5143C12.5638 14.3188 11.564 15.3125 9.75127 15.3125ZM5.25127 9.3125C4.82301 9.27938 4.39267 9.3396 3.98994 9.48899C3.58722 9.63838 3.22172 9.8734 2.91866 10.1778C2.61561 10.4822 2.38223 10.8488 2.23463 11.2521C2.08704 11.6555 2.02874 12.0861 2.06377 12.5143C2.06377 13.6873 2.56927 14.1875 3.75352 14.1875H9.75127C10.9355 14.1875 11.441 13.6873 11.441 12.5143C11.4761 12.0859 11.4178 11.6551 11.27 11.2516C11.1223 10.848 10.8887 10.4813 10.5854 10.1769C10.2821 9.87244 9.91631 9.63748 9.51331 9.48824C9.11031 9.339 8.67971 9.27904 8.25127 9.3125H5.25127ZM12.4213 7.3925C11.7486 7.39481 11.1021 7.13242 10.6213 6.662C10.5301 6.55551 10.482 6.41881 10.4864 6.27869C10.4907 6.13858 10.5472 6.00514 10.6449 5.90452C10.7425 5.80391 10.8741 5.74336 11.0141 5.73476C11.154 5.72615 11.2921 5.7701 11.4013 5.858C11.6732 6.12305 12.0386 6.27019 12.4183 6.2675C12.6129 6.26961 12.806 6.23283 12.9862 6.15933C13.1664 6.08582 13.3301 5.97707 13.4677 5.83945C13.6053 5.70183 13.7141 5.53811 13.7876 5.3579C13.8611 5.17769 13.8979 4.98461 13.8958 4.79C13.8952 4.39833 13.7393 4.02286 13.4624 3.74591C13.1854 3.46895 12.8099 3.3131 12.4183 3.3125C12.2031 3.30908 11.9901 3.35716 11.7973 3.45275C11.6643 3.52048 11.5099 3.53261 11.368 3.48648C11.226 3.44035 11.1083 3.33972 11.0405 3.20675C10.9728 3.07378 10.9607 2.91935 11.0068 2.77743C11.0529 2.63551 11.1536 2.51773 11.2865 2.45C11.6383 2.27293 12.0275 2.18291 12.4213 2.1875C13.1115 2.1875 13.7735 2.46169 14.2615 2.94976C14.7496 3.43782 15.0238 4.09978 15.0238 4.79C15.0238 5.48023 14.7496 6.14218 14.2615 6.63025C13.7735 7.11831 13.1115 7.3925 12.4213 7.3925ZM14.7463 13.8125H14.2363C14.0871 13.8125 13.944 13.7532 13.8385 13.6477C13.733 13.5423 13.6738 13.3992 13.6738 13.25C13.6738 13.1008 13.733 12.9577 13.8385 12.8523C13.944 12.7468 14.0871 12.6875 14.2363 12.6875H14.7463C15.605 12.6875 15.9388 12.3575 15.9388 11.51C15.9645 11.1939 15.9213 10.8759 15.8121 10.5782C15.703 10.2804 15.5305 10.0098 15.3066 9.78518C15.0827 9.56056 14.8127 9.38721 14.5152 9.27711C14.2178 9.16702 13.9 9.12279 13.5838 9.1475H12.4513C12.3021 9.1475 12.159 9.08824 12.0535 8.98275C11.948 8.87726 11.8888 8.73419 11.8888 8.585C11.8888 8.43582 11.948 8.29274 12.0535 8.18725C12.159 8.08176 12.3021 8.0225 12.4513 8.0225H13.5838C14.0493 7.99192 14.5161 8.06123 14.9526 8.22579C15.3892 8.39034 15.7856 8.64633 16.1151 8.9766C16.4447 9.30686 16.6998 9.70377 16.8634 10.1407C17.027 10.5776 17.0954 11.0445 17.0638 11.51C17.0958 11.8216 17.0578 12.1364 16.9524 12.4313C16.8471 12.7263 16.6771 12.994 16.4549 13.2147C16.2327 13.4355 15.9639 13.6037 15.6683 13.7072C15.3727 13.8106 15.0576 13.8466 14.7463 13.8125Z" fill="#694DD8"/>
</svg>
