<svg width="15" height="10" viewBox="0 0 15 10" fill="none" xmlns="http://www.w3.org/2000/svg">
<g clip-path="url(#clip0_310_922)">
<path fill-rule="evenodd" clip-rule="evenodd" d="M7.333 0C4 0 1.153 2.073 0 5C1.153 7.927 4 10 7.333 10C10.667 10 13.513 7.927 14.667 5C13.513 2.073 10.667 0 7.333 0ZM7.333 8.333C6.46902 8.30307 5.65042 7.9388 5.0498 7.31701C4.44918 6.69522 4.11348 5.8645 4.11348 5C4.11348 4.1355 4.44918 3.30478 5.0498 2.68299C5.65042 2.0612 6.46902 1.69694 7.333 1.667C8.19698 1.69694 9.01558 2.0612 9.6162 2.68299C10.2168 3.30478 10.5525 4.1355 10.5525 5C10.5525 5.8645 10.2168 6.69522 9.6162 7.31701C9.01558 7.9388 8.19698 8.30307 7.333 8.333ZM7.333 3C6.227 3 5.333 3.893 5.333 5C5.333 6.107 6.227 7 7.333 7C8.44 7 9.333 6.107 9.333 5C9.333 3.893 8.44 3 7.333 3Z" fill="#3D3D40"/>
</g>
<defs>
<clipPath id="clip0_310_922">
<rect width="15" height="10" fill="white"/>
</clipPath>
</defs>
</svg>
