<svg width="20" height="20" viewBox="0 0 20 20" fill="none" xmlns="http://www.w3.org/2000/svg">
<g clip-path="url(#clip0_395_1134)">
<path d="M17.143 5.71399H3.429C2.286 5.71399 1.905 5.14299 1.905 4.76199L17.143 3.33299V1.90499C17.143 1.33299 16.571 0.856993 16 0.951993L1.619 3.52399C0.667 3.71399 0 4.47599 0 5.42899V18.095C0.00131983 18.5998 0.202448 19.0836 0.55942 19.4406C0.916391 19.7975 1.40017 19.9987 1.905 20H17.143C17.6478 19.9987 18.1316 19.7975 18.4886 19.4406C18.8456 19.0836 19.0467 18.5998 19.048 18.095V7.61999C19.0467 7.11516 18.8456 6.63138 18.4886 6.27441C18.1316 5.91744 17.6478 5.71531 17.143 5.71399ZM15.714 14.286C14.952 14.286 14.286 13.619 14.286 12.857C14.286 12.095 14.952 11.429 15.714 11.429C16.476 11.429 17.143 12.095 17.143 12.857C17.143 13.619 16.476 14.286 15.714 14.286Z" fill="white"/>
</g>
<defs>
<clipPath id="clip0_395_1134">
<rect width="20" height="20" fill="white"/>
</clipPath>
</defs>
</svg>
