<svg width="30" height="30" viewBox="0 0 30 30" fill="none" xmlns="http://www.w3.org/2000/svg">
<g clip-path="url(#clip0_115_162)">
<path d="M0 6C0 2.68629 2.68629 0 6 0H24C27.3137 0 30 2.68629 30 6V24C30 27.3137 27.3137 30 24 30H6C2.68629 30 0 27.3137 0 24V6Z" fill="#694DD8"/>
<circle cx="15" cy="33" r="12" fill="#D9D9D9"/>
<circle cx="14.9996" cy="14.4" r="5.4" fill="#D9D9D9"/>
</g>
<defs>
<clipPath id="clip0_115_162">
<path d="M0 6C0 2.68629 2.68629 0 6 0H24C27.3137 0 30 2.68629 30 6V24C30 27.3137 27.3137 30 24 30H6C2.68629 30 0 27.3137 0 24V6Z" fill="white"/>
</clipPath>
</defs>
</svg>
