<svg width="100" height="162" viewBox="0 0 100 162" fill="none" xmlns="http://www.w3.org/2000/svg">
<path fill-rule="evenodd" clip-rule="evenodd" d="M14.7727 0C6.61398 0 0 6.61397 0 14.7727V146.591C0 154.75 6.61397 161.364 14.7727 161.364H85.2273C93.386 161.364 100 154.75 100 146.591V14.7727C100 6.61397 93.386 0 85.2273 0H14.7727ZM89.772 22.7272H10.2266V138.636H89.772V22.7272ZM39.7724 13.0681C39.7724 14.0095 39.0092 14.7727 38.0678 14.7727C37.1264 14.7727 36.3633 14.0095 36.3633 13.0681C36.3633 12.1267 37.1264 11.3636 38.0678 11.3636C39.0092 11.3636 39.7724 12.1267 39.7724 13.0681ZM46.5906 11.3636H63.636V14.7727H46.5906V11.3636ZM49.4329 157.955C54.1399 157.955 57.9556 154.139 57.9556 149.432C57.9556 144.725 54.1399 140.909 49.4329 140.909C44.7259 140.909 40.9102 144.725 40.9102 149.432C40.9102 154.139 44.7259 157.955 49.4329 157.955Z" fill="white"/>
<circle cx="50.3925" cy="80.0195" r="15.692" stroke="white" stroke-width="2.72904"/>
<path d="M49.6947 76.6255L49.6961 76.6965L46.1744 81.8126C45.6041 81.7865 45.032 81.8868 44.4887 82.1103C44.2522 82.2064 44.0264 82.327 43.815 82.4701L36.0813 79.2827C36.0813 79.2827 35.9023 82.2268 36.648 84.4207L42.1153 86.6767C42.3852 87.9037 43.2307 88.9795 44.473 89.4967C45.4503 89.9028 46.5488 89.9044 47.5273 89.5011C48.5058 89.0979 49.2842 88.3227 49.6916 87.346C49.9089 86.8257 50.0137 86.2653 49.9992 85.7017L55.0334 82.1013L55.1571 82.1036C58.1727 82.1036 60.6239 79.6452 60.6239 76.6255C60.6239 73.6058 58.1772 71.1564 55.1571 71.1501C52.1428 71.1501 49.6902 73.6058 49.6902 76.6255H49.6947ZM48.8492 86.9925C48.1952 88.5666 46.3908 89.3074 44.8224 88.6539C44.1265 88.3614 43.5624 87.8232 43.2375 87.1418L45.0172 87.8794C45.2921 87.9938 45.5869 88.053 45.8847 88.0535C46.1825 88.0539 46.4775 87.9957 46.7528 87.8822C47.0281 87.7686 47.2783 87.6019 47.4891 87.3916C47.7 87.1813 47.8673 86.9315 47.9816 86.6565C48.213 86.1008 48.2143 85.4761 47.9854 84.9194C47.7564 84.3627 47.3159 83.9197 46.7605 83.6876L44.9164 82.9253C45.6262 82.6554 46.433 82.6464 47.1877 82.9599C47.9523 83.2761 48.537 83.8716 48.8501 84.633C49.1631 85.3945 49.1613 86.2342 48.8456 86.9925M55.162 80.2753C54.1957 80.2727 53.2698 79.8872 52.5871 79.2032C51.9044 78.5193 51.5207 77.5927 51.5198 76.6264C51.5209 75.6602 51.9048 74.7338 52.5874 74.0501C53.2701 73.3664 54.1958 72.981 55.162 72.9784C56.1283 72.9807 57.0543 73.366 57.7372 74.0498C58.42 74.7335 58.804 75.66 58.8051 76.6264C58.8042 77.5929 58.4203 78.5196 57.7375 79.2036C57.0546 79.8875 56.1285 80.2729 55.162 80.2753ZM52.4329 76.6205C52.4323 75.8945 52.72 75.1979 53.2327 74.6839C53.7455 74.1698 54.4414 73.8804 55.1674 73.8792C56.6763 73.8792 57.9037 75.1071 57.9037 76.6205C57.9041 77.3467 57.6161 78.0434 57.1029 78.5572C56.5898 79.0711 55.8936 79.3602 55.1674 79.3609C54.4414 79.3599 53.7456 79.0706 53.2327 78.5568C52.7199 78.0429 52.4325 77.3465 52.4329 76.6205Z" fill="white"/>
</svg>
