<svg width="143" height="143" viewBox="0 0 143 143" fill="none" xmlns="http://www.w3.org/2000/svg">
<g opacity="0.2" clip-path="url(#clip0_157_2318)">
<path d="M25.8586 55.1531C16.3548 55.1531 8.65039 62.8575 8.65039 72.3613C8.65039 78.6288 12.001 84.1136 17.0086 87.1224C19.467 88.5994 21.4336 93.1095 21.4336 99.4027C21.4336 99.485 21.4331 99.5669 21.4321 99.6486C21.4331 99.7302 21.4336 99.8121 21.4336 99.8944C21.4336 105.166 19.5309 109.17 17.992 111.203C17.6935 111.597 17.0086 112.175 17.0086 112.175C17.0086 112.175 16.4897 112.496 16.2373 112.667C11.6599 115.759 8.65039 120.996 8.65039 126.936C8.65039 136.44 16.3548 144.144 25.8586 144.144C35.3624 144.144 43.0667 136.44 43.0667 126.936C43.0667 120.668 39.7162 115.184 34.7085 112.175C32.4916 110.843 30.2835 106.188 30.2835 99.8944C30.2835 99.8121 30.284 99.7302 30.285 99.6486C30.284 99.5669 30.2835 99.485 30.2835 99.4027C30.2835 94.1316 32.1862 90.1272 33.7252 88.0945C34.0236 87.7003 34.7085 87.1112 34.7085 87.1112C34.7085 87.1112 35.2274 86.8011 35.4798 86.6306C40.0572 83.5382 43.0667 78.3012 43.0667 72.3613C43.0667 62.8575 35.3624 55.1531 25.8586 55.1531Z" fill="#694DD8"/>
<path d="M134.535 63.5745C129.783 55.3439 119.259 52.5239 111.028 57.2758C105.6 60.4096 102.526 66.0537 102.424 71.8948C102.374 74.7623 99.4512 78.7205 94.0011 81.8671C93.9299 81.9083 93.8586 81.9488 93.7874 81.9888C93.7172 82.0304 93.6465 82.0718 93.5753 82.113C89.0104 84.7485 84.5911 85.103 82.0613 84.7865C81.5707 84.7252 80.7277 84.421 80.7277 84.421C80.7277 84.421 80.19 84.1322 79.9162 83.9989C74.9493 81.581 68.9092 81.5931 63.7651 84.5631C55.5346 89.315 52.7146 99.8394 57.4665 108.07C62.2184 116.3 72.7428 119.12 80.9733 114.369C86.4011 111.235 89.4758 105.591 89.5777 99.7495C89.6227 97.1636 92.5501 92.9239 98.0003 89.7772C98.0715 89.7361 98.1427 89.6956 98.2139 89.6556C98.2841 89.6139 98.3548 89.5725 98.426 89.5314C102.991 86.8958 107.41 86.5414 109.94 86.8578C110.431 86.9192 111.283 87.2177 111.283 87.2177C111.283 87.2177 111.811 87.5121 112.085 87.6455C117.052 90.0634 123.092 90.0512 128.236 87.0813C136.467 82.3294 139.287 71.805 134.535 63.5745Z" fill="#694DD8"/>
<path d="M88.5858 53.1024C93.3377 44.8718 90.5178 34.3475 82.2872 29.5956C76.8594 26.4619 70.4341 26.6211 65.3246 29.4535C62.8163 30.8439 57.9272 30.2921 52.477 27.1455C52.4058 27.1043 52.3351 27.0629 52.2649 27.0213C52.1937 26.9813 52.1225 26.9408 52.0513 26.8996C47.4863 24.2641 44.9697 20.6141 43.9789 18.265C43.7867 17.8094 43.6286 16.9273 43.6286 16.9273C43.6286 16.9273 43.6099 16.3173 43.5884 16.0134C43.199 10.5031 40.1684 5.27827 35.0243 2.30833C26.7938 -2.44357 16.2694 0.376419 11.5175 8.60696C6.76559 16.8375 9.58558 27.3619 17.8161 32.1138C23.2439 35.2475 29.6692 35.0882 34.7787 32.2559C37.0407 31.002 42.1762 31.4172 47.6263 34.5639C47.6975 34.605 47.7682 34.6464 47.8384 34.6881C47.9096 34.7281 47.9809 34.7686 48.0521 34.8097C52.617 37.4453 55.1336 41.0953 56.1245 43.4444C56.3166 43.8999 56.4844 44.7876 56.4844 44.7876C56.4844 44.7876 56.4934 45.392 56.5149 45.6959C56.9043 51.2063 59.9349 56.4311 65.079 59.401C73.3096 64.1529 83.8339 61.3329 88.5858 53.1024Z" fill="#694DD8"/>
</g>
<defs>
<clipPath id="clip0_157_2318">
<rect width="143" height="143" fill="white"/>
</clipPath>
</defs>
</svg>
