<svg width="1518" height="300" viewBox="0 0 1518 300" fill="none" xmlns="http://www.w3.org/2000/svg">
<g clip-path="url(#clip0_576_1140)">
<rect width="1518" height="300" fill="url(#paint0_linear_576_1140)"/>
<rect width="1518" height="300" fill="url(#paint1_linear_576_1140)"/>
<g opacity="0.2">
<path d="M927.518 427.891C729.568 533.285 581.952 652.528 597.807 694.228C613.664 735.928 786.987 684.295 984.935 578.901C1182.88 473.507 1330.5 354.265 1314.65 312.565C1298.79 270.864 1125.47 322.497 927.518 427.891Z" stroke="url(#paint2_linear_576_1140)" stroke-miterlimit="10"/>
<path d="M924.142 422.798C721.527 535.975 571.69 663.866 589.476 708.449C607.26 753.033 785.929 697.426 988.545 584.25C1191.16 471.073 1341 343.183 1323.21 298.599C1305.43 254.015 1126.76 309.622 924.142 422.798Z" stroke="url(#paint3_linear_576_1140)" stroke-miterlimit="10"/>
<path d="M919.901 417.152C712.979 538.408 561.424 675.395 581.397 723.119C601.368 770.843 785.302 711.233 992.226 589.977C1199.15 468.721 1350.7 331.734 1330.73 284.01C1310.76 236.286 1126.82 295.896 919.901 417.152Z" stroke="url(#paint4_linear_576_1140)" stroke-miterlimit="10"/>
<path d="M915.424 411.247C704.589 540.869 551.803 687.24 574.165 738.172C596.528 789.105 785.571 725.316 996.405 595.694C1207.24 466.072 1360.03 319.702 1337.66 268.768C1315.3 217.836 1126.26 281.625 915.424 411.247Z" stroke="url(#paint5_linear_576_1140)" stroke-miterlimit="10"/>
<path d="M910.337 404.437C696.296 542.543 543.21 698.833 568.41 753.523C593.608 808.211 787.551 740.586 1001.59 602.481C1215.63 464.375 1368.72 308.083 1343.52 253.395C1318.32 198.707 1124.38 266.33 910.337 404.437Z" stroke="url(#paint6_linear_576_1140)" stroke-miterlimit="10"/>
<path d="M904.81 397.374C687.991 544.247 535.153 710.711 563.437 769.179C591.721 827.647 790.417 755.979 1007.24 609.104C1224.06 462.229 1376.89 295.767 1348.61 237.299C1320.33 178.83 1121.63 250.499 904.81 397.374Z" stroke="url(#paint7_linear_576_1140)" stroke-miterlimit="10"/>
<path d="M898.616 389.976C679.633 545.836 527.959 723.033 559.842 785.76C591.725 848.487 795.092 772.989 1014.07 617.13C1233.05 461.272 1384.73 284.073 1352.85 221.346C1320.96 158.619 1117.6 234.117 898.616 389.976Z" stroke="url(#paint8_linear_576_1140)" stroke-miterlimit="10"/>
<path d="M890.974 380.994C670.405 546.012 520.808 734.456 556.84 801.893C592.871 869.333 800.885 790.23 1021.45 625.213C1242.02 460.195 1391.62 271.752 1355.59 204.312C1319.56 136.874 1111.54 215.977 890.974 380.994Z" stroke="url(#paint9_linear_576_1140)" stroke-miterlimit="10"/>
<path d="M882.358 372.11C660.98 546.39 514.507 746.351 555.202 818.737C595.897 891.121 808.35 808.521 1029.73 634.241C1251.11 459.961 1397.58 260 1356.88 187.614C1316.19 115.229 1103.74 197.83 882.358 372.11Z" stroke="url(#paint10_linear_576_1140)" stroke-miterlimit="10"/>
<path d="M872.506 362.367C650.975 546.068 508.75 758.08 554.839 835.908C600.927 913.735 817.875 827.908 1039.41 644.205C1260.94 460.503 1403.16 248.492 1357.07 170.664C1310.98 92.8369 1094.04 178.666 872.506 362.367Z" stroke="url(#paint11_linear_576_1140)" stroke-miterlimit="10"/>
<path d="M861.786 352.246C640.926 545.392 504.175 769.689 556.344 853.225C608.514 936.762 829.85 847.905 1050.71 654.759C1271.57 461.613 1408.32 237.317 1356.15 153.781C1303.98 70.2432 1082.65 159.1 861.786 352.246Z" stroke="url(#paint12_linear_576_1140)" stroke-miterlimit="10"/>
<path d="M849.009 340.449C629.609 543.017 499.803 780.113 559.081 870.017C618.359 959.922 844.272 868.591 1063.67 666.023C1283.07 463.456 1412.88 226.361 1353.6 136.455C1294.32 46.5511 1068.41 137.882 849.009 340.449Z" stroke="url(#paint13_linear_576_1140)" stroke-miterlimit="10"/>
<path d="M834.419 328.701C617.311 540.668 495.866 790.751 563.164 887.275C630.463 983.8 861.021 890.214 1078.13 678.247C1295.24 466.278 1416.68 216.196 1349.39 119.671C1282.09 23.1459 1051.53 116.732 834.419 328.701Z" stroke="url(#paint14_linear_576_1140)" stroke-miterlimit="10"/>
<path d="M817.605 315.451C603.608 536.693 492.214 800.137 568.799 903.868C645.383 1007.6 880.948 912.336 1094.95 691.093C1308.94 469.849 1420.34 206.405 1343.75 102.676C1267.17 -1.05585 1031.6 94.2075 817.605 315.451Z" stroke="url(#paint15_linear_576_1140)" stroke-miterlimit="10"/>
<path d="M798.22 301.677C588.162 532.053 488.594 809.1 575.827 920.481C663.062 1031.86 904.063 935.396 1114.12 705.022C1324.18 474.647 1423.75 197.599 1336.51 86.2195C1249.28 -25.1619 1008.28 71.3022 798.22 301.677Z" stroke="url(#paint16_linear_576_1140)" stroke-miterlimit="10"/>
<path d="M776.377 287.261C570.986 526.663 485.084 817.568 584.509 937.014C683.934 1056.46 931.038 959.217 1136.43 719.815C1341.82 480.412 1427.72 189.507 1328.3 70.0601C1228.87 -49.3852 981.769 47.8574 776.377 287.261Z" stroke="url(#paint17_linear_576_1140)" stroke-miterlimit="10"/>
<path d="M750.901 271.727C550.948 519.857 480.751 824.705 594.11 952.621C707.47 1080.54 961.459 983.084 1161.41 734.954C1361.36 486.821 1431.56 181.976 1318.2 54.0592C1204.84 -73.8575 950.854 23.5963 750.901 271.727Z" stroke="url(#paint18_linear_576_1140)" stroke-miterlimit="10"/>
<path d="M722.193 255.916C528.479 512.397 476.214 831.121 605.453 967.806C734.692 1104.49 996.496 1007.38 1190.21 750.895C1383.92 494.414 1436.19 175.69 1306.95 39.0051C1177.71 -97.6799 915.905 -0.564265 722.193 255.916Z" stroke="url(#paint19_linear_576_1140)" stroke-miterlimit="10"/>
<path d="M689.219 239.126C502.277 503.766 470.307 836.582 617.812 982.49C765.318 1128.4 1036.44 1032.15 1223.38 767.51C1410.33 502.868 1442.29 170.054 1294.79 24.1439C1147.28 -121.765 876.16 -25.5133 689.219 239.126Z" stroke="url(#paint20_linear_576_1140)" stroke-miterlimit="10"/>
<path d="M651.632 222.541C472.056 494.971 462.793 841.639 630.943 996.849C799.094 1152.06 1080.98 1057.03 1260.56 784.604C1440.14 512.175 1449.4 165.507 1281.25 10.2971C1113.1 -144.912 831.209 -49.8866 651.632 222.541Z" stroke="url(#paint21_linear_576_1140)" stroke-miterlimit="10"/>
<path d="M609.536 205.376C437.89 485.073 454.055 845.279 645.64 1009.92C837.227 1174.56 1131.69 1081.28 1303.33 801.583C1474.98 521.885 1458.81 161.678 1267.23 -2.95922C1075.64 -167.598 781.183 -74.3226 609.536 205.376Z" stroke="url(#paint22_linear_576_1140)" stroke-miterlimit="10"/>
<path d="M561.174 188.352C397.725 475.106 442.001 848.662 660.066 1022.72C878.131 1196.77 1187.41 1105.41 1350.86 818.656C1514.31 531.903 1470.03 158.345 1251.97 -15.7092C1033.9 -189.763 724.623 -98.4007 561.174 188.352Z" stroke="url(#paint23_linear_576_1140)" stroke-miterlimit="10"/>
<path d="M1220.76 -39.017C967.629 -211.954 643.959 -109.326 497.816 190.21C351.673 489.746 438.4 872.76 691.527 1045.7C944.653 1218.63 1268.33 1116.01 1414.47 816.469C1560.61 516.935 1473.88 133.919 1220.76 -39.017Z" stroke="url(#paint24_linear_576_1140)" stroke-miterlimit="10"/>
</g>
<g opacity="0.2">
<path d="M74.9177 384.514C-101.356 461.72 -236.019 550.631 -225.864 583.101C-215.707 615.573 -64.5766 579.308 111.697 502.102C287.97 424.895 422.634 335.985 412.479 303.513C402.322 271.043 251.19 307.307 74.9177 384.514Z" stroke="url(#paint25_linear_576_1140)" stroke-miterlimit="10"/>
<path d="M72.4711 381.118C-109.671 464.977 -248.117 560.966 -236.758 595.515C-225.398 630.065 -68.5354 590.09 113.607 506.231C295.749 422.371 434.196 326.382 422.836 291.834C411.476 257.285 254.613 297.259 72.4711 381.118Z" stroke="url(#paint26_linear_576_1140)" stroke-miterlimit="10"/>
<path d="M70.1301 376.909C-117.566 467.651 -259.436 571.01 -246.746 607.767C-234.055 644.524 -71.6096 600.758 116.085 510.016C303.781 419.274 445.651 315.915 432.96 279.158C420.271 242.401 257.825 286.166 70.1301 376.909Z" stroke="url(#paint27_linear_576_1140)" stroke-miterlimit="10"/>
<path d="M67.5079 372.112C-125.559 470.071 -270.54 581.307 -256.314 620.566C-242.09 659.825 -74.0465 612.242 119.022 514.283C312.089 416.325 457.069 305.088 442.845 265.828C428.619 226.568 260.576 274.154 67.5079 372.112Z" stroke="url(#paint28_linear_576_1140)" stroke-miterlimit="10"/>
<path d="M64.5179 367.891C-133.432 473.285 -281.048 592.528 -265.193 634.228C-249.336 675.928 -76.0132 624.295 121.935 518.901C319.885 413.507 467.502 294.265 451.646 252.565C435.791 210.864 262.468 262.497 64.5179 367.891Z" stroke="url(#paint29_linear_576_1140)" stroke-miterlimit="10"/>
<path d="M61.1418 362.798C-141.473 475.975 -291.31 603.866 -273.524 648.449C-255.74 693.033 -77.0714 637.426 125.545 524.25C328.16 411.073 477.995 283.183 460.211 238.599C442.427 194.015 263.757 249.622 61.1418 362.798Z" stroke="url(#paint30_linear_576_1140)" stroke-miterlimit="10"/>
<path d="M56.9013 357.152C-150.021 478.408 -301.576 615.395 -281.603 663.119C-261.632 710.843 -77.6976 651.233 129.226 529.977C336.149 408.721 487.703 271.734 467.732 224.01C447.759 176.286 263.825 235.896 56.9013 357.152Z" stroke="url(#paint31_linear_576_1140)" stroke-miterlimit="10"/>
<path d="M52.4238 351.247C-158.411 480.869 -311.197 627.24 -288.835 678.172C-266.472 729.105 -77.4291 665.316 133.405 535.694C344.24 406.072 497.027 259.702 474.664 208.768C452.303 157.836 263.258 221.625 52.4238 351.247Z" stroke="url(#paint32_linear_576_1140)" stroke-miterlimit="10"/>
<path d="M47.3375 344.437C-166.704 482.543 -319.79 638.833 -294.59 693.523C-269.392 748.211 -75.4486 680.586 138.592 542.481C352.634 404.375 505.721 248.083 480.521 193.395C455.322 138.707 261.379 206.33 47.3375 344.437Z" stroke="url(#paint33_linear_576_1140)" stroke-miterlimit="10"/>
<path d="M41.8102 337.374C-175.009 484.247 -327.847 650.711 -299.563 709.179C-271.279 767.647 -72.5835 695.979 144.236 549.104C361.056 402.229 513.895 235.767 485.611 177.299C457.327 118.83 258.63 190.499 41.8102 337.374Z" stroke="url(#paint34_linear_576_1140)" stroke-miterlimit="10"/>
<path d="M35.6159 329.976C-183.367 485.836 -335.041 663.033 -303.158 725.76C-271.275 788.487 -67.9084 712.989 151.073 557.13C370.055 401.272 521.73 224.073 489.847 161.346C457.964 98.6186 254.597 174.117 35.6159 329.976Z" stroke="url(#paint35_linear_576_1140)" stroke-miterlimit="10"/>
<path d="M27.9744 320.994C-192.595 486.012 -342.192 674.456 -306.16 741.893C-270.129 809.333 -62.1146 730.23 158.455 565.213C379.022 400.195 528.619 211.752 492.589 144.312C456.558 76.8744 248.542 155.977 27.9744 320.994Z" stroke="url(#paint36_linear_576_1140)" stroke-miterlimit="10"/>
<path d="M19.3578 312.11C-202.02 486.39 -348.493 686.351 -307.798 758.737C-267.103 831.121 -54.6503 748.521 166.727 574.241C388.106 399.961 534.578 200 493.883 127.614C453.188 55.2292 240.735 137.83 19.3578 312.11Z" stroke="url(#paint37_linear_576_1140)" stroke-miterlimit="10"/>
<path d="M9.50574 302.367C-212.025 486.068 -354.25 698.08 -308.161 775.908C-262.073 853.735 -45.125 767.908 176.406 584.205C397.937 400.503 540.162 188.492 494.074 110.664C447.985 32.8369 231.037 118.666 9.50574 302.367Z" stroke="url(#paint38_linear_576_1140)" stroke-miterlimit="10"/>
<path d="M-1.21378 292.246C-222.074 485.392 -358.825 709.689 -306.656 793.225C-254.486 876.762 -33.1498 787.905 187.711 594.759C408.573 401.613 545.324 177.317 493.153 93.7808C440.984 10.2432 219.648 99.1002 -1.21378 292.246Z" stroke="url(#paint39_linear_576_1140)" stroke-miterlimit="10"/>
<path d="M-13.9915 280.449C-233.391 483.017 -363.197 720.113 -303.919 810.017C-244.641 899.922 -18.7278 808.591 200.672 606.023C420.072 403.456 549.877 166.361 490.599 76.4555C431.321 -13.4489 205.408 77.8822 -13.9915 280.449Z" stroke="url(#paint40_linear_576_1140)" stroke-miterlimit="10"/>
<path d="M-28.5807 268.701C-245.689 480.668 -367.134 730.751 -299.836 827.275C-232.537 923.8 -1.97897 830.214 215.131 618.247C432.239 406.278 553.684 156.196 486.386 59.671C419.086 -36.8541 188.529 56.7318 -28.5807 268.701Z" stroke="url(#paint41_linear_576_1140)" stroke-miterlimit="10"/>
<path d="M-45.3946 255.451C-259.392 476.693 -370.786 740.137 -294.201 843.868C-217.617 947.598 17.9477 852.336 231.946 631.093C445.943 409.849 557.339 146.405 480.754 42.6755C404.168 -61.0559 168.604 34.2075 -45.3946 255.451Z" stroke="url(#paint42_linear_576_1140)" stroke-miterlimit="10"/>
<path d="M-64.7804 241.677C-274.838 472.053 -374.406 749.1 -287.173 860.481C-199.938 971.861 41.0634 875.396 251.12 645.022C461.178 414.647 560.745 137.599 473.512 26.2195C386.278 -85.1619 145.276 11.3022 -64.7804 241.677Z" stroke="url(#paint43_linear_576_1140)" stroke-miterlimit="10"/>
<path d="M-86.6226 227.261C-292.014 466.663 -377.916 757.568 -278.491 877.014C-179.066 996.46 68.0381 899.217 273.43 659.815C478.821 420.412 564.723 129.507 465.298 10.0601C365.871 -109.385 118.769 -12.1426 -86.6226 227.261Z" stroke="url(#paint44_linear_576_1140)" stroke-miterlimit="10"/>
<path d="M-112.099 211.727C-312.052 459.857 -382.249 764.705 -268.89 892.621C-155.53 1020.54 98.4595 923.084 298.412 674.954C498.365 426.821 568.562 121.976 455.203 -5.94079C341.843 -133.857 87.8536 -36.4037 -112.099 211.727Z" stroke="url(#paint45_linear_576_1140)" stroke-miterlimit="10"/>
<path d="M-140.807 195.916C-334.521 452.397 -386.786 771.121 -257.547 907.806C-128.308 1044.49 133.496 947.377 327.209 690.895C520.923 434.414 573.188 115.69 443.95 -20.9949C314.71 -157.68 52.9052 -60.5643 -140.807 195.916Z" stroke="url(#paint46_linear_576_1140)" stroke-miterlimit="10"/>
<path d="M-173.781 179.126C-360.723 443.766 -392.693 776.582 -245.188 922.49C-97.6822 1068.4 173.441 972.149 360.383 707.51C547.326 442.868 579.295 110.054 431.789 -35.8561C284.284 -181.765 13.16 -85.5133 -173.781 179.126Z" stroke="url(#paint47_linear_576_1140)" stroke-miterlimit="10"/>
<path d="M-211.368 162.541C-390.944 434.971 -400.207 781.639 -232.057 936.849C-63.9064 1092.06 217.983 997.032 397.558 724.604C577.136 452.175 586.398 105.507 418.247 -49.7029C250.097 -204.912 -31.7906 -109.887 -211.368 162.541Z" stroke="url(#paint48_linear_576_1140)" stroke-miterlimit="10"/>
<path d="M-253.464 145.376C-425.11 425.073 -408.945 785.279 -217.36 949.918C-25.7732 1114.56 268.686 1021.28 440.332 741.583C611.978 461.885 595.814 101.678 404.227 -62.9592C212.64 -227.598 -81.8173 -134.323 -253.464 145.376Z" stroke="url(#paint49_linear_576_1140)" stroke-miterlimit="10"/>
<path d="M-301.826 128.352C-465.275 415.106 -420.999 788.662 -202.934 962.716C15.1308 1136.77 324.41 1045.41 487.859 758.656C651.308 471.903 607.033 98.3448 388.967 -75.7092C170.901 -249.763 -138.377 -158.401 -301.826 128.352Z" stroke="url(#paint50_linear_576_1140)" stroke-miterlimit="10"/>
<path d="M357.756 -99.017C104.629 -271.954 -219.041 -169.326 -365.184 130.21C-511.327 429.746 -424.6 812.76 -171.473 985.696C81.6525 1158.63 405.325 1056.01 551.467 756.469C697.609 456.935 610.882 73.9187 357.756 -99.017Z" stroke="url(#paint51_linear_576_1140)" stroke-miterlimit="10"/>
</g>
</g>
<defs>
<linearGradient id="paint0_linear_576_1140" x1="-1.6767e-05" y1="300" x2="1475.99" y2="-83.8874" gradientUnits="userSpaceOnUse">
<stop stop-color="#572DFF"/>
<stop offset="0.365833" stop-color="#582EFF" stop-opacity="0.417408"/>
<stop offset="0.867861" stop-color="#653EFF"/>
<stop offset="1" stop-color="#562CFF"/>
</linearGradient>
<linearGradient id="paint1_linear_576_1140" x1="759" y1="0" x2="759" y2="300" gradientUnits="userSpaceOnUse">
<stop offset="0.859206" stop-opacity="0"/>
<stop offset="1" stop-color="#0E0E10"/>
</linearGradient>
<linearGradient id="paint2_linear_576_1140" x1="984.935" y1="578.901" x2="909.61" y2="437.426" gradientUnits="userSpaceOnUse">
<stop stop-color="#694DD8" stop-opacity="0.35"/>
<stop offset="1" stop-color="#2F2929"/>
</linearGradient>
<linearGradient id="paint3_linear_576_1140" x1="988.545" y1="584.25" x2="904.492" y2="433.774" gradientUnits="userSpaceOnUse">
<stop stop-color="#694DD8" stop-opacity="0.35"/>
<stop offset="1" stop-color="#2F2929"/>
</linearGradient>
<linearGradient id="paint4_linear_576_1140" x1="992.226" y1="589.977" x2="898.35" y2="429.781" gradientUnits="userSpaceOnUse">
<stop stop-color="#694DD8" stop-opacity="0.35"/>
<stop offset="1" stop-color="#2F2929"/>
</linearGradient>
<linearGradient id="paint5_linear_576_1140" x1="996.405" y1="595.694" x2="891.899" y2="425.71" gradientUnits="userSpaceOnUse">
<stop stop-color="#694DD8" stop-opacity="0.35"/>
<stop offset="1" stop-color="#2F2929"/>
</linearGradient>
<linearGradient id="paint6_linear_576_1140" x1="1001.59" y1="602.48" x2="884.546" y2="421.078" gradientUnits="userSpaceOnUse">
<stop stop-color="#694DD8" stop-opacity="0.35"/>
<stop offset="1" stop-color="#2F2929"/>
</linearGradient>
<linearGradient id="paint7_linear_576_1140" x1="1007.24" y1="609.104" x2="876.705" y2="416.412" gradientUnits="userSpaceOnUse">
<stop stop-color="#694DD8" stop-opacity="0.35"/>
<stop offset="1" stop-color="#2F2929"/>
</linearGradient>
<linearGradient id="paint8_linear_576_1140" x1="1014.07" y1="617.13" x2="867.939" y2="411.811" gradientUnits="userSpaceOnUse">
<stop stop-color="#694DD8" stop-opacity="0.35"/>
<stop offset="1" stop-color="#2F2929"/>
</linearGradient>
<linearGradient id="paint9_linear_576_1140" x1="1021.45" y1="625.213" x2="857.487" y2="406.047" gradientUnits="userSpaceOnUse">
<stop stop-color="#694DD8" stop-opacity="0.35"/>
<stop offset="1" stop-color="#2F2929"/>
</linearGradient>
<linearGradient id="paint10_linear_576_1140" x1="1029.73" y1="634.241" x2="845.937" y2="400.782" gradientUnits="userSpaceOnUse">
<stop stop-color="#694DD8" stop-opacity="0.35"/>
<stop offset="1" stop-color="#2F2929"/>
</linearGradient>
<linearGradient id="paint11_linear_576_1140" x1="1039.41" y1="644.205" x2="832.917" y2="395.195" gradientUnits="userSpaceOnUse">
<stop stop-color="#694DD8" stop-opacity="0.35"/>
<stop offset="1" stop-color="#2F2929"/>
</linearGradient>
<linearGradient id="paint12_linear_576_1140" x1="1050.71" y1="654.759" x2="818.932" y2="389.722" gradientUnits="userSpaceOnUse">
<stop stop-color="#694DD8" stop-opacity="0.35"/>
<stop offset="1" stop-color="#2F2929"/>
</linearGradient>
<linearGradient id="paint13_linear_576_1140" x1="1063.67" y1="666.023" x2="802.621" y2="383.278" gradientUnits="userSpaceOnUse">
<stop stop-color="#694DD8" stop-opacity="0.35"/>
<stop offset="1" stop-color="#2F2929"/>
</linearGradient>
<linearGradient id="paint14_linear_576_1140" x1="1078.13" y1="678.247" x2="784.471" y2="377.466" gradientUnits="userSpaceOnUse">
<stop stop-color="#694DD8" stop-opacity="0.35"/>
<stop offset="1" stop-color="#2F2929"/>
</linearGradient>
<linearGradient id="paint15_linear_576_1140" x1="1094.95" y1="691.093" x2="763.944" y2="370.93" gradientUnits="userSpaceOnUse">
<stop stop-color="#694DD8" stop-opacity="0.35"/>
<stop offset="1" stop-color="#2F2929"/>
</linearGradient>
<linearGradient id="paint16_linear_576_1140" x1="1114.12" y1="705.022" x2="740.813" y2="364.636" gradientUnits="userSpaceOnUse">
<stop stop-color="#694DD8" stop-opacity="0.35"/>
<stop offset="1" stop-color="#2F2929"/>
</linearGradient>
<linearGradient id="paint17_linear_576_1140" x1="1136.43" y1="719.814" x2="715.27" y2="358.488" gradientUnits="userSpaceOnUse">
<stop stop-color="#694DD8" stop-opacity="0.35"/>
<stop offset="1" stop-color="#2F2929"/>
</linearGradient>
<linearGradient id="paint18_linear_576_1140" x1="1161.41" y1="734.954" x2="686.203" y2="352.013" gradientUnits="userSpaceOnUse">
<stop stop-color="#694DD8" stop-opacity="0.35"/>
<stop offset="1" stop-color="#2F2929"/>
</linearGradient>
<linearGradient id="paint19_linear_576_1140" x1="1190.21" y1="750.895" x2="654.141" y2="346.017" gradientUnits="userSpaceOnUse">
<stop stop-color="#694DD8" stop-opacity="0.35"/>
<stop offset="1" stop-color="#2F2929"/>
</linearGradient>
<linearGradient id="paint20_linear_576_1140" x1="1223.38" y1="767.51" x2="618.038" y2="339.892" gradientUnits="userSpaceOnUse">
<stop stop-color="#694DD8" stop-opacity="0.35"/>
<stop offset="1" stop-color="#2F2929"/>
</linearGradient>
<linearGradient id="paint21_linear_576_1140" x1="1260.56" y1="784.604" x2="577.8" y2="334.549" gradientUnits="userSpaceOnUse">
<stop stop-color="#694DD8" stop-opacity="0.35"/>
<stop offset="1" stop-color="#2F2929"/>
</linearGradient>
<linearGradient id="paint22_linear_576_1140" x1="1303.33" y1="801.583" x2="533.556" y2="329.184" gradientUnits="userSpaceOnUse">
<stop stop-color="#694DD8" stop-opacity="0.35"/>
<stop offset="1" stop-color="#2F2929"/>
</linearGradient>
<linearGradient id="paint23_linear_576_1140" x1="1350.86" y1="818.656" x2="483.655" y2="324.351" gradientUnits="userSpaceOnUse">
<stop stop-color="#694DD8" stop-opacity="0.35"/>
<stop offset="1" stop-color="#2F2929"/>
</linearGradient>
<linearGradient id="paint24_linear_576_1140" x1="691.527" y1="1045.7" x2="1365.19" y2="59.6613" gradientUnits="userSpaceOnUse">
<stop stop-color="#694DD8" stop-opacity="0.35"/>
<stop offset="1" stop-color="#2F2929"/>
</linearGradient>
<linearGradient id="paint25_linear_576_1140" x1="111.697" y1="502.102" x2="62.5644" y2="389.925" gradientUnits="userSpaceOnUse">
<stop stop-color="#694DD8" stop-opacity="0.35"/>
<stop offset="1" stop-color="#2F2929"/>
</linearGradient>
<linearGradient id="paint26_linear_576_1140" x1="113.607" y1="506.231" x2="58.8844" y2="387.373" gradientUnits="userSpaceOnUse">
<stop stop-color="#694DD8" stop-opacity="0.35"/>
<stop offset="1" stop-color="#2F2929"/>
</linearGradient>
<linearGradient id="paint27_linear_576_1140" x1="116.085" y1="510.016" x2="55.2191" y2="384.117" gradientUnits="userSpaceOnUse">
<stop stop-color="#694DD8" stop-opacity="0.35"/>
<stop offset="1" stop-color="#2F2929"/>
</linearGradient>
<linearGradient id="paint28_linear_576_1140" x1="119.022" y1="514.283" x2="51.1085" y2="380.433" gradientUnits="userSpaceOnUse">
<stop stop-color="#694DD8" stop-opacity="0.35"/>
<stop offset="1" stop-color="#2F2929"/>
</linearGradient>
<linearGradient id="paint29_linear_576_1140" x1="121.935" y1="518.901" x2="46.6101" y2="377.426" gradientUnits="userSpaceOnUse">
<stop stop-color="#694DD8" stop-opacity="0.35"/>
<stop offset="1" stop-color="#2F2929"/>
</linearGradient>
<linearGradient id="paint30_linear_576_1140" x1="125.545" y1="524.25" x2="41.492" y2="373.774" gradientUnits="userSpaceOnUse">
<stop stop-color="#694DD8" stop-opacity="0.35"/>
<stop offset="1" stop-color="#2F2929"/>
</linearGradient>
<linearGradient id="paint31_linear_576_1140" x1="129.226" y1="529.977" x2="35.3503" y2="369.781" gradientUnits="userSpaceOnUse">
<stop stop-color="#694DD8" stop-opacity="0.35"/>
<stop offset="1" stop-color="#2F2929"/>
</linearGradient>
<linearGradient id="paint32_linear_576_1140" x1="133.405" y1="535.694" x2="28.8987" y2="365.71" gradientUnits="userSpaceOnUse">
<stop stop-color="#694DD8" stop-opacity="0.35"/>
<stop offset="1" stop-color="#2F2929"/>
</linearGradient>
<linearGradient id="paint33_linear_576_1140" x1="138.592" y1="542.48" x2="21.5458" y2="361.078" gradientUnits="userSpaceOnUse">
<stop stop-color="#694DD8" stop-opacity="0.35"/>
<stop offset="1" stop-color="#2F2929"/>
</linearGradient>
<linearGradient id="paint34_linear_576_1140" x1="144.236" y1="549.104" x2="13.7055" y2="356.412" gradientUnits="userSpaceOnUse">
<stop stop-color="#694DD8" stop-opacity="0.35"/>
<stop offset="1" stop-color="#2F2929"/>
</linearGradient>
<linearGradient id="paint35_linear_576_1140" x1="151.073" y1="557.13" x2="4.93856" y2="351.811" gradientUnits="userSpaceOnUse">
<stop stop-color="#694DD8" stop-opacity="0.35"/>
<stop offset="1" stop-color="#2F2929"/>
</linearGradient>
<linearGradient id="paint36_linear_576_1140" x1="158.455" y1="565.213" x2="-5.51338" y2="346.047" gradientUnits="userSpaceOnUse">
<stop stop-color="#694DD8" stop-opacity="0.35"/>
<stop offset="1" stop-color="#2F2929"/>
</linearGradient>
<linearGradient id="paint37_linear_576_1140" x1="166.727" y1="574.241" x2="-17.0627" y2="340.782" gradientUnits="userSpaceOnUse">
<stop stop-color="#694DD8" stop-opacity="0.35"/>
<stop offset="1" stop-color="#2F2929"/>
</linearGradient>
<linearGradient id="paint38_linear_576_1140" x1="176.406" y1="584.205" x2="-30.0826" y2="335.195" gradientUnits="userSpaceOnUse">
<stop stop-color="#694DD8" stop-opacity="0.35"/>
<stop offset="1" stop-color="#2F2929"/>
</linearGradient>
<linearGradient id="paint39_linear_576_1140" x1="187.711" y1="594.759" x2="-44.0675" y2="329.722" gradientUnits="userSpaceOnUse">
<stop stop-color="#694DD8" stop-opacity="0.35"/>
<stop offset="1" stop-color="#2F2929"/>
</linearGradient>
<linearGradient id="paint40_linear_576_1140" x1="200.672" y1="606.023" x2="-60.3792" y2="323.278" gradientUnits="userSpaceOnUse">
<stop stop-color="#694DD8" stop-opacity="0.35"/>
<stop offset="1" stop-color="#2F2929"/>
</linearGradient>
<linearGradient id="paint41_linear_576_1140" x1="215.131" y1="618.247" x2="-78.5285" y2="317.466" gradientUnits="userSpaceOnUse">
<stop stop-color="#694DD8" stop-opacity="0.35"/>
<stop offset="1" stop-color="#2F2929"/>
</linearGradient>
<linearGradient id="paint42_linear_576_1140" x1="231.946" y1="631.093" x2="-99.0556" y2="310.93" gradientUnits="userSpaceOnUse">
<stop stop-color="#694DD8" stop-opacity="0.35"/>
<stop offset="1" stop-color="#2F2929"/>
</linearGradient>
<linearGradient id="paint43_linear_576_1140" x1="251.12" y1="645.022" x2="-122.187" y2="304.636" gradientUnits="userSpaceOnUse">
<stop stop-color="#694DD8" stop-opacity="0.35"/>
<stop offset="1" stop-color="#2F2929"/>
</linearGradient>
<linearGradient id="paint44_linear_576_1140" x1="273.43" y1="659.814" x2="-147.73" y2="298.488" gradientUnits="userSpaceOnUse">
<stop stop-color="#694DD8" stop-opacity="0.35"/>
<stop offset="1" stop-color="#2F2929"/>
</linearGradient>
<linearGradient id="paint45_linear_576_1140" x1="298.412" y1="674.954" x2="-176.797" y2="292.013" gradientUnits="userSpaceOnUse">
<stop stop-color="#694DD8" stop-opacity="0.35"/>
<stop offset="1" stop-color="#2F2929"/>
</linearGradient>
<linearGradient id="paint46_linear_576_1140" x1="327.209" y1="690.895" x2="-208.859" y2="286.017" gradientUnits="userSpaceOnUse">
<stop stop-color="#694DD8" stop-opacity="0.35"/>
<stop offset="1" stop-color="#2F2929"/>
</linearGradient>
<linearGradient id="paint47_linear_576_1140" x1="360.383" y1="707.51" x2="-244.962" y2="279.892" gradientUnits="userSpaceOnUse">
<stop stop-color="#694DD8" stop-opacity="0.35"/>
<stop offset="1" stop-color="#2F2929"/>
</linearGradient>
<linearGradient id="paint48_linear_576_1140" x1="397.559" y1="724.604" x2="-285.2" y2="274.549" gradientUnits="userSpaceOnUse">
<stop stop-color="#694DD8" stop-opacity="0.35"/>
<stop offset="1" stop-color="#2F2929"/>
</linearGradient>
<linearGradient id="paint49_linear_576_1140" x1="440.332" y1="741.583" x2="-329.444" y2="269.184" gradientUnits="userSpaceOnUse">
<stop stop-color="#694DD8" stop-opacity="0.35"/>
<stop offset="1" stop-color="#2F2929"/>
</linearGradient>
<linearGradient id="paint50_linear_576_1140" x1="487.86" y1="758.656" x2="-379.345" y2="264.351" gradientUnits="userSpaceOnUse">
<stop stop-color="#694DD8" stop-opacity="0.35"/>
<stop offset="1" stop-color="#2F2929"/>
</linearGradient>
<linearGradient id="paint51_linear_576_1140" x1="-171.473" y1="985.696" x2="502.19" y2="-0.338736" gradientUnits="userSpaceOnUse">
<stop stop-color="#694DD8" stop-opacity="0.35"/>
<stop offset="1" stop-color="#2F2929"/>
</linearGradient>
<clipPath id="clip0_576_1140">
<rect width="1518" height="300" fill="white"/>
</clipPath>
</defs>
</svg>
