<svg width="40" height="40" viewBox="0 0 40 40" fill="none" xmlns="http://www.w3.org/2000/svg">
<path d="M7.17566 15.305C4.53835 15.305 2.40039 17.443 2.40039 20.0803C2.40039 21.8195 3.33018 23.3416 4.71981 24.1765C5.40199 24.5864 5.94774 25.8379 5.94774 27.5843C5.94774 27.6071 5.9476 27.6299 5.94732 27.6525C5.9476 27.6752 5.94774 27.6979 5.94774 27.7207C5.94774 29.1835 5.41974 30.2947 4.99268 30.8588C4.90987 30.9681 4.71981 31.1285 4.71981 31.1285C4.71981 31.1285 4.57581 31.2177 4.50576 31.265C3.23553 32.1231 2.40039 33.5764 2.40039 35.2247C2.40039 37.862 4.53835 40 7.17566 40C9.81298 40 11.9509 37.862 11.9509 35.2247C11.9509 33.4855 11.0211 31.9635 9.63152 31.1285C9.01633 30.7589 8.40359 29.4671 8.40359 27.7207C8.40359 27.6979 8.40373 27.6752 8.40401 27.6525C8.40373 27.6299 8.40359 27.6071 8.40359 27.5843C8.40359 26.1215 8.93158 25.0103 9.35865 24.4462C9.44146 24.3369 9.63152 24.1734 9.63152 24.1734C9.63152 24.1734 9.77552 24.0873 9.84557 24.04C11.1158 23.1819 11.9509 21.7286 11.9509 20.0803C11.9509 17.443 9.81298 15.305 7.17566 15.305Z" fill="#694DD8"/>
<path d="M37.3334 17.6419C36.0147 15.358 33.0942 14.5754 30.8102 15.8941C29.304 16.7637 28.4508 18.3299 28.4225 19.9508C28.4086 20.7466 27.5976 21.845 26.0852 22.7182C26.0655 22.7296 26.0457 22.7408 26.0259 22.7519C26.0065 22.7635 25.9868 22.775 25.9671 22.7864C24.7003 23.5177 23.4739 23.6161 22.7719 23.5283C22.6358 23.5113 22.4019 23.4269 22.4019 23.4269C22.4019 23.4269 22.2527 23.3467 22.1767 23.3097C20.7984 22.6387 19.1222 22.6421 17.6947 23.4663C15.4108 24.7849 14.6282 27.7054 15.9469 29.9894C17.2655 32.2734 20.186 33.056 22.47 31.7373C23.9762 30.8677 24.8295 29.3014 24.8577 27.6805C24.8702 26.9629 25.6826 25.7864 27.195 24.9132C27.2148 24.9018 27.2345 24.8905 27.2543 24.8795C27.2738 24.8679 27.2934 24.8564 27.3132 24.845C28.5799 24.1136 29.8063 24.0153 30.5083 24.1031C30.6444 24.1201 30.8811 24.2029 30.8811 24.2029C30.8811 24.2029 31.0276 24.2846 31.1036 24.3216C32.4819 24.9926 34.158 24.9892 35.5855 24.1651C37.8695 22.8464 38.652 19.9259 37.3334 17.6419Z" fill="#694DD8"/>
<path d="M24.5825 14.7359C25.9012 12.452 25.1186 9.53144 22.8346 8.21278C21.3284 7.34317 19.5454 7.38737 18.1275 8.17336C17.4314 8.5592 16.0747 8.40607 14.5623 7.53287C14.5425 7.52146 14.5229 7.50997 14.5034 7.4984C14.4837 7.48732 14.4639 7.47607 14.4441 7.46466C13.1774 6.73329 12.479 5.72041 12.204 5.06853C12.1507 4.94213 12.1069 4.69734 12.1069 4.69734C12.1069 4.69734 12.1017 4.52806 12.0957 4.44374C11.9876 2.91461 11.1466 1.46472 9.71916 0.640563C7.43518 -0.678093 4.51467 0.104456 3.19601 2.38843C1.87736 4.67241 2.65991 7.59292 4.94388 8.91158C6.45009 9.78119 8.23312 9.73699 9.65101 8.95101C10.2787 8.60305 11.7038 8.7183 13.2162 9.59149C13.236 9.6029 13.2556 9.61439 13.2751 9.62596C13.2948 9.63704 13.3146 9.64829 13.3344 9.65971C14.6011 10.3911 15.2995 11.4039 15.5745 12.0558C15.6278 12.1822 15.6743 12.4286 15.6743 12.4286C15.6743 12.4286 15.6769 12.5963 15.6828 12.6806C15.7909 14.2098 16.6319 15.6596 18.0594 16.4838C20.3433 17.8025 23.2638 17.0199 24.5825 14.7359Z" fill="#694DD8"/>
</svg>
