<svg width="150" height="114" viewBox="0 0 150 114" fill="none" xmlns="http://www.w3.org/2000/svg">
<path d="M140.625 66.375C140.625 42.8643 126.188 22.7461 105.706 14.3379L93.75 38.25V5.4375C93.75 4.1943 93.2561 3.00201 92.3771 2.12294C91.498 1.24386 90.3057 0.75 89.0625 0.75H60.9375C59.6943 0.75 58.502 1.24386 57.6229 2.12294C56.7439 3.00201 56.25 4.1943 56.25 5.4375V38.25L44.2939 14.3379C23.8125 22.7461 9.375 42.8643 9.375 66.375V85.125H140.625V66.375ZM145.312 94.5H4.6875C3.4443 94.5 2.25201 94.9939 1.37294 95.8729C0.49386 96.752 0 97.9443 0 99.1875L0 108.562C0 109.806 0.49386 110.998 1.37294 111.877C2.25201 112.756 3.4443 113.25 4.6875 113.25H145.312C146.556 113.25 147.748 112.756 148.627 111.877C149.506 110.998 150 109.806 150 108.562V99.1875C150 97.9443 149.506 96.752 148.627 95.8729C147.748 94.9939 146.556 94.5 145.312 94.5Z" fill="#694DD8"/>
</svg>
